<?xml version="1.0" standalone="no"?>
<!DOCTYPE svg PUBLIC "-//W3C//DTD SVG 20010904//EN"
 "http://www.w3.org/TR/2001/REC-SVG-20010904/DTD/svg10.dtd">
<svg version="1.0" xmlns="http://www.w3.org/2000/svg"
 width="720.000000pt" height="480.000000pt" viewBox="0 0 720.000000 480.000000"
 preserveAspectRatio="xMidYMid meet">

<g transform="translate(0.000000,480.000000) scale(0.100000,-0.100000)"
fill="#000000" stroke="none">
<path d="M0 4425 c0 -327 2 -375 15 -375 8 0 16 5 16 10 1 6 2 14 3 19 3 24
17 21 28 -5 17 -39 55 -44 68 -9 15 40 30 29 30 -21 0 -40 2 -45 18 -40 16 6
16 5 0 -8 -22 -16 -23 -36 -3 -36 8 0 24 -6 35 -12 16 -10 23 -10 36 4 11 10
12 18 5 22 -6 4 -11 0 -11 -10 0 -14 -3 -14 -15 -4 -8 7 -14 18 -14 24 1 6 -1
19 -6 29 -4 10 -2 24 6 33 10 13 10 17 -2 24 -9 6 -5 8 15 6 16 -2 32 -10 37
-18 5 -10 18 -14 34 -10 22 4 25 1 25 -22 0 -14 4 -26 8 -26 15 0 54 61 48 75
-6 17 12 31 35 27 11 -2 16 6 16 28 0 37 3 41 31 33 23 -6 31 -38 10 -45 -7
-3 -8 -9 -3 -19 5 -8 10 -20 10 -28 0 -8 6 -16 13 -18 8 -3 12 7 12 30 0 24 5
36 18 41 9 3 25 11 34 18 22 16 29 8 34 -39 8 -74 7 -71 26 -59 10 6 16 17 13
23 -2 7 0 13 5 13 6 0 11 -10 11 -22 1 -21 2 -21 6 -3 6 22 21 35 41 35 8 0
12 -15 12 -42 0 -41 2 -43 30 -44 22 -1 30 4 32 20 2 16 10 21 33 21 24 0 30
4 30 22 1 40 34 31 37 -10 3 -35 12 -42 61 -51 29 -5 37 -4 37 7 0 8 -7 17
-15 21 -8 3 -15 10 -15 16 0 5 7 10 15 10 8 0 15 7 15 15 0 24 20 17 30 -10 8
-22 15 -25 47 -23 31 3 39 8 41 26 3 18 10 22 39 22 35 0 35 -1 29 -33 -5 -26
-1 -39 15 -58 11 -13 26 -25 32 -25 7 -1 17 -2 24 -3 6 0 15 -14 21 -29 8 -23
15 -28 38 -26 43 2 44 3 44 20 0 8 5 12 10 9 6 -3 10 -15 10 -26 0 -10 6 -19
13 -19 8 0 20 -11 27 -25 7 -14 18 -25 24 -25 34 0 86 -23 91 -40 5 -15 12
-18 35 -13 16 3 50 2 75 -2 35 -5 49 -12 57 -31 7 -15 20 -24 34 -24 12 0 24
-6 27 -14 8 -20 49 -16 54 5 4 16 31 29 60 29 6 0 9 -8 6 -19 -6 -22 21 -35
47 -21 14 8 19 5 23 -11 6 -23 27 -17 27 7 0 12 4 12 20 4 12 -6 20 -21 20
-36 0 -19 5 -25 18 -22 12 2 18 16 22 48 5 44 6 45 43 48 20 2 37 0 38 -5 1
-4 2 -32 3 -62 2 -55 19 -79 29 -41 6 23 27 27 27 5 0 -21 41 -36 58 -22 11 9
9 14 -10 29 -15 11 -18 18 -9 18 8 0 22 7 31 15 17 15 50 11 50 -6 0 -5 9 -9
20 -9 11 0 20 -5 20 -11 0 -6 -7 -9 -15 -5 -12 4 -15 -2 -15 -28 0 -45 21 -51
42 -12 16 29 17 30 18 7 0 -19 3 -21 14 -12 14 12 46 5 46 -10 0 -5 8 -9 17
-9 13 0 14 -3 5 -12 -14 -14 -16 -48 -3 -48 6 0 13 5 16 10 4 6 11 7 17 4 6
-4 32 -8 57 -8 38 -1 48 -5 56 -23 10 -25 18 -27 50 -13 14 6 15 9 5 10 -11 0
-8 7 10 22 l25 20 3 -36 c4 -41 22 -50 22 -10 0 15 5 24 12 22 7 -3 12 -20 12
-39 1 -31 3 -34 29 -31 32 3 57 -13 57 -37 0 -13 10 -16 56 -14 66 1 73 6 49
33 -11 12 -13 20 -6 20 19 0 61 -31 61 -46 0 -8 7 -14 16 -14 11 0 14 6 9 20
-5 15 -2 20 12 20 14 0 15 -2 4 -9 -9 -6 -10 -10 -2 -16 9 -5 9 -10 1 -20 -15
-18 6 -31 25 -15 11 9 15 9 15 1 0 -7 28 -11 80 -11 64 0 80 3 80 15 0 8 7 15
15 15 8 0 14 -3 14 -7 -5 -28 3 -43 22 -43 19 0 19 1 3 17 -15 16 -15 17 2 24
18 6 25 -2 36 -39 1 -4 -11 -10 -28 -13 -23 -5 -24 -7 -6 -8 12 0 22 -5 22
-11 0 -5 4 -10 9 -10 5 0 8 7 7 16 0 9 8 18 19 20 65 12 104 14 110 4 3 -5 14
-10 23 -10 13 0 14 2 3 9 -21 14 5 24 29 11 12 -6 39 -12 61 -12 28 0 44 -6
53 -20 14 -20 14 -20 21 1 5 17 15 21 46 21 24 0 38 4 34 10 -9 14 29 12 43
-2 16 -16 15 -28 -3 -28 -9 0 -15 -9 -15 -25 0 -14 4 -25 9 -25 5 0 12 -10 16
-22 6 -21 8 -20 23 14 17 38 42 51 42 23 0 -21 57 -48 86 -41 14 4 22 11 18
17 -4 7 2 7 16 -1 12 -6 24 -9 28 -6 3 3 0 6 -7 6 -7 0 -9 5 -6 10 10 16 55
12 55 -5 0 -17 49 -32 59 -18 3 5 27 7 54 5 44 -4 47 -6 47 -33 l0 -29 80 0
c64 0 80 3 80 15 0 8 9 15 20 15 12 0 20 -7 20 -16 0 -12 7 -15 25 -12 13 3
27 0 29 -6 3 -6 12 -2 22 12 22 29 54 30 47 1 -5 -19 -4 -20 16 -9 12 6 35 12
50 12 35 1 91 -23 91 -39 0 -9 12 -11 44 -7 53 8 88 -8 84 -38 -4 -29 18 -34
26 -5 5 20 10 22 41 19 30 -4 35 -8 35 -30 0 -24 1 -24 19 -8 16 14 26 16 48
9 28 -10 83 9 83 28 0 5 14 9 31 9 23 0 32 -5 36 -20 4 -16 8 -18 20 -9 10 9
20 9 39 -2 21 -11 27 -11 34 0 4 8 15 11 25 8 9 -4 13 -11 10 -17 -3 -5 -1
-10 4 -10 6 0 10 10 8 23 -2 18 4 23 26 25 23 3 28 8 24 23 -3 10 -1 19 4 19
5 0 9 -8 9 -17 1 -17 1 -17 14 0 11 14 15 15 19 5 3 -7 6 0 6 16 1 23 5 27 21
23 11 -3 18 -1 15 3 -3 5 -1 11 5 15 5 3 10 -1 10 -9 0 -9 5 -16 10 -16 6 0
10 7 10 15 0 10 7 15 18 13 12 -2 16 3 15 20 -2 12 2 22 8 22 5 0 7 -4 4 -10
-3 -5 -2 -10 4 -10 19 0 41 -32 41 -61 0 -18 5 -29 14 -29 8 0 16 -4 18 -9 2
-4 29 -10 60 -13 56 -4 57 -4 52 19 -4 16 -2 23 7 23 11 0 11 3 -1 10 -12 8
-11 10 5 10 12 0 25 -4 30 -9 6 -5 25 -12 43 -16 28 -6 32 -4 32 15 0 19 1 20
16 6 19 -20 25 -20 18 -2 -8 20 12 28 26 11 7 -8 19 -15 27 -15 8 0 11 -5 8
-11 -4 -5 8 -4 27 4 18 7 50 12 71 9 22 -2 49 1 61 7 15 8 38 9 77 3 49 -7 58
-6 67 9 10 15 22 17 77 13 36 -3 65 -1 64 3 -5 31 3 39 42 40 24 1 50 10 61
20 15 13 33 17 78 15 45 -2 59 0 63 12 4 9 12 16 18 16 8 0 8 -4 -1 -15 -7 -8
-11 -15 -9 -16 2 0 27 -1 54 -2 l50 -1 -3 32 c-3 29 -1 32 25 33 23 0 25 2 9
8 -16 6 -11 10 27 22 33 9 47 19 47 31 0 10 -7 18 -16 18 -10 0 -14 -6 -10
-15 3 -8 1 -15 -5 -15 -6 0 -8 15 -4 38 3 20 2 31 -1 25 -7 -15 -74 -18 -74
-3 0 6 -4 10 -10 10 -5 0 -10 -11 -10 -25 0 -21 -4 -24 -30 -22 -16 1 -30 6
-30 12 0 5 -5 4 -11 -2 -7 -7 -20 -8 -33 -4 -23 9 -96 3 -96 -8 0 -8 -89 -6
-117 3 -24 8 -27 16 -17 53 7 25 23 29 139 37 113 8 194 34 180 56 -3 5 4 6
15 3 11 -3 20 0 20 6 0 6 9 11 19 11 12 0 21 8 24 23 4 22 4 22 6 0 1 -15 7
-21 21 -20 11 1 20 5 20 9 0 4 6 8 14 8 7 0 26 12 41 26 15 14 33 23 40 20 27
-10 65 18 65 46 0 25 -3 27 -30 25 -17 -2 -36 -9 -42 -15 -13 -13 -68 5 -68
23 0 28 74 35 84 8 6 -14 8 -14 22 5 21 30 33 28 45 -8 6 -17 17 -30 25 -30 8
0 14 -4 14 -10 0 -5 7 -7 15 -4 8 4 15 15 15 26 0 17 5 18 38 13 25 -4 50 0
76 12 36 16 39 16 50 0 10 -12 15 -14 24 -5 9 9 12 9 12 0 0 -7 7 -12 15 -12
13 0 15 64 15 520 l0 520 -3600 0 -3600 0 0 -375z m360 -194 c0 -6 -4 -13 -10
-16 -5 -3 -10 1 -10 9 0 9 5 16 10 16 6 0 10 -4 10 -9z m-163 -43 c-3 -8 -6
-5 -6 6 -1 11 2 17 5 13 3 -3 4 -12 1 -19z m83 12 c0 -5 -4 -10 -9 -10 -6 0
-13 5 -16 10 -3 6 1 10 9 10 9 0 16 -4 16 -10z m140 1 c0 -12 -28 -22 -34 -12
-3 5 -3 11 1 15 9 9 33 7 33 -3z m331 -134 c-13 -34 -31 -35 -31 -2 0 14 5 25
10 25 6 0 10 12 11 28 l1 27 9 -26 c6 -17 6 -35 0 -52z m-68 46 c-7 -2 -19 -2
-25 0 -7 3 -2 5 12 5 14 0 19 -2 13 -5z m-366 -25 c-3 -8 -6 -5 -6 6 -1 11 2
17 5 13 3 -3 4 -12 1 -19z m963 -70 c0 -19 -2 -20 -10 -8 -13 19 -13 30 0 30
6 0 10 -10 10 -22z m430 -172 c0 -2 -7 -7 -16 -10 -8 -3 -12 -2 -9 4 6 10 25
14 25 6z m5300 -22 c0 -8 -4 -12 -10 -9 -5 3 -10 10 -10 16 0 5 5 9 10 9 6 0
10 -7 10 -16z m-270 -60 c0 -2 -7 -4 -15 -4 -8 0 -15 4 -15 10 0 5 7 7 15 4 8
-4 15 -8 15 -10z m-1267 -40 c9 -4 17 -10 17 -15 0 -12 -57 -11 -65 1 -9 14 4
32 18 26 7 -4 20 -9 30 -12z m767 -4 c0 -11 -2 -20 -5 -20 -2 0 -9 9 -15 20
-9 16 -8 20 5 20 8 0 15 -9 15 -20z m-650 -20 c0 -5 -2 -10 -4 -10 -3 0 -8 5
-11 10 -3 6 -1 10 4 10 6 0 11 -4 11 -10z m757 -6 c-3 -3 -12 -4 -19 -1 -8 3
-5 6 6 6 11 1 17 -2 13 -5z m-3517 -174 c-8 -5 -19 -10 -25 -10 -5 0 -3 5 5
10 8 5 20 10 25 10 6 0 3 -5 -5 -10z m3505 -100 c3 -5 1 -10 -4 -10 -6 0 -11
5 -11 10 0 6 2 10 4 10 3 0 8 -4 11 -10z m-3015 -34 c-14 -14 -22 -2 -14 18 5
14 9 15 15 4 4 -7 4 -17 -1 -22z m495 -16 c3 -5 -3 -10 -15 -10 -12 0 -18 5
-15 10 3 6 10 10 15 10 5 0 12 -4 15 -10z m173 -57 c-10 -2 -26 -2 -35 0 -10
3 -2 5 17 5 19 0 27 -2 18 -5z m212 -23 c0 -5 -9 -10 -20 -10 -11 0 -20 5 -20
10 0 6 9 10 20 10 11 0 20 -4 20 -10z m60 -50 c0 -5 -4 -10 -10 -10 -5 0 -10
5 -10 10 0 6 5 10 10 10 6 0 10 -4 10 -10z m400 6 c0 -2 -7 -7 -16 -10 -8 -3
-12 -2 -9 4 6 10 25 14 25 6z m195 -76 c-3 -5 -12 -7 -20 -3 -21 7 -19 13 6
13 11 0 18 -4 14 -10z m327 -12 c-9 -9 -15 -9 -24 0 -9 9 -7 12 12 12 19 0 21
-3 12 -12z"/>
<path d="M526 4098 c-21 -30 -20 -48 3 -48 23 0 40 22 22 28 -9 3 -9 7 -1 17
7 8 7 15 1 19 -5 4 -17 -4 -25 -16z"/>
<path d="M358 3993 c7 -3 16 -2 19 1 4 3 -2 6 -13 5 -11 0 -14 -3 -6 -6z"/>
<path d="M992 3958 c6 -18 28 -21 28 -4 0 9 -7 16 -16 16 -9 0 -14 -5 -12 -12z"/>
<path d="M1073 3956 c19 -19 40 -21 35 -3 -3 6 -15 14 -28 15 -21 4 -22 2 -7
-12z"/>
<path d="M1820 3650 c0 -5 5 -10 10 -10 6 0 10 5 10 10 0 6 -4 10 -10 10 -5 0
-10 -4 -10 -10z"/>
<path d="M6960 3630 c0 -6 7 -10 15 -10 8 0 15 2 15 4 0 2 -7 6 -15 10 -8 3
-15 1 -15 -4z"/>
<path d="M2440 3500 c0 -5 9 -10 20 -10 11 0 20 5 20 10 0 6 -9 10 -20 10 -11
0 -20 -4 -20 -10z"/>
<path d="M2560 3450 c0 -5 5 -10 10 -10 6 0 10 5 10 10 0 6 -4 10 -10 10 -5 0
-10 -4 -10 -10z"/>
<path d="M3346 3335 c-3 -8 -1 -15 4 -15 6 0 10 7 10 15 0 8 -2 15 -4 15 -2 0
-6 -7 -10 -15z"/>
<path d="M3691 3294 c0 -11 3 -14 6 -6 3 7 2 16 -1 19 -3 4 -6 -2 -5 -13z"/>
<path d="M3597 3279 c8 -8 16 -8 30 0 16 9 14 10 -11 11 -22 0 -27 -3 -19 -11z"/>
<path d="M6320 3259 c0 -5 5 -7 10 -4 6 3 10 8 10 11 0 2 -4 4 -10 4 -5 0 -10
-5 -10 -11z"/>
<path d="M3527 2964 c-12 -24 -48 -38 -308 -124 -162 -54 -312 -105 -334 -115
-38 -17 -40 -20 -40 -61 0 -24 3 -44 8 -44 13 0 8 -100 -5 -105 -14 -6 -20
-75 -6 -75 4 0 8 -29 8 -64 l0 -63 -43 -12 c-33 -10 -64 -34 -142 -112 -54
-54 -105 -99 -114 -99 -8 0 -11 -3 -8 -7 9 -9 -43 -63 -60 -63 -8 0 -11 -4 -8
-10 3 -5 1 -10 -4 -10 -6 0 -11 -4 -11 -10 0 -5 -23 -31 -51 -57 -183 -171
-828 -826 -823 -835 4 -6 2 -8 -3 -5 -6 4 -33 -16 -61 -43 -28 -28 -56 -50
-61 -50 -6 0 -11 -4 -11 -9 0 -7 -329 -341 -337 -341 -7 0 -113 -113 -113
-121 0 -5 -5 -9 -11 -9 -13 0 -60 -36 -61 -47 -2 -20 -11 -33 -24 -33 -8 0
-14 -4 -14 -10 0 -5 5 -10 11 -10 5 0 8 -4 4 -10 -3 -5 -11 -7 -18 -4 -15 5
-107 -77 -107 -96 0 -7 -7 -10 -14 -7 -9 4 -17 -2 -21 -14 -4 -10 -10 -19 -15
-19 -4 0 -11 -7 -14 -16 -3 -8 -2 -12 4 -9 6 3 10 -3 10 -14 0 -14 5 -19 15
-15 8 4 12 10 9 15 -3 5 39 9 95 9 90 0 101 2 101 18 0 12 15 23 49 35 61 21
61 21 61 -3 0 -30 -21 -69 -35 -64 -6 3 -12 -1 -12 -9 0 -22 44 -8 52 16 4 12
7 36 8 52 2 26 6 30 30 30 36 -1 34 9 -5 36 -35 24 -48 38 -48 52 0 12 99 -2
134 -19 16 -8 34 -14 39 -14 6 0 44 35 84 78 55 57 76 74 82 63 5 -8 11 -9 15
-3 3 6 0 13 -6 15 -10 4 -9 8 2 16 10 7 17 6 22 -2 5 -9 12 -9 25 -1 21 13 83
91 83 104 0 22 -28 -5 -55 -50 -27 -46 -44 -58 -52 -34 -1 5 52 63 119 129 67
66 114 110 105 99 -16 -20 -16 -22 -2 -28 24 -9 23 -9 40 24 9 17 23 30 31 30
11 0 14 6 10 16 -3 9 -6 18 -6 22 0 3 -12 -5 -27 -19 l-28 -24 25 29 c36 42
84 85 94 86 5 0 -3 -11 -18 -25 -14 -13 -26 -27 -26 -31 0 -4 8 0 18 9 10 10
25 17 34 17 8 0 23 9 32 19 10 11 24 17 31 15 7 -3 16 -1 20 5 3 7 0 8 -9 5
-23 -9 -20 6 7 35 12 14 14 20 5 12 -18 -13 -42 -6 -32 10 3 5 10 7 15 4 5 -4
9 1 9 9 0 9 63 81 141 160 100 103 145 143 157 139 13 -4 14 -3 4 5 -19 13
150 184 173 176 11 -5 14 -1 13 14 -2 15 70 95 260 290 232 239 265 269 290
266 23 -3 24 -2 5 4 -21 6 -16 13 58 90 58 58 85 80 93 73 7 -6 17 -6 26 -1
12 8 10 10 -7 10 -13 0 -23 2 -23 3 0 12 91 103 123 124 21 13 35 28 32 33 -3
5 5 16 17 24 26 18 38 20 38 6 0 -5 -7 -10 -15 -10 -8 0 -15 -6 -15 -13 0 -8
7 -14 15 -14 8 0 12 3 10 7 -2 4 7 18 20 30 l25 23 0 -26 c0 -15 -4 -27 -9
-27 -4 0 -7 -16 -5 -36 2 -27 -1 -34 -12 -30 -8 3 -14 1 -14 -3 0 -5 5 -11 11
-13 7 -2 7 -12 0 -29 -9 -26 -53 -49 -92 -49 -11 0 -21 -10 -25 -24 -4 -18
-11 -23 -22 -18 -15 5 -15 3 -4 -10 20 -24 2 -84 -24 -80 -14 2 -16 1 -5 -6 9
-7 11 -19 7 -39 -6 -25 -15 -32 -49 -43 -63 -18 -72 -25 -75 -53 -2 -19 -8
-24 -20 -21 -10 4 -13 3 -6 -3 15 -12 12 -79 -3 -76 -8 2 -13 -7 -13 -21 0
-27 -23 -55 -46 -57 -8 -1 -18 -3 -24 -4 -5 -1 -15 -3 -21 -4 -6 0 -9 -7 -6
-14 3 -7 -4 -19 -15 -26 -16 -10 -19 -10 -12 1 6 10 4 9 -10 -1 -9 -8 -14 -21
-11 -29 3 -10 0 -12 -10 -8 -21 8 -19 -1 6 -27 20 -22 20 -22 0 -25 -13 -2
-24 -16 -32 -40 -13 -40 -39 -81 -52 -82 -5 0 -5 5 -2 10 13 21 -33 9 -49 -12
-10 -15 -14 -17 -10 -5 4 9 1 17 -5 17 -6 0 -11 -9 -11 -20 0 -22 -25 -28 -33
-7 -4 7 -6 6 -6 -5 -1 -9 4 -18 10 -20 7 -2 2 -33 -16 -90 -29 -92 -36 -98
-112 -98 -18 0 -27 -8 -35 -31 -7 -19 -15 -28 -24 -25 -8 3 -14 1 -14 -3 0 -5
4 -11 10 -13 6 -2 2 -29 -10 -68 -11 -36 -20 -73 -20 -82 0 -16 -9 -19 -92
-34 -35 -6 -44 -17 -39 -47 1 -5 -8 -6 -19 -2 -19 6 -20 4 -10 -12 10 -15 7
-31 -14 -82 -14 -36 -26 -70 -26 -77 0 -7 -25 -14 -65 -19 -45 -4 -65 -11 -66
-21 -1 -8 -3 -18 -4 -24 -1 -5 -3 -13 -4 -16 0 -4 -8 -1 -16 6 -9 8 -15 9 -15
2 0 -6 4 -13 9 -17 16 -10 -38 -150 -67 -172 -9 -7 -37 -13 -63 -13 -42 0 -48
-3 -57 -27 -17 -42 -49 -144 -56 -181 -12 -54 -21 -36 -23 49 -2 90 -7 99 -60
99 -27 0 -33 -4 -33 -20 0 -14 6 -20 17 -18 10 2 19 -4 21 -14 2 -10 -1 -18
-7 -18 -6 0 -11 5 -11 10 0 6 -4 10 -9 10 -10 0 1 -49 15 -72 5 -7 7 -20 6
-29 -2 -9 5 -19 15 -23 10 -3 29 -13 43 -21 24 -14 21 -15 -50 -16 -41 -1 -85
-1 -97 0 -13 1 -23 -2 -23 -7 0 -11 154 -20 335 -22 65 0 120 -2 122 -4 2 -2
1 -10 -2 -18 -5 -11 -22 -16 -63 -16 -31 -1 -64 -2 -72 -4 -8 -1 -55 2 -105 7
-79 8 -85 10 -50 16 35 5 31 6 -27 8 -60 1 -67 -1 -61 -17 6 -15 3 -14 -17 3
-16 14 -24 16 -27 8 -3 -9 -25 -13 -61 -13 -86 0 -132 10 -132 28 0 13 3 13
12 4 15 -15 28 -16 28 -2 0 6 -7 10 -15 10 -11 0 -15 13 -16 53 0 44 -2 48
-10 27 -6 -13 -8 -35 -4 -47 3 -15 -1 -25 -12 -32 -10 -6 -12 -11 -5 -11 6 0
12 -6 12 -13 0 -8 -14 -12 -42 -10 -39 2 -40 1 -13 -6 30 -9 29 -9 -10 -11
-22 -1 -49 -5 -60 -10 -12 -6 47 -8 157 -5 98 2 180 0 182 -4 3 -4 27 -4 53 0
71 12 151 11 155 -2 2 -7 77 -12 218 -15 118 -2 276 -6 350 -8 74 -3 236 -5
360 -5 1195 0 1438 -1 1520 -5 52 -3 298 -8 545 -12 248 -3 482 -9 520 -14 50
-6 12 -7 -135 -6 -113 0 -284 -2 -380 -6 -96 -4 -326 -10 -510 -14 -184 -3
-360 -7 -390 -10 -133 -12 -730 -25 -730 -17 0 5 -10 9 -22 10 -13 0 -40 3
-60 6 -23 3 -38 1 -38 -5 0 -6 -6 -6 -14 2 -10 7 -69 13 -163 16 -81 3 -218
10 -303 17 -152 12 -1026 14 -1135 3 -91 -9 -217 -7 -230 4 -5 5 -32 10 -60
13 -27 2 -58 7 -67 12 -10 4 -24 5 -32 2 -8 -3 -16 -3 -19 0 -3 3 -27 6 -53 8
-34 2 -43 0 -31 -6 9 -5 32 -10 52 -11 39 -1 46 -13 14 -23 -23 -8 -18 -17 11
-22 11 -2 20 2 20 8 0 7 10 9 25 7 14 -3 30 1 37 9 8 10 13 11 18 2 4 -6 36
-12 71 -14 92 -4 91 -4 83 -17 -4 -7 -4 -10 1 -6 4 4 16 3 27 -3 10 -5 24 -6
31 -2 19 12 40 13 54 1 8 -6 47 -9 102 -6 86 4 89 3 87 -18 -1 -19 -4 -20 -29
-11 -22 7 -32 6 -49 -9 -12 -11 -19 -14 -16 -9 5 8 -46 13 -54 5 -2 -1 -15 -4
-30 -5 -18 -3 -25 0 -22 8 3 8 -18 13 -68 15 -40 2 -74 8 -76 13 -2 5 -10 2
-19 -6 -16 -16 -43 -20 -43 -7 0 5 -7 9 -15 9 -8 0 -15 -6 -15 -14 0 -15 -9
-16 -29 -4 -8 5 -10 14 -5 22 7 12 5 12 -9 0 -9 -7 -14 -18 -11 -23 4 -6 -10
-7 -35 -3 -26 4 -41 2 -41 -5 0 -5 -7 -10 -16 -10 -8 0 -12 5 -9 10 3 6 1 10
-5 10 -6 0 -18 7 -26 15 -12 12 -12 15 -2 15 10 0 10 2 -1 9 -21 13 -40 2 -36
-20 3 -15 -2 -19 -22 -19 -26 0 -26 1 -7 15 19 14 19 15 -4 21 -30 8 -28 20 6
32 26 10 26 10 -11 11 -34 1 -38 -1 -32 -19 5 -15 0 -21 -19 -26 -17 -4 -23
-11 -19 -21 5 -13 1 -15 -20 -10 -15 4 -27 3 -29 -4 -3 -9 -10 -9 -26 0 -14 8
-22 8 -22 1 0 -6 -30 -9 -77 -9 -43 1 -67 4 -54 6 18 4 21 7 11 13 -10 6 -4
11 21 18 l34 10 -38 1 c-23 1 -36 5 -32 11 4 6 -16 10 -52 11 -40 1 -50 3 -33
8 16 5 21 9 13 14 -7 4 -26 1 -42 -8 -28 -14 -31 -14 -45 6 l-14 21 -11 -21
c-7 -12 -16 -21 -22 -21 -6 0 -7 5 -4 10 3 6 -1 10 -11 10 -13 0 -14 -3 -5
-14 8 -10 23 -13 45 -9 19 3 36 1 39 -4 4 -6 32 -9 64 -7 44 2 51 0 28 -6 -43
-11 -105 -12 -105 -1 0 6 -12 6 -30 1 -18 -5 -32 -5 -36 1 -3 5 -15 7 -26 3
-12 -3 -58 -8 -102 -10 -45 -2 -100 -5 -123 -7 -24 -2 -43 1 -43 5 0 4 5 8 11
8 6 0 18 8 27 17 16 15 15 16 -11 9 -16 -4 -27 -2 -27 4 0 5 5 10 11 10 5 0 8
4 4 10 -3 5 -12 7 -20 4 -9 -4 -12 -17 -9 -42 5 -36 5 -36 -9 -13 -11 18 -16
20 -20 10 -4 -11 -7 -11 -15 -1 -18 26 -42 2 -42 -44 l0 -44 165 0 c157 0 188
6 149 28 -29 16 13 24 151 28 122 4 128 3 98 -11 -18 -8 -33 -19 -33 -25 0 -5
-7 -7 -15 -4 -8 4 -12 10 -9 15 3 5 -27 7 -72 4 -80 -6 -94 -10 -94 -25 0 -9
849 -9 855 0 2 4 26 4 52 1 26 -4 90 -4 141 -1 52 3 96 2 98 -1 7 -11 384 -7
384 4 0 6 4 6 13 -1 15 -12 1241 -16 1233 -4 -3 5 -20 7 -38 5 -30 -3 -31 -3
-9 7 26 11 61 5 61 -11 0 -6 87 -9 225 -9 124 1 225 5 225 10 0 4 17 4 38 -1
20 -5 835 -9 1810 -9 l1772 0 0 39 0 39 -97 7 c-54 3 -107 10 -118 15 -15 7
-9 8 20 5 22 -3 75 -7 118 -9 l77 -5 0 53 0 53 -122 7 c-173 10 -240 16 -250
22 -4 3 -152 9 -328 14 -318 9 -375 14 -364 31 3 5 -2 6 -10 3 -13 -5 -16 2
-16 35 0 23 -4 41 -8 41 -4 0 -6 -15 -4 -34 l4 -33 -114 -8 c-62 -4 -150 -7
-195 -6 l-82 0 -38 43 c-37 41 -234 257 -337 368 -89 96 -100 110 -88 110 6 0
17 -7 26 -15 8 -8 22 -15 30 -15 9 0 16 -5 16 -12 0 -6 3 -9 6 -5 10 9 -67 98
-79 90 -5 -3 -7 -2 -4 4 7 11 -33 57 -76 88 -15 11 -27 24 -27 29 0 11 -42 48
-48 41 -3 -2 0 -11 6 -18 7 -8 10 -16 7 -18 -2 -3 13 -24 34 -47 21 -23 35
-42 31 -42 -4 0 -49 46 -100 103 -51 56 -120 131 -154 167 -107 113 -156 173
-150 182 3 5 0 7 -8 6 -7 -2 -12 3 -10 10 1 6 -2 11 -6 10 -4 -2 -19 9 -32 23
-92 95 -104 110 -86 103 13 -5 17 -4 12 4 -4 7 -14 12 -22 12 -17 0 -54 36
-179 175 -49 55 -141 156 -205 225 -63 69 -135 148 -159 175 -158 178 -341
373 -341 363 0 -4 8 -14 17 -24 16 -16 16 -16 -5 -10 -16 6 -22 3 -22 -8 0 -9
4 -16 10 -16 5 0 9 -10 9 -22 -1 -13 5 -39 13 -58 9 -19 13 -41 11 -47 -3 -7
0 -13 6 -13 6 0 10 6 9 12 -2 9 7 12 26 9 57 -6 76 -19 76 -48 -1 -53 9 -105
27 -142 15 -30 24 -37 53 -39 47 -5 60 -17 56 -58 -1 -19 2 -34 7 -34 4 0 7
-10 6 -22 -2 -13 6 -42 16 -65 20 -42 42 -53 101 -53 25 0 43 -28 43 -67 0
-10 7 -50 17 -90 l17 -71 56 -7 57 -6 23 -72 c13 -40 25 -85 28 -102 6 -39 39
-65 85 -65 32 0 38 -4 46 -32 11 -36 24 -98 28 -138 1 -14 8 -38 15 -55 13
-32 16 -40 18 -54 2 -15 41 0 41 15 0 11 7 13 28 8 34 -8 31 -5 36 -40 2 -16
14 -51 27 -79 12 -27 24 -55 25 -61 9 -53 25 -64 101 -64 41 0 42 -1 49 -37 4
-21 14 -54 24 -73 34 -68 44 -111 29 -121 -9 -5 14 -9 59 -9 56 0 74 -3 77
-15 3 -8 8 -23 12 -33 3 -9 7 -22 8 -27 10 -42 39 -135 50 -157 8 -16 10 -28
5 -28 -5 0 -7 -8 -4 -17 4 -12 3 -14 -3 -6 -7 10 -24 10 -73 2 -36 -6 -132
-11 -213 -12 -137 -2 -148 -1 -143 16 2 9 0 17 -4 17 -5 0 -11 12 -13 28 l-4
27 -2 -27 c0 -16 -8 -28 -18 -31 -17 -4 -17 -5 0 -6 38 -2 14 -19 -38 -26 -30
-3 -55 -11 -55 -16 0 -6 -6 -7 -12 -2 -19 11 -151 3 -167 -10 -12 -10 -14 -9
-9 4 3 9 1 16 -5 16 -7 0 -21 4 -32 8 l-20 8 20 -17 c20 -16 20 -17 -5 -15
-14 1 -34 0 -45 -1 -33 -3 22 -18 73 -19 23 -1 42 -6 42 -11 0 -12 52 -9 61 3
4 5 26 0 50 -11 30 -14 38 -21 23 -21 -11 -1 -23 2 -27 5 -9 9 -214 17 -282
12 -5 -1 -21 2 -35 6 -24 8 -25 8 -5 -9 19 -16 19 -16 -10 -10 -29 7 -52 9
-163 13 -29 1 -51 6 -48 11 3 5 -1 11 -9 15 -8 3 -15 17 -15 30 0 25 1 25 98
29 l97 3 -96 2 c-90 2 -97 3 -105 24 -6 18 -9 9 -11 -34 l-4 -58 -57 -2 c-69
-2 -103 0 -162 8 -35 5 -41 8 -25 14 11 5 -10 6 -50 4 -276 -14 -295 -14 -292
-2 1 7 -13 19 -30 27 -18 8 -33 18 -33 23 0 11 17 10 22 -1 2 -4 14 -11 28
-15 21 -6 22 -5 8 4 -10 6 -18 18 -18 25 0 8 -4 15 -10 15 -20 0 -10 19 13 23
16 3 13 5 -11 6 l-32 1 4 52 c3 34 11 57 22 65 17 12 17 13 -1 13 -39 0 3 22
51 27 68 6 68 13 1 13 -57 0 -72 11 -40 28 14 9 14 10 -5 16 -25 8 -29 31 -7
40 8 3 15 14 15 25 0 11 7 27 16 35 8 9 11 16 6 16 -6 0 -8 16 -6 38 2 20 5
44 6 52 0 8 5 20 10 26 5 7 3 14 -5 17 -20 8 -20 74 0 85 14 8 15 22 10 88 -5
64 -3 82 10 96 14 16 14 18 1 18 -22 0 -31 52 -11 67 11 9 16 33 17 94 1 72 3
83 21 90 14 5 16 8 5 9 -8 2 -18 2 -21 2 -11 -2 3 42 15 50 7 5 6 8 -3 8 -11
0 -10 4 3 19 10 10 13 21 8 25 -11 7 -3 110 9 114 12 5 12 32 -1 32 -5 0 -10
23 -10 50 0 28 4 50 8 50 5 0 10 38 10 85 2 89 16 129 50 138 13 4 12 5 -3 6
-14 1 -21 8 -21 21 0 11 5 20 11 20 5 0 4 4 -3 9 -13 8 -13 46 1 68 4 7 5 24
3 39 -4 18 0 32 12 41 9 8 12 12 5 8 -16 -7 -10 129 6 149 6 7 9 21 5 30 -3 9
-1 16 5 16 6 0 11 9 11 20 0 11 -5 20 -11 20 -5 0 -7 5 -3 12 5 8 14 4 27 -13
l20 -24 -6 25 c-4 14 -7 28 -7 33 0 4 -10 7 -22 7 -19 0 -20 2 -8 10 9 6 11
10 3 10 -9 0 -10 7 -4 23 9 22 13 23 81 11 l35 -6 -2 69 c-4 105 -1 113 44
102 64 -14 71 -9 13 9 l-55 18 0 156 c0 86 -2 153 -5 149 -3 -5 -15 -13 -27
-20 -20 -10 -23 -9 -23 9 0 28 -17 25 -33 -6z m-214 -1014 c-8 -30 -21 -34
-15 -5 2 14 8 25 12 25 5 0 6 -9 3 -20z m-237 -67 c-3 -4 -6 -1 -6 6 0 7 -4 9
-10 6 -11 -7 -14 8 -3 19 4 3 11 -1 16 -9 5 -9 6 -19 3 -22z m34 23 c0 -8 -4
-17 -8 -20 -4 -2 -8 4 -8 15 0 10 4 19 8 19 4 0 8 -6 8 -14z m27 -18 c-3 -8
-6 -5 -6 6 -1 11 2 17 5 13 3 -3 4 -12 1 -19z m911 -23 c-3 -3 -9 2 -12 12 -6
14 -5 15 5 6 7 -7 10 -15 7 -18z m-908 -265 c0 -5 -4 -10 -10 -10 -5 0 -10 5
-10 10 0 6 5 10 10 10 6 0 10 -4 10 -10z m-133 -32 c-3 -8 -6 -5 -6 6 -1 11 2
17 5 13 3 -3 4 -12 1 -19z m-37 8 c0 -3 -4 -8 -10 -11 -5 -3 -10 -1 -10 4 0 6
5 11 10 11 6 0 10 -2 10 -4z m-110 -10 c0 -2 -7 -9 -15 -16 -12 -10 -15 -10
-15 4 0 9 7 16 15 16 8 0 15 -2 15 -4z m-80 -19 c0 -8 -7 -14 -15 -14 -11 0
-12 4 -4 14 6 7 13 13 15 13 2 0 4 -6 4 -13z m27 -9 c-3 -8 -6 -5 -6 6 -1 11
2 17 5 13 3 -3 4 -12 1 -19z m-153 -210 c-3 -4 -9 -6 -14 -3 -5 3 -12 0 -16
-7 -5 -8 -10 -6 -14 8 -11 28 -3 35 25 22 13 -6 22 -15 19 -20z m136 18 c0 -3
-4 -8 -10 -11 -5 -3 -10 -1 -10 4 0 6 5 11 10 11 6 0 10 -2 10 -4z m-950 -380
c0 -2 -7 -7 -16 -10 -8 -3 -12 -2 -9 4 6 10 25 14 25 6z m1151 -23 c-12 -20
-14 -14 -5 12 4 9 9 14 11 11 3 -2 0 -13 -6 -23z m-291 -273 c0 -5 -5 -10 -11
-10 -5 0 -7 5 -4 10 3 6 8 10 11 10 2 0 4 -4 4 -10z m-620 -34 c0 -3 -4 -8
-10 -11 -5 -3 -10 -1 -10 4 0 6 5 11 10 11 6 0 10 -2 10 -4z m1123 -33 c-7 -2
-19 -2 -25 0 -7 3 -2 5 12 5 14 0 19 -2 13 -5z m-260 -10 c-7 -2 -19 -2 -25 0
-7 3 -2 5 12 5 14 0 19 -2 13 -5z m-356 -19 c-3 -3 -12 -4 -19 -1 -8 3 -5 6 6
6 11 1 17 -2 13 -5z m-189 -11 c-10 -2 -26 -2 -35 0 -10 3 -2 5 17 5 19 0 27
-2 18 -5z m3162 -277 c0 -2 -7 -6 -15 -10 -8 -3 -15 -1 -15 4 0 6 7 10 15 10
8 0 15 -2 15 -4z m-3705 -16 c-41 -10 -65 -12 -65 -2 0 4 21 8 48 9 40 1 42 0
17 -7z m150 0 c15 -6 11 -8 -16 -7 -21 1 -35 5 -32 10 5 9 22 8 48 -3z m1280
-29 c-3 -6 -15 -11 -26 -11 -24 0 -26 -20 -1 -21 9 0 59 -1 110 -1 53 -1 92
-5 92 -11 0 -6 -96 -7 -272 -3 -150 4 -285 7 -300 6 -21 0 -28 4 -28 19 0 18
7 20 66 19 36 0 60 -4 53 -8 -18 -11 33 -18 133 -19 76 0 86 2 81 16 -5 12 -2
15 8 11 8 -3 30 0 49 7 38 13 46 12 35 -4z m1400 9 c8 -13 -15 -13 -35 0 -12
8 -11 10 7 10 12 0 25 -4 28 -10z m146 -5 c4 -3 10 -1 14 4 3 6 12 8 19 5 7
-3 26 -6 42 -7 45 -4 38 -32 -8 -33 -21 -1 -38 3 -38 7 0 5 -20 9 -44 9 -55 0
-106 10 -106 21 0 8 106 3 121 -6z m742 8 c-7 -2 -19 -2 -25 0 -7 3 -2 5 12 5
14 0 19 -2 13 -5z m44 1 c-3 -3 -12 -4 -19 -1 -8 3 -5 6 6 6 11 1 17 -2 13 -5z
m63 2 c0 -2 -7 -7 -16 -10 -8 -3 -12 -2 -9 4 6 10 25 14 25 6z m60 -2 c0 -8
-19 -13 -24 -6 -3 5 1 9 9 9 8 0 15 -2 15 -3z m-2910 -36 l0 -33 -61 3 c-35 2
-59 0 -56 -5 3 -5 -10 -10 -29 -10 -19 -1 -34 3 -34 8 0 13 -81 9 -98 -4 -7
-5 -15 -7 -19 -3 -3 3 -1 6 5 6 7 0 12 5 12 11 0 7 -50 10 -162 8 -193 -4
-318 7 -318 27 0 16 44 18 473 22 l287 3 0 -33z m2166 22 c5 -5 47 -11 94 -13
81 -3 79 -3 -26 -5 -92 -2 -113 1 -118 13 -6 17 33 22 50 5z m484 -6 c0 -2
-18 -4 -41 -4 -22 0 -38 4 -35 8 5 8 76 4 76 -4z m-224 -17 c4 -4 -7 -7 -25
-7 -19 0 -30 4 -26 10 6 10 40 8 51 -3z m84 9 c0 -8 -61 -12 -66 -4 -3 4 11 8
30 8 20 0 36 -2 36 -4z m287 -2 c-3 -3 -12 -4 -19 -1 -8 3 -5 6 6 6 11 1 17
-2 13 -5z m-2117 -27 c0 -5 18 -7 40 -3 25 4 40 2 40 -4 0 -11 -62 -13 -97 -4
-28 8 -30 23 -3 21 11 -1 20 -5 20 -10z m225 -15 c-2 -3 -35 -1 -72 4 l-68 8
55 6 c48 4 97 -6 85 -18z m145 18 c0 -5 -6 -10 -14 -10 -8 0 -16 -5 -18 -11
-3 -8 -13 -8 -38 0 l-35 11 35 -5 c21 -3 31 -2 25 4 -6 5 -23 11 -40 14 -17 2
-5 5 28 6 32 0 57 -3 57 -9z m880 -1 c0 15 62 14 85 -2 16 -12 9 -14 -49 -14
-51 0 -66 4 -66 15 0 12 3 12 15 2 10 -9 15 -9 15 -1z m415 1 c3 -5 -1 -10
-10 -10 -9 0 -13 5 -10 10 3 6 8 10 10 10 2 0 7 -4 10 -10z m-2277 -22 c-6
-18 -48 -19 -48 -2 0 8 11 14 26 14 16 0 24 -5 22 -12z m1072 2 c0 -5 -14 -7
-32 -3 -46 8 -48 13 -5 13 21 0 37 -4 37 -10z m35 0 c3 -5 1 -10 -4 -10 -6 0
-11 5 -11 10 0 6 2 10 4 10 3 0 8 -4 11 -10z m895 6 c0 -3 -4 -8 -10 -11 -5
-3 -10 -1 -10 4 0 6 5 11 10 11 6 0 10 -2 10 -4z m-712 -13 c-10 -2 -28 -2
-40 0 -13 2 -5 4 17 4 22 1 32 -1 23 -4z m110 0 c-10 -2 -28 -2 -40 0 -13 2
-5 4 17 4 22 1 32 -1 23 -4z m562 -23 c0 -5 -4 -10 -10 -10 -5 0 -10 5 -10 10
0 6 5 10 10 10 6 0 10 -4 10 -10z m30 0 c0 -5 -5 -10 -11 -10 -5 0 -7 5 -4 10
3 6 8 10 11 10 2 0 4 -4 4 -10z m-3765 -21 c11 -17 0 -20 -21 -4 -17 13 -17
14 -2 15 9 0 20 -5 23 -11z m5191 -6 c-11 -12 -151 -19 -176 -10 -8 4 -28 7
-45 9 -16 2 27 3 97 4 70 0 126 -1 124 -3z m349 -13 c5 -8 -10 -9 -47 -4 -70
9 -74 14 -10 14 28 0 54 -5 57 -10z m93 -7 c-16 -2 -40 -2 -55 0 -16 2 -3 4
27 4 30 0 43 -2 28 -4z m100 0 c-10 -2 -26 -2 -35 0 -10 3 -2 5 17 5 19 0 27
-2 18 -5z m-5398 -13 c0 -5 -7 -10 -15 -10 -8 0 -15 5 -15 10 0 6 7 10 15 10
8 0 15 -4 15 -10z m124 2 c2 -4 -13 -6 -35 -4 -21 2 -39 6 -39 8 0 7 69 4 74
-4z m321 -22 c62 0 85 3 75 10 -13 8 -13 10 1 10 9 0 19 -6 22 -13 3 -9 24
-13 68 -12 35 1 70 -2 77 -8 7 -6 40 -7 80 -3 53 5 71 4 80 -7 9 -11 8 -13 -6
-12 -9 0 -22 4 -28 8 -6 3 -35 2 -65 -2 -61 -10 -208 -4 -224 9 -13 11 -3 10
-152 11 -87 0 -119 3 -100 9 16 5 35 6 43 3 8 -3 14 1 14 8 0 10 3 10 12 1 8
-8 45 -12 103 -12z m970 9 c82 1 147 -1 144 -4 -10 -9 -330 -15 -324 -5 3 5 0
10 -7 13 -7 2 -2 2 12 -1 14 -2 92 -3 175 -3z m-637 -6 c-10 -2 -28 -2 -40 0
-13 2 -5 4 17 4 22 1 32 -1 23 -4z m399 1 c-3 -3 -12 -4 -19 -1 -8 3 -5 6 6 6
11 1 17 -2 13 -5z m1316 -21 c-7 -2 -19 -2 -25 0 -7 3 -2 5 12 5 14 0 19 -2
13 -5z m-3673 -15 c0 -4 -6 -8 -12 -9 -107 -7 -168 -7 -168 1 0 8 57 14 148
16 17 0 32 -4 32 -8z m1670 2 c12 -8 9 -10 -12 -10 -16 0 -28 5 -28 10 0 13
20 13 40 0z m430 -2 c0 -11 -22 -10 -40 2 -11 8 -9 9 13 8 15 -1 27 -6 27 -10z
m851 -10 c4 -6 9 -6 13 1 4 6 12 11 19 11 27 0 -13 -22 -44 -25 -41 -3 -50 1
-42 21 6 15 42 10 54 -8z m-213 -3 c2 -1 -9 -5 -23 -7 -14 -3 -25 -2 -25 1 0
3 -26 5 -57 5 l-58 -2 55 7 c47 6 98 4 108 -4z m129 9 c-3 -3 -12 -4 -19 -1
-8 3 -5 6 6 6 11 1 17 -2 13 -5z m-3064 -11 c-7 -2 -21 -2 -30 0 -10 3 -4 5
12 5 17 0 24 -2 18 -5z m3414 -9 c-3 -3 -12 -4 -19 -1 -8 3 -5 6 6 6 11 1 17
-2 13 -5z"/>
<path d="M4140 2851 c0 -5 7 -11 15 -15 8 -3 15 -1 15 3 0 5 -7 11 -15 15 -8
3 -15 1 -15 -3z"/>
<path d="M3738 2633 c7 -3 16 -2 19 1 4 3 -2 6 -13 5 -11 0 -14 -3 -6 -6z"/>
<path d="M3778 2623 c7 -3 16 -2 19 1 4 3 -2 6 -13 5 -11 0 -14 -3 -6 -6z"/>
<path d="M3840 2610 c8 -5 24 -10 34 -10 26 0 18 6 -19 14 -22 5 -26 4 -15 -4z"/>
<path d="M3915 2590 c11 -5 27 -9 35 -9 9 0 8 4 -5 9 -11 5 -27 9 -35 9 -9 0
-8 -4 5 -9z"/>
<path d="M3985 2570 c28 -12 37 -12 30 0 -3 6 -16 10 -28 9 -21 0 -21 -1 -2
-9z"/>
<path d="M4068 2553 c7 -3 16 -2 19 1 4 3 -2 6 -13 5 -11 0 -14 -3 -6 -6z"/>
<path d="M3923 2492 c8 -81 21 -102 63 -102 31 0 35 3 29 18 -4 9 -10 38 -12
64 -5 44 -7 47 -45 56 l-40 10 5 -46z"/>
<path d="M4235 2510 c33 -11 74 -22 90 -24 17 -3 3 3 -30 14 -33 11 -73 22
-90 24 -16 3 -3 -3 30 -14z"/>
<path d="M3790 2400 c0 -5 5 -10 11 -10 5 0 7 5 4 10 -3 6 -8 10 -11 10 -2 0
-4 -4 -4 -10z"/>
<path d="M3620 2393 c0 -15 19 -37 26 -31 3 4 -1 14 -10 23 -9 9 -16 13 -16 8z"/>
<path d="M3176 2334 c-24 -24 -19 -30 7 -8 12 10 24 20 26 21 2 2 -1 3 -7 3
-6 0 -18 -7 -26 -16z"/>
<path d="M3866 2316 c3 -9 13 -16 22 -16 8 0 13 1 11 3 -2 1 -12 9 -22 16 -15
12 -17 12 -11 -3z"/>
<path d="M2668 2265 c-3 -3 -32 -12 -64 -21 -32 -8 -64 -20 -70 -27 -14 -14
-54 -137 -45 -137 3 0 34 27 68 60 34 33 68 60 75 60 22 0 58 39 52 55 -7 16
-8 17 -16 10z"/>
<path d="M3930 2260 c0 -5 5 -10 11 -10 5 0 7 5 4 10 -3 6 -8 10 -11 10 -2 0
-4 -4 -4 -10z"/>
<path d="M4405 2260 c3 -5 11 -10 16 -10 6 0 7 5 4 10 -3 6 -11 10 -16 10 -6
0 -7 -4 -4 -10z"/>
<path d="M4438 2238 c-7 -16 9 -34 69 -76 23 -16 30 -29 29 -47 -2 -13 1 -22
6 -19 5 4 23 -6 39 -22 16 -15 31 -25 35 -22 3 4 -4 11 -15 18 -12 6 -21 17
-21 25 0 7 -9 17 -20 20 -11 4 -18 10 -15 14 2 5 -19 35 -48 67 -41 44 -55 54
-59 42z"/>
<path d="M3623 2190 c6 -16 13 -28 15 -26 6 6 -10 56 -18 56 -5 0 -3 -13 3
-30z"/>
<path d="M3761 2174 c0 -11 3 -14 6 -6 3 7 2 16 -1 19 -3 4 -6 -2 -5 -13z"/>
<path d="M4580 2165 c0 -5 5 -17 10 -25 5 -8 10 -10 10 -5 0 6 -5 17 -10 25
-5 8 -10 11 -10 5z"/>
<path d="M2989 2123 c-13 -16 -12 -17 4 -4 16 13 21 21 13 21 -2 0 -10 -8 -17
-17z"/>
<path d="M3640 2131 c0 -6 4 -13 10 -16 6 -3 7 1 4 9 -7 18 -14 21 -14 7z"/>
<path d="M2950 2095 c-7 -9 -11 -18 -8 -20 3 -3 11 1 18 10 7 9 11 18 8 20 -3
3 -11 -1 -18 -10z"/>
<path d="M3060 2040 c0 -5 5 -10 10 -10 6 0 10 5 10 10 0 6 -4 10 -10 10 -5 0
-10 -4 -10 -10z"/>
<path d="M2352 2019 c-68 -22 -56 -7 -140 -176 -14 -28 -24 -34 -81 -47 -94
-21 -118 -32 -126 -57 -4 -13 -20 -40 -36 -61 -15 -22 -31 -52 -34 -68 -6 -26
-12 -30 -63 -40 -117 -24 -114 -22 -154 -91 -21 -35 -44 -78 -51 -94 -13 -27
-21 -31 -88 -44 -40 -7 -79 -15 -85 -18 -6 -2 -30 -45 -54 -94 -47 -100 -51
-103 -148 -114 -71 -8 -77 -14 -127 -125 -16 -36 -34 -70 -40 -77 -5 -6 -47
-16 -93 -21 -46 -6 -84 -12 -85 -14 -1 -1 -13 -25 -27 -53 -20 -39 -32 -51
-58 -57 -25 -7 -37 -5 -48 7 -17 16 -44 20 -44 6 0 -17 -49 2 -77 29 -15 15
-33 25 -40 23 -7 -3 -13 0 -13 6 0 6 -11 11 -24 11 -14 0 -27 4 -31 9 -8 13
-56 3 -77 -16 -15 -13 -18 -13 -18 -2 0 9 -3 10 -8 3 -8 -13 -42 -15 -42 -2 0
4 5 8 10 8 6 0 10 5 10 10 0 6 -7 10 -15 10 -8 0 -15 3 -15 8 0 13 -64 36
-105 37 -22 0 -54 -5 -70 -11 -24 -10 -35 -10 -55 2 -15 8 -19 14 -10 14 11 0
10 3 -4 11 -11 7 -36 9 -65 4 -25 -4 -52 -7 -58 -8 -7 0 -13 -6 -13 -14 0 -9
-8 -11 -25 -7 l-25 6 0 -350 0 -350 37 4 c20 2 40 9 45 16 5 8 8 9 8 2 0 -14
195 -19 204 -6 3 5 25 6 48 3 63 -9 118 -2 118 14 0 13 59 39 68 30 3 -3 10 0
17 5 6 5 29 13 51 18 l39 9 -32 19 c-32 19 -49 49 -33 59 10 6 95 -12 127 -27
32 -16 71 -13 93 7 25 22 26 36 3 28 -10 -3 24 35 75 86 51 50 97 91 103 91 5
0 9 5 9 11 0 19 62 67 79 62 12 -4 13 -3 3 5 -10 7 -2 19 34 53 26 24 60 59
77 77 17 17 36 32 44 32 7 0 13 6 13 14 0 23 199 206 218 199 13 -4 14 -3 3 5
-16 11 -7 32 15 32 8 0 14 5 14 12 0 6 42 52 93 101 226 220 867 856 867 861
0 9 -20 6 -88 -15z m-2227 -1139 c3 -5 1 -10 -4 -10 -6 0 -11 5 -11 10 0 6 2
10 4 10 3 0 8 -4 11 -10z m24 -44 c9 -10 7 -17 -6 -27 -16 -13 -17 -12 -4 4 9
11 10 17 2 17 -6 0 -11 5 -11 10 0 14 5 13 19 -4z m251 -6 c-19 -13 -30 -13
-30 0 0 6 10 10 23 10 18 0 19 -2 7 -10z m144 -11 c-8 -13 -21 -11 -27 5 -4
10 0 12 14 9 10 -3 16 -9 13 -14z m74 2 c9 -5 26 -12 36 -16 15 -4 17 -8 7
-18 -9 -9 -16 -9 -32 1 -11 7 -25 9 -32 5 -7 -4 -7 0 2 10 7 9 9 17 3 17 -5 0
-15 -7 -22 -15 -7 -8 -17 -12 -22 -9 -5 3 -1 12 9 20 22 16 28 17 51 5z m-371
-416 c-6 -19 -12 -33 -14 -32 -6 7 9 67 17 67 5 0 3 -16 -3 -35z m88 -35 c-3
-5 -11 -10 -16 -10 -6 0 -7 5 -4 10 3 6 11 10 16 10 6 0 7 -4 4 -10z m-206
-67 c-12 -53 -11 -61 6 -66 11 -4 10 -4 -2 -3 -22 1 -28 41 -14 79 15 39 20
33 10 -10z m95 -16 c-4 -25 -12 -48 -19 -50 -8 -4 -7 10 4 48 9 30 17 52 18
51 2 -2 0 -23 -3 -49z m-125 -26 c-1 -13 -2 -13 -6 2 -2 9 -9 15 -14 12 -5 -4
-9 1 -9 11 0 13 3 14 15 4 8 -7 14 -20 14 -29z m-46 -1 c-7 -28 -13 -25 -13 6
0 14 4 23 9 20 5 -3 7 -15 4 -26z m224 -12 c-3 -8 -6 -5 -6 6 -1 11 2 17 5 13
3 -3 4 -12 1 -19z"/>
<path d="M4633 2022 c16 -17 57 -37 57 -27 0 2 -17 13 -37 25 -35 21 -37 21
-20 2z"/>
<path d="M4740 1995 c0 -5 5 -17 10 -25 5 -8 10 -10 10 -5 0 6 -5 17 -10 25
-5 8 -10 11 -10 5z"/>
<path d="M4714 1961 c21 -23 26 -26 26 -11 0 5 -10 15 -22 21 -23 12 -23 12
-4 -10z"/>
<path d="M4851 1975 c0 -5 4 -19 8 -29 7 -19 8 -19 13 2 4 12 2 20 -2 17 -5
-3 -11 1 -13 7 -3 7 -5 9 -6 3z"/>
<path d="M4755 1930 c3 -5 -2 -10 -12 -10 -24 0 71 -96 109 -109 22 -8 27 -7
21 2 -7 13 -32 33 -48 38 -22 8 -43 33 -38 45 3 8 0 14 -6 14 -6 0 -11 7 -11
15 0 8 -5 15 -11 15 -5 0 -7 -4 -4 -10z"/>
<path d="M4230 1920 c0 -5 5 -10 10 -10 6 0 10 5 10 10 0 6 -4 10 -10 10 -5 0
-10 -4 -10 -10z"/>
<path d="M4735 1880 c10 -11 20 -20 23 -20 3 0 -3 9 -13 20 -10 11 -20 20 -23
20 -3 0 3 -9 13 -20z"/>
<path d="M2708 1853 c7 -3 16 -2 19 1 4 3 -2 6 -13 5 -11 0 -14 -3 -6 -6z"/>
<path d="M2656 1795 c-4 -13 -2 -14 14 -5 23 13 26 20 6 20 -8 0 -16 -7 -20
-15z"/>
<path d="M4810 1806 c0 -2 8 -10 18 -17 15 -13 16 -12 3 4 -13 16 -21 21 -21
13z"/>
<path d="M4850 1766 c0 -2 8 -10 18 -17 15 -13 16 -12 3 4 -13 16 -21 21 -21
13z"/>
<path d="M4895 1750 c21 -24 26 -25 19 -6 -3 8 -13 17 -22 21 -13 5 -13 2 3
-15z"/>
<path d="M4974 1741 c5 -30 4 -33 -14 -28 -24 6 -25 -1 -4 -24 24 -26 43 -14
37 24 -3 18 -9 39 -15 47 -6 11 -8 5 -4 -19z"/>
<path d="M5065 1759 c4 -5 15 -9 25 -9 11 0 22 -11 28 -27 l10 -28 1 28 c1 15
0 27 -2 27 -1 0 -17 4 -35 9 -20 6 -30 6 -27 0z"/>
<path d="M3730 1740 c0 -5 5 -10 11 -10 5 0 7 5 4 10 -3 6 -8 10 -11 10 -2 0
-4 -4 -4 -10z"/>
<path d="M4058 1723 c7 -3 16 -2 19 1 4 3 -2 6 -13 5 -11 0 -14 -3 -6 -6z"/>
<path d="M2480 1626 c-5 -5 -10 -14 -10 -18 0 -14 27 -9 40 7 7 8 17 12 24 8
6 -3 8 -2 3 2 -11 13 -45 13 -57 1z"/>
<path d="M5030 1575 c7 -8 17 -15 22 -15 5 0 3 7 -6 15 -8 8 -18 15 -22 15 -3
0 -1 -7 6 -15z"/>
<path d="M5205 1510 c4 -14 12 -29 17 -35 7 -7 8 -2 3 15 -4 14 -12 30 -17 35
-7 7 -8 2 -3 -15z"/>
<path d="M5336 1508 c8 -28 12 -33 20 -25 4 4 2 13 -4 20 -7 8 -9 17 -5 20 3
4 1 7 -6 7 -8 0 -10 -8 -5 -22z"/>
<path d="M5372 1498 c7 -15 15 -23 17 -17 2 6 -4 18 -13 27 -15 15 -15 15 -4
-10z"/>
<path d="M5420 1455 c7 -9 15 -13 17 -11 7 7 -7 26 -19 26 -6 0 -6 -6 2 -15z"/>
<path d="M5150 1457 c0 -2 15 -16 33 -33 l32 -29 -29 33 c-28 30 -36 37 -36
29z"/>
<path d="M5265 1379 c13 -17 23 -23 27 -16 4 6 10 -1 13 -16 4 -14 16 -29 26
-32 10 -4 19 -12 19 -19 0 -18 93 -104 127 -117 19 -7 23 -13 15 -18 -10 -6
-10 -11 3 -21 8 -7 15 -17 15 -23 0 -6 -27 15 -60 48 -33 33 -60 56 -60 52 0
-18 120 -127 133 -121 18 6 56 -44 50 -66 -4 -12 -3 -13 5 -1 8 11 18 6 50
-27 22 -22 43 -38 46 -35 3 4 6 -1 6 -10 0 -9 10 -17 23 -19 12 -2 21 -7 20
-13 -1 -5 8 -20 20 -33 18 -20 19 -25 7 -33 -13 -9 -12 -10 2 -6 9 3 24 -3 34
-14 9 -10 23 -19 31 -19 7 0 13 -7 13 -15 0 -9 9 -19 21 -23 11 -5 20 -12 20
-17 -1 -6 11 -10 25 -11 22 -1 12 13 -77 102 -56 57 -107 102 -113 101 -5 -1
-10 3 -11 9 0 6 -19 32 -42 57 -30 32 -48 45 -60 41 -14 -4 -15 -4 -5 4 11 7
-23 47 -142 167 -86 87 -159 156 -162 152 -4 -4 -14 -1 -23 6 -9 7 -7 2 4 -14z
m300 -288 c-6 -5 -25 10 -25 20 0 5 6 4 14 -3 8 -7 12 -15 11 -17z"/>
<path d="M2210 1345 c-22 -27 -5 -37 19 -11 19 20 21 26 9 26 -9 0 -21 -7 -28
-15z"/>
<path d="M3458 1353 c7 -3 16 -2 19 1 4 3 -2 6 -13 5 -11 0 -14 -3 -6 -6z"/>
<path d="M5280 1326 c42 -50 71 -78 75 -74 3 2 -19 26 -48 54 -28 27 -40 36
-27 20z"/>
<path d="M5440 1316 c0 -11 30 -66 36 -66 2 0 -3 15 -12 33 -19 36 -24 44 -24
33z"/>
<path d="M5700 1312 c0 -8 -5 -10 -12 -6 -8 5 -9 2 -5 -10 6 -14 3 -15 -14 -6
-18 10 -19 9 -13 -16 5 -19 4 -25 -5 -20 -6 4 -11 3 -11 -3 0 -5 5 -13 10 -16
6 -3 10 -1 10 4 0 17 41 13 61 -5 10 -9 15 -22 12 -30 -3 -9 2 -14 17 -14 11
0 20 3 18 8 -23 48 -33 60 -41 55 -6 -3 -7 -1 -4 4 4 6 0 24 -8 39 -8 16 -15
23 -15 16z"/>
<path d="M4800 1300 c0 -5 5 -10 11 -10 5 0 7 5 4 10 -3 6 -8 10 -11 10 -2 0
-4 -4 -4 -10z"/>
<path d="M6108 1303 c25 -10 12 -25 -18 -19 -17 3 -30 1 -30 -4 0 -10 10 -13
45 -12 17 1 17 0 3 -4 -10 -3 -18 -9 -18 -12 0 -4 -11 -8 -25 -8 -21 -2 -25 2
-23 20 2 17 -3 22 -28 24 -24 2 -39 -4 -62 -27 -27 -28 -28 -31 -10 -31 14 0
18 -5 14 -16 -3 -9 -6 -18 -6 -21 0 -4 -9 2 -19 11 -18 16 -20 16 -39 -4 -11
-12 -25 -19 -31 -16 -5 4 -12 2 -16 -3 -3 -6 -12 -8 -19 -5 -8 3 -17 1 -20 -4
-3 -5 28 -12 74 -16 72 -7 81 -10 100 -36 11 -15 20 -36 20 -47 0 -13 -2 -15
-9 -5 -7 11 -9 11 -14 -1 -3 -9 1 -21 9 -27 8 -7 14 -9 14 -5 0 15 32 -20 45
-49 14 -33 83 -113 72 -83 -5 14 0 17 32 17 71 0 96 -10 111 -43 7 -17 36 -61
64 -98 46 -61 55 -68 86 -69 19 0 58 -3 86 -6 46 -6 53 -10 67 -39 21 -43 106
-155 123 -162 8 -3 44 -6 81 -7 l68 -1 23 -45 c13 -25 32 -54 41 -65 10 -11
29 -39 41 -63 21 -36 28 -42 57 -42 18 0 33 -5 33 -10 0 -7 -45 -8 -132 -4
-73 3 -140 5 -148 5 -58 0 -89 12 -99 37 l-9 27 -1 -30 c-1 -27 -5 -31 -32
-33 -17 -1 -28 1 -26 5 5 8 -11 10 -125 17 -53 3 -68 1 -68 -10 0 -10 15 -14
58 -14 31 0 104 -4 162 -10 58 -5 139 -12 180 -15 41 -3 140 -9 220 -15 80 -5
154 -11 165 -12 20 -3 20 3 20 447 l0 450 -48 9 c-42 7 -48 11 -44 28 5 17 2
19 -19 15 -13 -2 -24 -1 -24 4 0 12 -41 16 -73 7 -18 -4 -36 -2 -48 5 -16 10
-21 9 -29 -3 -5 -8 -7 -17 -4 -21 7 -12 -23 -18 -35 -6 -8 8 -11 8 -11 -2 0
-9 -6 -8 -22 3 -36 26 -83 20 -106 -11 -17 -23 -23 -26 -33 -15 -7 6 -23 12
-35 12 -12 0 -24 5 -26 11 -5 16 -77 39 -84 27 -3 -5 3 -12 15 -15 27 -7 27
-19 1 -26 -25 -6 -26 -24 -2 -31 9 -3 4 -3 -13 1 -61 12 -125 7 -139 -12 -8
-11 -18 -15 -26 -10 -10 6 -12 4 -7 -8 8 -20 -9 -22 -27 -4 -7 7 -30 12 -50
12 -20 -1 -36 3 -37 9 -5 48 -3 72 6 79 6 4 5 10 -4 16 -11 7 -9 10 10 13 l24
5 -22 9 c-12 5 -21 14 -20 19 1 6 -9 12 -23 14 -23 3 -24 4 -5 12 15 5 8 8
-26 8 -33 1 -51 7 -64 21 -10 11 -25 20 -34 19 -10 0 -12 -2 -3 -6z m-88 -52
c0 -4 -9 -12 -19 -18 -16 -10 -18 -9 -14 6 4 16 33 26 33 12z m1010 -89 c0
-13 -12 -22 -22 -16 -10 6 -1 24 13 24 5 0 9 -4 9 -8z m-905 -32 c-3 -5 -12
-7 -20 -3 -21 7 -19 13 6 13 11 0 18 -4 14 -10z m126 -7 c-10 -4 -10 -7 -1
-13 7 -4 8 -10 3 -13 -5 -3 -15 -1 -23 4 -13 8 -13 10 0 19 8 5 20 9 25 9 6 0
4 -3 -4 -6z m759 -18 c0 -12 -29 -3 -34 10 -4 13 -2 14 14 5 11 -6 20 -13 20
-15z m-910 5 c0 -5 -4 -10 -10 -10 -5 0 -10 5 -10 10 0 6 5 10 10 10 6 0 10
-4 10 -10z m1044 -5 c3 -9 0 -15 -9 -15 -23 0 -18 -28 5 -33 17 -4 16 -4 -2
-3 -19 1 -23 7 -25 34 -1 33 20 46 31 17z m-1104 -15 c0 -5 -2 -10 -4 -10 -3
0 -8 5 -11 10 -3 6 -1 10 4 10 6 0 11 -4 11 -10z m1032 -27 c-6 -2 -10 -9 -6
-14 3 -5 0 -9 -5 -9 -6 0 -11 7 -11 15 0 8 8 15 18 14 10 0 12 -3 4 -6z m-797
-13 c3 -5 -1 -10 -10 -10 -9 0 -13 5 -10 10 3 6 8 10 10 10 2 0 7 -4 10 -10z
m823 -787 c-10 -2 -28 -2 -40 0 -13 2 -5 4 17 4 22 1 32 -1 23 -4z"/>
<path d="M5600 1280 c0 -5 5 -10 11 -10 5 0 7 5 4 10 -3 6 -8 10 -11 10 -2 0
-4 -4 -4 -10z"/>
<path d="M4306 1256 c3 -9 13 -16 22 -16 8 0 13 1 11 3 -2 1 -12 9 -22 16 -15
12 -17 12 -11 -3z"/>
<path d="M5510 1256 c0 -9 5 -16 10 -16 6 0 10 4 10 9 0 6 -4 13 -10 16 -5 3
-10 -1 -10 -9z"/>
<path d="M3580 1252 c0 -12 19 -26 26 -19 2 2 -2 10 -11 17 -9 8 -15 8 -15 2z"/>
<path d="M4855 1240 c3 -5 11 -10 16 -10 6 0 7 5 4 10 -3 6 -11 10 -16 10 -6
0 -7 -4 -4 -10z"/>
<path d="M2221 1214 c0 -11 3 -14 6 -6 3 7 2 16 -1 19 -3 4 -6 -2 -5 -13z"/>
<path d="M5680 1215 c0 -8 2 -15 4 -15 2 0 6 7 10 15 3 8 1 15 -4 15 -6 0 -10
-7 -10 -15z"/>
<path d="M3590 1202 c0 -12 19 -26 26 -19 2 2 -2 10 -11 17 -9 8 -15 8 -15 2z"/>
<path d="M4120 1186 c0 -8 4 -17 9 -20 5 -4 7 3 4 14 -6 23 -13 26 -13 6z"/>
<path d="M4200 1180 c0 -5 5 -10 11 -10 5 0 7 5 4 10 -3 6 -8 10 -11 10 -2 0
-4 -4 -4 -10z"/>
<path d="M6880 1180 c0 -5 5 -10 10 -10 6 0 10 5 10 10 0 6 -4 10 -10 10 -5 0
-10 -4 -10 -10z"/>
<path d="M7150 1171 c0 -5 6 -11 13 -13 17 -7 38 2 31 13 -7 12 -44 12 -44 0z"/>
<path d="M4435 1159 c-4 -5 -4 -13 -1 -16 3 -4 6 0 6 8 0 11 2 11 10 -1 6 -9
10 -10 10 -3 0 17 -17 25 -25 12z"/>
<path d="M4949 1123 c46 -55 68 -70 68 -47 0 19 -48 75 -67 77 -8 2 -22 7 -30
12 -8 5 5 -14 29 -42z"/>
<path d="M2170 1129 c0 -5 5 -7 10 -4 6 3 10 8 10 11 0 2 -4 4 -10 4 -5 0 -10
-5 -10 -11z"/>
<path d="M1934 1061 c3 -5 15 -7 26 -4 28 7 25 13 -6 13 -14 0 -23 -4 -20 -9z"/>
<path d="M2021 1054 c0 -11 3 -14 6 -6 3 7 2 16 -1 19 -3 4 -6 -2 -5 -13z"/>
<path d="M3431 1048 c-1 -16 4 -28 9 -28 12 0 12 8 0 35 -8 18 -9 17 -9 -7z"/>
<path d="M2020 1020 c0 -5 5 -10 10 -10 6 0 10 5 10 10 0 6 -4 10 -10 10 -5 0
-10 -4 -10 -10z"/>
<path d="M5963 1010 c2 -8 12 -16 23 -17 13 -2 15 -1 4 4 -8 3 -19 11 -23 17
-6 7 -7 6 -4 -4z"/>
<path d="M3810 1005 c0 -5 5 -17 10 -25 5 -8 10 -10 10 -5 0 6 -5 17 -10 25
-5 8 -10 11 -10 5z"/>
<path d="M4200 1005 c0 -5 5 -17 10 -25 5 -8 10 -10 10 -5 0 6 -5 17 -10 25
-5 8 -10 11 -10 5z"/>
<path d="M5601 996 c24 -33 70 -78 74 -74 3 2 -16 24 -42 49 -26 24 -40 35
-32 25z"/>
<path d="M3450 988 c0 -11 28 -10 35 1 3 6 -4 9 -15 8 -11 -1 -20 -5 -20 -9z"/>
<path d="M4220 951 c0 -6 4 -13 10 -16 6 -3 7 1 4 9 -7 18 -14 21 -14 7z"/>
<path d="M4586 937 c3 -10 9 -15 12 -12 3 3 0 11 -7 18 -10 9 -11 8 -5 -6z"/>
<path d="M1890 931 c0 -5 7 -12 16 -15 14 -5 15 -4 4 9 -14 17 -20 19 -20 6z"/>
<path d="M1960 920 c0 -5 5 -10 11 -10 5 0 7 5 4 10 -3 6 -8 10 -11 10 -2 0
-4 -4 -4 -10z"/>
<path d="M6061 914 c0 -11 3 -14 6 -6 3 7 2 16 -1 19 -3 4 -6 -2 -5 -13z"/>
<path d="M4600 901 c0 -5 5 -13 10 -16 6 -3 10 -2 10 4 0 5 -4 13 -10 16 -5 3
-10 2 -10 -4z"/>
<path d="M5702 890 c7 -11 17 -20 22 -20 5 0 1 9 -9 20 -10 11 -20 20 -22 20
-2 0 2 -9 9 -20z"/>
<path d="M6180 900 c0 -5 5 -10 11 -10 5 0 7 5 4 10 -3 6 -8 10 -11 10 -2 0
-4 -4 -4 -10z"/>
<path d="M1966 865 c-3 -8 -1 -15 4 -15 6 0 10 7 10 15 0 8 -2 15 -4 15 -2 0
-6 -7 -10 -15z"/>
<path d="M6036 858 c3 -4 9 -8 15 -8 5 0 9 4 9 8 0 5 -7 9 -15 9 -8 0 -12 -4
-9 -9z"/>
<path d="M4625 850 c-3 -5 1 -10 10 -10 9 0 13 5 10 10 -3 6 -8 10 -10 10 -2
0 -7 -4 -10 -10z"/>
<path d="M2120 840 c0 -5 5 -10 10 -10 6 0 10 5 10 10 0 6 -4 10 -10 10 -5 0
-10 -4 -10 -10z"/>
<path d="M4670 840 c0 -5 5 -10 11 -10 5 0 7 5 4 10 -3 6 -8 10 -11 10 -2 0
-4 -4 -4 -10z"/>
<path d="M5760 832 c0 -7 5 -12 10 -12 6 0 10 -7 10 -15 0 -8 5 -15 11 -15 7
0 22 -12 35 -27 13 -15 26 -25 28 -22 3 3 -17 27 -44 54 -28 27 -50 44 -50 37z"/>
<path d="M5946 815 c-3 -9 0 -15 9 -15 9 0 12 6 9 15 -4 8 -7 15 -9 15 -2 0
-5 -7 -9 -15z"/>
<path d="M6110 822 c0 -12 19 -26 26 -19 2 2 -2 10 -11 17 -9 8 -15 8 -15 2z"/>
<path d="M4500 811 c0 -5 5 -13 10 -16 6 -3 10 -2 10 4 0 5 -4 13 -10 16 -5 3
-10 2 -10 -4z"/>
<path d="M6226 804 c-11 -8 -18 -14 -15 -15 45 -7 56 -6 56 6 0 8 -4 12 -8 9
-4 -2 -9 0 -11 5 -1 5 -12 3 -22 -5z"/>
<path d="M1190 779 c0 -5 5 -7 10 -4 6 3 10 8 10 11 0 2 -4 4 -10 4 -5 0 -10
-5 -10 -11z"/>
<path d="M3480 780 c0 -5 5 -10 11 -10 5 0 7 5 4 10 -3 6 -8 10 -11 10 -2 0
-4 -4 -4 -10z"/>
<path d="M6260 766 c0 -2 7 -7 16 -10 8 -3 12 -2 9 4 -6 10 -25 14 -25 6z"/>
<path d="M1872 730 c0 -14 2 -19 5 -12 2 6 2 18 0 25 -3 6 -5 1 -5 -13z"/>
<path d="M6155 740 c3 -5 8 -10 11 -10 2 0 4 5 4 10 0 6 -5 10 -11 10 -5 0 -7
-4 -4 -10z"/>
<path d="M6250 730 c0 -5 5 -10 11 -10 5 0 7 5 4 10 -3 6 -8 10 -11 10 -2 0
-4 -4 -4 -10z"/>
<path d="M3440 721 c0 -5 5 -13 10 -16 6 -3 10 -2 10 4 0 5 -4 13 -10 16 -5 3
-10 2 -10 -4z"/>
<path d="M1585 710 c-3 -5 1 -10 10 -10 9 0 13 5 10 10 -3 6 -8 10 -10 10 -2
0 -7 -4 -10 -10z"/>
<path d="M3890 701 c0 -6 4 -13 10 -16 6 -3 7 1 4 9 -7 18 -14 21 -14 7z"/>
<path d="M4336 697 c3 -10 9 -15 12 -12 3 3 0 11 -7 18 -10 9 -11 8 -5 -6z"/>
<path d="M5386 675 c22 -30 24 -34 8 -29 -15 5 -16 4 -4 -4 8 -6 18 -8 22 -6
4 3 8 0 8 -5 0 -6 5 -10 12 -8 7 1 12 -5 13 -13 0 -8 7 -15 15 -15 8 -1 14 -6
13 -12 -1 -6 4 -14 12 -17 8 -3 15 -3 15 1 0 11 -68 81 -74 75 -3 -3 -6 0 -6
6 0 14 -40 62 -52 62 -5 0 3 -16 18 -35z"/>
<path d="M5900 687 c14 -12 37 -35 53 -51 43 -46 31 -20 -14 29 -23 25 -47 45
-53 45 -6 0 0 -10 14 -23z"/>
<path d="M1960 655 c0 -8 4 -15 10 -15 5 0 7 7 4 15 -4 8 -8 15 -10 15 -2 0
-4 -7 -4 -15z"/>
<path d="M4350 660 c0 -5 5 -10 11 -10 5 0 7 5 4 10 -3 6 -8 10 -11 10 -2 0
-4 -4 -4 -10z"/>
<path d="M5994 652 c-7 -4 5 -24 34 -52 25 -25 43 -39 38 -32 -4 6 -2 12 3 12
6 0 11 -7 11 -15 0 -8 4 -15 10 -15 5 0 15 -11 22 -24 11 -20 15 -22 26 -10
11 12 9 16 -10 25 -13 6 -36 29 -53 52 -35 47 -66 69 -81 59z"/>
<path d="M1589 641 c10 -6 11 -13 2 -29 -6 -11 -11 -27 -10 -34 0 -7 4 -4 9 7
5 11 9 14 9 7 1 -10 4 -10 16 2 20 19 19 42 -1 50 -24 9 -41 7 -25 -3z"/>
<path d="M6520 641 c0 -5 5 -13 10 -16 6 -3 10 -2 10 4 0 5 -4 13 -10 16 -5 3
-10 2 -10 -4z"/>
<path d="M6211 610 c14 -31 19 -36 19 -24 0 6 -7 19 -16 30 -14 18 -14 18 -3
-6z"/>
<path d="M1900 601 c0 -5 5 -13 10 -16 6 -3 10 -2 10 4 0 5 -4 13 -10 16 -5 3
-10 2 -10 -4z"/>
<path d="M5990 601 c0 -6 5 -11 10 -11 6 0 10 -6 10 -13 0 -7 10 -18 21 -26
l22 -13 -22 31 c-25 35 -41 47 -41 32z"/>
<path d="M1525 590 c-3 -5 -1 -10 4 -10 6 0 11 5 11 10 0 6 -2 10 -4 10 -3 0
-8 -4 -11 -10z"/>
<path d="M4350 561 c0 -15 29 -45 36 -38 4 3 -3 16 -15 28 -12 13 -21 17 -21
10z"/>
<path d="M4900 551 c0 -6 4 -13 10 -16 6 -3 7 1 4 9 -7 18 -14 21 -14 7z"/>
<path d="M6060 526 c0 -11 39 -50 45 -44 3 2 -6 15 -20 28 -14 13 -25 20 -25
16z"/>
<path d="M1485 500 c-3 -5 -1 -10 4 -10 6 0 11 5 11 10 0 6 -2 10 -4 10 -3 0
-8 -4 -11 -10z"/>
<path d="M3793 493 c9 -2 23 -2 30 0 6 3 -1 5 -18 5 -16 0 -22 -2 -12 -5z"/>
<path d="M3868 493 c7 -3 16 -2 19 1 4 3 -2 6 -13 5 -11 0 -14 -3 -6 -6z"/>
<path d="M4850 484 c0 -8 -5 -12 -10 -9 -6 3 -18 -2 -28 -11 -15 -16 -15 -17
0 -12 9 4 19 4 23 0 14 -14 54 -8 52 8 -6 35 -37 56 -37 24z"/>
<path d="M4982 488 c3 -7 15 -15 28 -16 21 -3 22 -2 11 12 -16 19 -44 21 -39
4z"/>
<path d="M6516 487 c3 -10 9 -15 12 -12 3 3 0 11 -7 18 -10 9 -11 8 -5 -6z"/>
<path d="M4313 483 c15 -2 27 -10 27 -16 0 -9 2 -9 8 -1 4 7 18 14 32 17 14 2
-2 4 -35 4 -33 0 -48 -2 -32 -4z"/>
<path d="M4460 483 c5 -2 10 -13 10 -24 0 -14 -7 -19 -27 -19 -25 -1 -26 -2
-10 -11 10 -6 24 -8 32 -5 9 3 18 -7 25 -30 19 -58 21 -33 2 31 -10 32 -23 60
-30 61 -7 1 -8 0 -2 -3z"/>
<path d="M1435 469 c-4 -6 -5 -12 -2 -15 2 -3 7 2 10 11 7 17 1 20 -8 4z"/>
<path d="M4924 464 c9 -8 16 -20 16 -26 0 -6 3 -9 6 -6 8 9 -14 48 -27 48 -6
0 -3 -7 5 -16z"/>
<path d="M1312 421 c-35 -33 -47 -48 -33 -44 23 6 91 69 91 84 0 13 -1 13 -58
-40z"/>
<path d="M4370 459 c0 -5 5 -9 10 -9 6 0 10 -9 10 -20 0 -11 4 -20 10 -20 17
0 7 49 -12 53 -10 3 -18 1 -18 -4z"/>
<path d="M3961 434 c0 -11 3 -14 6 -6 3 7 2 16 -1 19 -3 4 -6 -2 -5 -13z"/>
<path d="M6140 444 c0 -11 40 -47 46 -41 2 2 -7 14 -21 27 -14 13 -25 19 -25
14z"/>
<path d="M6543 443 c9 -2 23 -2 30 0 6 3 -1 5 -18 5 -16 0 -22 -2 -12 -5z"/>
<path d="M1431 424 c0 -11 3 -14 6 -6 3 7 2 16 -1 19 -3 4 -6 -2 -5 -13z"/>
<path d="M1370 419 c0 -5 5 -7 10 -4 6 3 10 8 10 11 0 2 -4 4 -10 4 -5 0 -10
-5 -10 -11z"/>
<path d="M6580 421 c0 -6 -8 -8 -17 -5 -11 4 -14 2 -8 -3 6 -4 12 -11 15 -15
3 -3 11 0 17 7 8 9 9 16 3 20 -6 3 -10 2 -10 -4z"/>
<path d="M3971 393 c-1 -12 4 -25 9 -28 12 -7 12 2 0 30 -8 19 -9 19 -9 -2z"/>
<path d="M4950 403 c0 -5 7 -18 15 -29 13 -18 14 -18 8 4 -5 22 -23 41 -23 25z"/>
<path d="M6720 401 c0 -6 4 -13 10 -16 6 -3 7 1 4 9 -7 18 -14 21 -14 7z"/>
<path d="M6605 390 c3 -5 8 -10 11 -10 2 0 4 5 4 10 0 6 -5 10 -11 10 -5 0 -7
-4 -4 -10z"/>
<path d="M6667 383 c3 -7 9 -13 14 -13 5 0 9 6 9 13 0 8 -6 14 -14 14 -8 0
-12 -6 -9 -14z"/>
<path d="M6200 382 c0 -7 5 -12 10 -12 6 0 10 -7 10 -15 0 -8 5 -15 10 -15 16
0 12 15 -10 35 -11 10 -20 13 -20 7z"/>
<path d="M6450 371 c0 -5 5 -13 10 -16 6 -3 10 -2 10 4 0 5 -4 13 -10 16 -5 3
-10 2 -10 -4z"/>
<path d="M1348 339 c-12 -6 -18 -22 -18 -44 0 -19 -4 -35 -10 -35 -5 0 -10 -4
-10 -10 0 -15 60 -12 65 3 20 57 5 105 -27 86z"/>
<path d="M1490 341 c0 -5 5 -13 10 -16 6 -3 10 -2 10 4 0 5 -4 13 -10 16 -5 3
-10 2 -10 -4z"/>
<path d="M6250 330 c0 -6 7 -13 15 -16 27 -11 16 -33 -17 -37 -22 -2 -14 -4
21 -5 l55 -2 -34 35 c-37 38 -40 40 -40 25z"/>
<path d="M1670 319 c0 -5 5 -7 10 -4 6 3 10 8 10 11 0 2 -4 4 -10 4 -5 0 -10
-5 -10 -11z"/>
<path d="M1260 300 c0 -5 7 -7 15 -4 8 4 15 8 15 10 0 2 -7 4 -15 4 -8 0 -15
-4 -15 -10z"/>
<path d="M4488 303 c18 -2 45 -2 60 0 15 2 0 4 -33 4 -33 0 -45 -2 -27 -4z"/>
<path d="M4628 303 c7 -3 16 -2 19 1 4 3 -2 6 -13 5 -11 0 -14 -3 -6 -6z"/>
<path d="M4818 303 c17 -2 47 -2 65 0 17 2 3 4 -33 4 -36 0 -50 -2 -32 -4z"/>
<path d="M4978 303 c23 -2 59 -2 80 0 20 2 1 4 -43 4 -44 0 -61 -2 -37 -4z"/>
<path d="M4198 293 c6 -2 18 -2 25 0 6 3 1 5 -13 5 -14 0 -19 -2 -12 -5z"/>
<path d="M3370 266 c0 -9 5 -16 10 -16 6 0 10 4 10 9 0 6 -4 13 -10 16 -5 3
-10 -1 -10 -9z"/>
<path d="M6173 273 c9 -2 23 -2 30 0 6 3 -1 5 -18 5 -16 0 -22 -2 -12 -5z"/>
<path d="M560 256 c0 -9 5 -16 10 -16 6 0 10 4 10 9 0 6 -4 13 -10 16 -5 3
-10 -1 -10 -9z"/>
<path d="M4240 250 c0 -5 5 -10 11 -10 5 0 7 5 4 10 -3 6 -8 10 -11 10 -2 0
-4 -4 -4 -10z"/>
<path d="M825 220 c-4 -6 8 -10 30 -10 22 0 34 4 30 10 -3 6 -17 10 -30 10
-13 0 -27 -4 -30 -10z"/>
<path d="M1239 219 c-16 -5 -5 -7 34 -8 31 -1 57 1 57 3 0 8 -67 11 -91 5z"/>
<path d="M4018 223 c6 -2 18 -2 25 0 6 3 1 5 -13 5 -14 0 -19 -2 -12 -5z"/>
<path d="M790 161 c0 -5 21 -9 46 -9 26 -1 44 1 42 4 -9 8 -88 13 -88 5z"/>
<path d="M33 153 c9 -2 23 -2 30 0 6 3 -1 5 -18 5 -17 0 -22 -2 -12 -5z"/>
<path d="M555 150 c-4 -7 -2 -17 5 -23 10 -9 11 -9 6 1 -5 8 0 12 14 12 12 0
19 -4 16 -8 -7 -12 186 -14 204 -2 12 8 11 10 -7 10 -12 0 -25 4 -28 10 -3 6
-32 10 -63 10 -42 0 -53 -3 -42 -11 14 -9 -36 -5 -82 7 -9 3 -19 0 -23 -6z
m168 -7 c-7 -2 -19 -2 -25 0 -7 3 -2 5 12 5 14 0 19 -2 13 -5z"/>
<path d="M130 140 c0 -13 23 -18 60 -13 47 5 75 5 139 -2 42 -5 52 -4 49 7 -6
18 -164 24 -185 7 -9 -8 -17 -9 -21 -3 -9 11 -42 15 -42 4z"/>
<path d="M395 140 c-3 -6 1 -7 9 -4 18 7 21 14 7 14 -6 0 -13 -4 -16 -10z"/>
<path d="M4108 143 c7 -3 16 -2 19 1 4 3 -2 6 -13 5 -11 0 -14 -3 -6 -6z"/>
<path d="M0 132 c0 -12 19 -26 26 -19 2 2 -2 10 -11 17 -9 8 -15 8 -15 2z"/>
<path d="M45 120 c4 -6 11 -8 16 -5 14 9 11 15 -7 15 -8 0 -12 -5 -9 -10z"/>
<path d="M831 121 c-10 -7 -10 -10 -1 -16 6 -4 16 -3 22 3 13 13 -4 23 -21 13z"/>
<path d="M965 120 c-3 -5 1 -10 9 -10 9 0 16 5 16 10 0 6 -4 10 -9 10 -6 0
-13 -4 -16 -10z"/>
<path d="M270 110 c0 -5 9 -10 21 -10 11 0 17 5 14 10 -3 6 -13 10 -21 10 -8
0 -14 -4 -14 -10z"/>
<path d="M4188 113 c18 -2 45 -2 60 0 15 2 0 4 -33 4 -33 0 -45 -2 -27 -4z"/>
<path d="M333 103 c9 -2 23 -2 30 0 6 3 -1 5 -18 5 -16 0 -22 -2 -12 -5z"/>
<path d="M710 81 c-21 -7 -17 -9 25 -12 28 -3 61 -2 75 2 24 7 24 7 -5 8 -16
1 -39 3 -50 5 -11 3 -31 1 -45 -3z"/>
</g>
</svg>
