<?xml version="1.0" standalone="no"?>
<!DOCTYPE svg PUBLIC "-//W3C//DTD SVG 20010904//EN"
 "http://www.w3.org/TR/2001/REC-SVG-20010904/DTD/svg10.dtd">
<svg version="1.0" xmlns="http://www.w3.org/2000/svg"
 width="318.000000pt" height="159.000000pt" viewBox="0 0 318.000000 159.000000"
 preserveAspectRatio="xMidYMid meet">

<g transform="translate(0.000000,159.000000) scale(0.100000,-0.100000)"
fill="#000000" stroke="none">
<path d="M0 795 l0 -795 120 0 120 0 46 62 c67 91 76 114 81 198 5 100 18 145
48 168 13 11 22 22 19 24 -2 3 3 11 13 19 11 9 14 10 9 2 -4 -7 -3 -13 3 -13
5 0 12 -12 14 -27 3 -23 4 -21 6 10 1 29 5 37 20 37 26 0 35 16 21 37 -10 17
-10 17 -8 -1 2 -14 -4 -20 -27 -22 -30 -3 -30 -3 -5 8 20 9 21 12 8 15 -15 4
-14 9 7 56 26 59 39 117 57 267 6 58 13 108 14 113 1 4 2 20 3 37 1 23 5 28
19 23 16 -5 16 -5 0 8 -13 11 -15 24 -11 62 3 26 9 47 13 47 5 0 6 9 3 19 -3
11 -1 26 4 35 8 14 12 14 37 1 16 -8 33 -15 40 -15 6 1 -6 10 -26 21 -21 11
-38 22 -38 25 0 15 35 104 41 104 4 0 5 9 2 20 -4 16 -2 19 13 14 14 -4 15 -3
6 4 -15 10 -6 66 9 56 5 -3 6 2 3 10 -7 18 23 104 43 126 13 13 14 13 13 0 -1
-8 -2 -22 -1 -30 1 -13 2 -13 11 0 7 11 10 11 10 2 0 -8 5 -10 13 -6 8 5 8 2
-2 -9 -7 -9 -12 -17 -10 -18 2 0 11 -2 20 -4 36 -7 59 -17 59 -26 0 -5 -7 -9
-15 -9 -13 0 -14 -4 -5 -20 6 -11 15 -18 20 -15 6 3 7 0 4 -8 -2 -7 4 -24 14
-37 15 -18 29 -23 65 -24 26 0 47 -4 47 -8 0 -4 10 -8 23 -8 18 0 19 -2 7 -11
-13 -9 -13 -10 2 -6 9 3 42 -1 75 -9 32 -9 68 -15 81 -15 23 1 30 -15 10 -22
-7 -2 -4 -2 7 0 61 14 70 14 56 5 -11 -8 -11 -10 0 -14 20 -7 50 3 43 13 -3 5
-10 7 -15 4 -5 -4 -9 -2 -9 4 0 5 6 12 13 15 6 3 1 3 -12 0 -16 -4 -21 -3 -16
6 4 7 -1 13 -14 17 -12 3 -21 10 -21 15 0 6 11 3 25 -6 15 -10 25 -12 25 -6 0
6 4 9 9 5 5 -3 12 -2 14 2 4 7 57 9 98 4 6 0 3 -9 -8 -18 -10 -10 -13 -14 -6
-9 7 5 13 5 13 0 0 -5 5 -1 11 9 5 9 15 17 20 17 6 0 17 7 25 15 14 13 13 15
-10 15 -14 0 -27 -4 -31 -10 -3 -5 -12 -7 -20 -4 -8 4 -13 9 -10 14 7 11 -65
6 -73 -6 -15 -23 -44 -24 -75 -2 -18 12 -34 25 -37 28 -12 13 -51 30 -70 30
-13 0 -20 -7 -20 -20 0 -13 -7 -20 -19 -20 -16 0 -19 6 -18 35 2 29 5 34 22
29 19 -5 19 -5 1 10 -16 13 -22 13 -47 1 -32 -17 -54 -20 -26 -4 22 13 22 29
-1 29 -9 0 -33 13 -52 29 -19 15 -46 31 -60 35 -43 12 -105 40 -112 51 -5 6
-11 5 -18 -5 -6 -10 -10 -11 -10 -2 0 9 -81 12 -370 12 l-370 0 0 -795z m875
715 c-3 -5 1 -10 9 -10 9 0 16 -4 16 -10 0 -13 -23 -13 -54 1 -30 14 -25 29
10 29 14 0 22 -4 19 -10z m85 -116 c0 -17 -22 -14 -28 4 -2 7 3 12 12 12 9 0
16 -7 16 -16z m450 -48 c0 -2 -7 -7 -16 -10 -8 -3 -12 -2 -9 4 6 10 25 14 25
6z"/>
<path d="M1623 1570 c35 -13 56 -16 77 -10 18 5 30 5 30 -1 0 -5 12 -9 28 -10
43 0 170 -35 147 -40 -13 -3 3 -11 45 -23 74 -20 150 -28 150 -15 0 5 12 9 26
9 14 0 23 -4 19 -10 -3 -5 0 -11 7 -11 36 -5 54 -4 64 3 18 13 59 -56 104
-173 39 -103 40 -110 39 -220 -1 -101 -2 -111 -15 -89 -7 14 -13 19 -14 13 0
-7 9 -22 19 -32 13 -13 21 -38 24 -78 3 -32 9 -66 13 -77 5 -14 3 -17 -7 -14
-8 3 -13 12 -11 22 2 9 -3 16 -10 16 -10 0 -9 3 1 9 12 8 12 12 2 25 -12 15
-15 14 -30 -3 -13 -15 -18 -16 -29 -5 -14 16 -16 28 -2 19 6 -3 10 1 10 9 0 9
8 16 19 16 11 0 22 4 25 9 3 4 -8 8 -23 7 -16 -1 -27 -4 -25 -7 4 -8 -27 -36
-34 -30 -6 5 -102 -72 -102 -82 0 -5 -6 -7 -13 -4 -8 3 -14 -3 -14 -15 -1 -11
-15 -39 -30 -62 l-28 -41 -8 124 c-6 97 -5 126 5 133 10 6 10 8 1 8 -7 0 -10
7 -6 17 5 12 2 15 -10 10 -13 -5 -16 -1 -13 16 3 12 5 28 5 35 1 7 14 12 31
12 25 0 30 -4 36 -35 3 -19 3 -42 0 -51 -5 -14 -4 -15 9 -4 17 14 20 66 4 75
-6 4 -8 13 -5 20 6 16 -14 25 -53 25 -20 0 -27 5 -28 20 -1 16 4 20 27 20 38
0 61 -10 53 -23 -4 -6 -1 -7 6 -2 21 12 -22 45 -49 38 -16 -4 -21 -3 -16 5 4
7 2 12 -3 12 -6 0 -11 -5 -11 -12 0 -18 -13 0 -17 22 -2 12 3 20 11 20 8 0 17
3 20 8 2 4 -11 8 -30 8 -32 0 -38 -5 -35 -34 1 -7 -5 -19 -13 -27 -13 -13 -19
-13 -50 6 -20 11 -41 17 -48 13 -7 -4 -10 -3 -5 1 7 8 -115 86 -131 84 -20 -3
-32 2 -27 11 3 6 2 10 -4 10 -6 0 -8 7 -5 15 5 12 10 13 20 4 8 -6 14 -8 14
-3 0 4 6 1 13 -8 6 -8 23 -18 37 -21 23 -5 23 -4 6 6 -11 7 -26 19 -35 27 -9
8 -29 16 -45 18 -16 1 -35 7 -42 12 -9 8 -14 7 -20 -1 -4 -7 -3 -9 3 -6 13 8
28 -10 36 -41 6 -27 -1 -52 -15 -52 -5 0 -6 5 -2 12 4 7 3 8 -5 4 -8 -5 -9
-12 -3 -19 20 -25 -9 -112 -42 -129 -11 -6 -18 -7 -14 -3 8 8 -20 34 -37 35
-5 0 -3 -5 5 -10 13 -8 13 -10 1 -10 -12 0 -12 -2 1 -12 19 -15 26 -47 15 -66
-5 -7 -5 -12 0 -11 20 4 24 -2 12 -17 -10 -13 -13 -53 -11 -173 3 -143 5 -157
24 -173 19 -17 19 -18 2 -20 -11 0 -26 -1 -34 0 -8 1 -22 -1 -30 -5 -29 -11
-82 -14 -75 -3 8 13 -29 13 -72 1 -24 -7 -35 -6 -44 5 -10 12 -8 16 10 21 17
4 19 8 9 14 -10 7 -10 9 0 9 9 0 12 38 13 153 0 107 5 162 15 187 l14 35 -4
-41 c-5 -58 4 -71 43 -54 17 7 44 10 61 8 16 -3 30 -1 30 2 0 9 -51 20 -94 20
-39 1 -18 15 37 25 30 6 37 4 37 -9 0 -27 35 -19 38 8 1 13 -4 24 -11 23 -64
-2 -127 5 -122 13 3 6 18 11 33 11 24 2 24 2 4 6 -12 2 -20 8 -17 12 2 5 -7 6
-20 3 -14 -2 -25 0 -25 6 0 5 14 12 30 16 18 3 30 12 30 21 0 12 9 14 43 10
37 -5 39 -4 17 6 -14 6 -38 11 -55 10 -27 -1 -28 1 -13 13 10 7 15 16 11 20
-4 4 0 4 9 1 15 -6 35 11 25 21 -3 3 -44 7 -90 8 -83 3 -86 2 -106 -25 -12
-16 -21 -33 -21 -39 0 -5 -15 -11 -32 -11 -21 -1 -25 -3 -12 -6 20 -4 20 -8
16 -233 -3 -173 -1 -230 8 -230 6 0 18 -6 25 -14 12 -12 12 -15 -1 -20 -8 -3
-12 -2 -9 4 3 5 -21 10 -57 12 -57 3 -61 4 -38 15 14 6 21 12 15 13 -5 0 -5 4
2 8 9 6 13 54 14 165 0 87 5 157 10 157 14 0 6 24 -13 38 -20 15 -128 26 -128
13 0 -12 25 -21 57 -21 17 0 23 -4 20 -13 -3 -7 4 -19 14 -25 10 -7 19 -21 19
-32 0 -17 -7 -20 -57 -22 l-58 -2 53 -3 52 -4 -2 -97 -2 -97 -3 88 c-3 59 -8
87 -16 87 -7 0 -22 3 -35 6 l-23 6 7 -97 c6 -78 4 -99 -7 -107 -10 -7 -2 -8
26 -4 39 5 41 4 43 -23 3 -44 -14 -51 -107 -44 -80 6 -82 7 -58 21 31 19 32
25 36 197 2 94 6 142 14 148 9 5 5 13 -12 28 -21 17 -22 22 -10 30 7 5 32 9
54 10 22 1 31 4 20 6 -11 3 -26 10 -34 17 -12 8 -13 8 -7 -1 5 -9 1 -13 -12
-13 -15 0 -18 5 -15 24 4 20 9 23 44 20 24 -2 37 0 34 6 -3 6 -1 10 4 10 6 0
11 -5 11 -11 0 -6 6 -9 13 -6 6 2 22 0 34 -4 13 -5 25 -4 28 1 4 6 21 11 38
11 24 1 26 3 10 6 -13 2 -23 9 -23 15 0 7 -25 9 -77 5 -46 -4 -72 -3 -64 2 11
7 11 9 0 14 -10 4 -9 6 4 6 9 1 17 5 17 11 0 5 8 6 17 3 14 -5 13 -2 -4 16
-21 22 -50 21 -37 -1 4 -7 2 -8 -4 -4 -8 5 -12 0 -12 -13 0 -11 -4 -23 -10
-26 -5 -3 -10 2 -10 11 0 17 -1 17 -13 0 -13 -18 -14 -18 -21 -1 -7 20 11 38
32 30 7 -3 11 -1 7 4 -3 5 1 11 7 14 7 2 -3 3 -23 2 -20 -1 -41 -5 -46 -8 -5
-3 -15 -2 -23 4 -10 6 -11 9 -2 9 6 0 12 9 12 20 0 26 -17 26 -25 1 -4 -14
-11 -18 -23 -14 -16 6 -16 5 1 -11 9 -9 17 -21 17 -26 0 -5 7 -7 15 -4 10 4
15 0 15 -15 0 -17 -6 -21 -31 -21 -26 0 -29 -2 -20 -14 9 -11 9 -16 0 -22 -7
-4 -15 -2 -17 4 -6 20 -20 13 -15 -8 3 -11 9 -17 14 -14 5 3 0 -11 -12 -30
-21 -37 -17 -50 7 -18 16 21 14 -2 -3 -33 -15 -28 -26 -330 -13 -354 6 -13 24
-21 48 -24 20 -3 -14 -4 -75 -2 -62 1 -113 -1 -113 -6 0 -4 8 -10 18 -12 13
-4 12 -5 -5 -6 -30 -1 -34 20 -7 46 21 19 24 36 37 195 7 95 12 179 9 186 -9
25 -22 11 -17 -18 4 -23 2 -30 -11 -30 -14 0 -14 -3 -3 -16 10 -13 10 -17 -2
-24 -9 -7 -15 -5 -17 4 -2 11 -11 9 -39 -5 -29 -15 -40 -16 -57 -7 -11 7 -25
13 -31 14 -5 0 -15 2 -22 2 -6 1 -14 11 -18 21 -7 22 -42 35 -42 16 0 -8 7
-11 15 -7 11 4 14 1 9 -11 -4 -10 -1 -17 6 -17 7 0 20 -8 29 -19 8 -10 21 -20
28 -23 16 -5 2 -58 -15 -58 -26 0 -26 -20 0 -32 22 -10 25 -16 19 -42 -4 -17
-11 -34 -16 -37 -5 -3 -3 -9 6 -12 12 -5 15 -26 15 -105 0 -87 -2 -102 -19
-117 -29 -26 -26 -55 5 -55 19 0 24 -5 22 -19 -2 -10 -9 -26 -15 -34 -11 -13
-10 -16 7 -22 14 -4 21 -18 26 -58 4 -29 13 -74 20 -102 8 -27 17 -76 21 -108
4 -39 11 -57 20 -57 13 0 17 29 18 128 0 12 6 22 13 22 15 0 18 26 4 32 -5 1
-6 24 -2 49 4 26 4 56 0 67 -4 11 -5 46 -2 76 l6 56 33 -6 c40 -7 68 1 58 17
-4 8 -9 7 -15 -2 -7 -11 -9 -10 -9 4 0 9 -5 17 -11 17 -5 0 -8 -4 -5 -9 3 -5
-10 -11 -29 -13 -23 -3 -36 1 -40 10 -8 21 -7 21 28 31 25 7 27 9 10 10 -14 1
-23 7 -23 17 0 14 20 15 166 10 164 -5 193 -9 160 -22 -10 -4 -16 -18 -16 -36
0 -27 -3 -30 -25 -26 -13 3 -26 0 -29 -6 -3 -6 -8 -1 -11 12 -7 20 -14 22 -72
22 -79 0 -84 -22 -7 -31 27 -3 43 -7 37 -7 -7 -1 -12 -7 -10 -14 1 -6 -13 -15
-31 -19 -61 -13 -62 -29 -1 -30 35 0 47 -3 35 -8 -11 -4 -39 -4 -63 -1 -33 5
-43 4 -43 -7 0 -10 18 -13 70 -13 l70 0 0 -82 c0 -46 -5 -90 -10 -98 -7 -10
-10 11 -10 68 l0 82 -45 0 c-35 0 -43 -3 -39 -15 4 -8 16 -18 28 -21 19 -4 21
-12 21 -72 0 -65 1 -67 25 -64 25 2 25 1 22 -59 -3 -53 -2 -60 13 -57 14 2 18
15 19 68 0 36 6 68 11 72 7 5 7 8 0 8 -6 0 -8 46 -5 127 5 125 6 128 29 131
13 2 26 12 28 23 4 15 11 17 32 12 32 -7 40 -14 24 -20 -7 -2 -9 -11 -6 -19 3
-7 -2 -17 -11 -20 -16 -6 -23 -35 -8 -33 45 7 44 9 40 -171 l-3 -170 27 0 c20
0 26 4 22 15 -4 10 0 15 15 15 14 0 19 5 15 15 -4 8 -10 13 -14 10 -4 -2 -8
14 -9 38 -1 23 -3 63 -5 90 -2 26 -1 47 3 47 3 0 5 36 3 80 -3 61 0 80 10 81
7 1 20 2 28 3 8 0 17 10 20 21 6 23 32 30 58 16 14 -9 12 -10 -14 -11 -30 0
-32 -3 -36 -40 -3 -36 -1 -39 16 -34 18 6 18 1 12 -170 l-7 -176 30 0 c17 0
31 5 31 10 0 6 -6 10 -12 10 -8 0 -9 3 -3 8 12 9 18 32 7 32 -5 0 -8 242 -3
373 2 54 15 65 68 57 55 -9 105 -29 98 -40 -3 -4 2 -13 10 -20 12 -10 18 -10
30 0 8 7 24 10 35 7 22 -6 28 8 8 16 -8 3 -6 8 7 13 11 4 25 15 32 23 11 14
13 12 14 -11 2 -45 3 -48 17 -57 9 -5 10 -15 3 -33 -6 -16 -6 -52 -1 -95 5
-38 8 -114 6 -168 -2 -55 -1 -106 2 -113 2 -6 19 -12 37 -12 31 0 34 2 33 31
-1 17 5 34 12 39 9 6 9 9 0 12 -8 2 -13 53 -15 168 -4 144 -6 165 -20 164 -14
-2 -14 0 -2 15 8 9 12 22 10 29 -3 6 6 16 19 21 21 9 21 10 3 12 -11 1 -22 1
-25 1 -3 0 -11 6 -18 14 -11 12 -9 13 12 12 13 -1 22 -6 20 -10 -8 -13 23 -9
34 5 8 9 2 13 -25 15 -49 3 -60 12 -37 29 17 13 19 26 16 163 -2 83 0 150 5
150 4 0 8 11 8 25 0 14 -3 25 -7 25 -5 0 -8 -5 -8 -12 0 -7 -3 -8 -9 -2 -4 5
-6 26 -3 47 4 38 5 39 43 35 22 -2 39 0 39 4 0 5 30 8 68 8 37 0 62 4 55 8
-12 7 -45 7 -148 -1 -33 -2 -43 -2 -22 0 20 2 37 8 37 13 0 6 -18 8 -39 5 -22
-3 -43 -1 -46 5 -3 5 -1 10 4 10 6 0 11 9 11 20 0 19 4 18 55 -11 31 -17 58
-29 61 -26 3 3 -16 17 -43 31 -26 13 -57 32 -68 40 -11 9 18 -4 64 -28 67 -35
91 -43 118 -39 26 4 33 2 33 -11 0 -9 5 -16 10 -16 6 0 10 -3 10 -8 0 -4 -17
-7 -37 -6 -24 1 -28 0 -10 -3 15 -2 25 -9 21 -14 -3 -5 -9 -7 -13 -5 -6 4 -4
-233 2 -369 2 -39 18 -55 62 -62 26 -4 39 -1 48 10 8 10 18 12 32 7 l20 -9
-20 0 c-17 -1 -17 -3 -5 -11 11 -7 0 -10 -39 -10 -41 0 -52 -3 -48 -14 4 -9 0
-13 -11 -11 -9 1 -16 8 -15 14 2 6 -11 11 -30 11 -17 0 -39 5 -47 10 -11 7
-11 10 -2 10 7 0 10 5 7 10 -3 6 -1 10 5 10 8 0 11 46 8 162 -3 187 -6 192
-81 195 -35 1 -47 -2 -47 -13 0 -9 11 -14 30 -14 28 0 44 -19 18 -21 -7 -1 -2
-4 12 -8 14 -4 30 -18 37 -31 11 -22 10 -26 -10 -32 -16 -4 -17 -6 -4 -7 15
-1 17 -14 17 -120 0 -135 -4 -151 -34 -151 -13 0 -17 -3 -9 -8 8 -5 9 -13 3
-22 -7 -10 -10 -11 -10 -2 0 6 -7 12 -15 12 -8 0 -15 -4 -15 -10 0 -5 5 -10
10 -10 6 0 10 -7 10 -15 0 -8 5 -15 12 -15 6 0 3 -7 -8 -15 -19 -14 -18 -14 4
-15 23 0 30 -14 11 -26 -8 -4 -7 -9 2 -15 10 -6 10 -9 2 -9 -7 0 -17 -9 -23
-20 -9 -18 -8 -19 17 -16 25 2 28 -1 30 -28 6 -113 3 -134 -27 -206 -16 -41
-30 -80 -30 -87 0 -16 20 -21 135 -28 55 -3 148 -12 206 -20 58 -8 143 -15
188 -16 45 -1 83 -4 85 -8 2 -3 40 -5 84 -3 l81 3 -10 25 c-5 14 -9 43 -9 65
0 21 -4 39 -10 39 -5 0 -10 -6 -10 -12 0 -9 -4 -8 -10 2 -15 23 -12 29 10 25
11 -2 20 0 20 6 0 5 -18 9 -40 9 -23 0 -40 5 -40 11 0 6 -7 9 -15 5 -16 -6
-48 31 -39 46 9 14 34 9 34 -8 0 -10 6 -14 15 -10 8 3 19 -3 25 -12 10 -15 11
-15 6 -1 -3 12 3 18 19 21 20 4 26 -1 35 -25 5 -16 10 -47 10 -68 0 -21 5 -41
10 -44 6 -4 8 -11 5 -16 -11 -17 6 -49 26 -49 10 0 19 -4 19 -10 0 -6 95 -10
265 -10 l265 0 0 795 0 795 -802 0 c-795 -1 -803 -1 -755 -20z m137 0 c0 -5
-5 -10 -11 -10 -5 0 -7 5 -4 10 3 6 8 10 11 10 2 0 4 -4 4 -10z m443 -77 c-4
-11 -2 -14 5 -9 8 5 10 2 6 -8 -6 -17 -14 -11 -44 29 -11 16 -11 17 0 8 21
-19 34 -16 19 5 -13 15 -12 16 3 4 10 -8 14 -20 11 -29z m-168 -333 c-3 -5
-12 -10 -18 -10 -7 0 -6 4 3 10 19 12 23 12 15 0z m0 -40 c-6 -32 -16 -44 -25
-29 -8 12 8 49 22 49 4 0 5 -9 3 -20z m-787 -4 c-7 -8 -16 -12 -21 -9 -11 7 2
23 19 23 12 0 12 -2 2 -14z m860 -73 c-10 -2 -26 -2 -35 0 -10 3 -2 5 17 5 19
0 27 -2 18 -5z m-797 -36 c-10 -9 -11 -8 -5 6 3 10 9 15 12 12 3 -3 0 -11 -7
-18z m77 -12 c-2 -5 -8 -10 -15 -11 -6 -1 -9 4 -6 12 6 16 27 15 21 -1z m8
-92 c-11 -11 -19 6 -11 24 8 17 8 17 12 0 3 -10 2 -21 -1 -24z m1268 -21 c-4
-9 -6 -25 -5 -36 2 -11 -2 -15 -8 -12 -7 5 -9 -4 -6 -26 5 -30 5 -31 -5 -9 -7
17 -8 34 0 54 5 17 10 42 10 56 1 23 2 24 11 8 6 -10 7 -26 3 -35z m-389 -21
c-3 -6 -11 -11 -17 -11 -6 0 -6 6 2 15 14 17 26 13 15 -4z m-882 -78 c-6 -127
-11 -133 -12 -15 0 56 3 102 7 102 5 0 7 -39 5 -87z m1301 40 c-6 -25 -24 -56
-24 -41 0 10 22 68 26 68 2 0 1 -12 -2 -27z m-349 -33 c-3 -5 -15 -10 -25 -10
-10 0 -22 -4 -25 -10 -8 -12 -25 -13 -25 -2 0 11 39 30 63 31 10 1 15 -3 12
-9z m73 -91 c-3 -16 -1 -29 4 -29 11 0 10 -34 -2 -46 -12 -12 -3 -44 13 -44 7
0 7 4 -1 12 -14 14 -16 28 -4 28 10 0 33 -61 26 -71 -3 -5 -12 -9 -20 -9 -8 0
-12 -4 -9 -10 3 -5 1 -10 -4 -10 -6 0 -11 5 -11 11 0 6 -7 3 -16 -5 -8 -9 -30
-16 -47 -16 l-32 1 30 14 30 15 -27 -4 c-15 -1 -25 1 -22 5 3 5 15 9 27 9 18
0 19 2 7 10 -13 8 -12 10 5 11 11 1 26 1 34 0 7 -2 11 4 9 11 -3 7 -13 12 -23
10 -13 -3 -16 1 -11 13 5 14 2 16 -19 11 -37 -9 -50 2 -28 26 10 11 17 22 16
24 -10 16 -1 24 16 14 24 -12 34 -13 27 -1 -4 5 -3 11 1 14 5 2 3 3 -4 1 -6
-1 -13 6 -16 17 -3 11 0 19 8 19 7 0 15 7 19 15 3 10 -1 15 -12 15 -14 0 -15
2 -2 10 20 12 43 -32 38 -71z m212 24 c-11 -17 -11 -17 -6 0 3 10 7 26 7 35 1
15 2 15 6 0 2 -10 -1 -25 -7 -35z m-6 -39 c3 -8 2 -12 -4 -9 -12 7 -12 3 -4
-19 3 -9 11 -13 17 -9 6 4 7 1 2 -7 -6 -10 -11 -9 -22 5 -8 13 -13 14 -13 5 0
-7 -2 -11 -5 -8 -5 5 14 58 21 58 1 0 5 -7 8 -16z m-313 -11 c-11 -5 -11 -7 0
-14 10 -6 8 -9 -8 -9 -16 0 -21 4 -17 15 4 8 14 15 23 14 12 0 12 -2 2 -6z
m-1418 -70 c-13 -2 -33 -2 -45 0 -13 2 -3 4 22 4 25 0 35 -2 23 -4z m230 -10
c-7 -2 -19 -2 -25 0 -7 3 -2 5 12 5 14 0 19 -2 13 -5z m117 -3 c0 -5 -7 -7
-15 -4 -8 4 -15 8 -15 10 0 2 7 4 15 4 8 0 15 -4 15 -10z m470 -5 c-7 -8 -17
-12 -24 -8 -6 4 -20 7 -31 5 -18 -1 -18 -1 -2 6 10 4 30 9 44 10 21 2 24 0 13
-13z m-223 -1 c-3 -3 -12 -4 -19 -1 -8 3 -5 6 6 6 11 1 17 -2 13 -5z m138 -14
c3 -5 2 -10 -4 -10 -5 0 -13 5 -16 10 -3 6 -2 10 4 10 5 0 13 -4 16 -10z m360
-17 c33 -2 65 -4 70 -4 6 -1 24 1 41 5 22 4 34 2 37 -7 9 -25 -20 -44 -38 -25
-4 4 -14 4 -23 1 -13 -6 -13 -8 4 -14 16 -6 14 -8 -9 -8 -20 -1 -26 3 -21 12
6 10 4 10 -7 0 -7 -7 -22 -13 -34 -13 -25 0 -43 -53 -47 -140 -2 -30 -7 -58
-13 -62 -6 -5 -5 -8 3 -8 6 0 12 -4 12 -9 0 -5 -9 -7 -21 -4 -19 5 -20 12 -16
69 3 43 0 64 -7 64 -7 0 -7 3 -1 8 6 4 10 14 10 22 0 8 11 17 25 20 21 5 22 7
8 13 -10 3 -20 1 -24 -5 -4 -7 -10 -4 -17 7 -7 14 -5 21 9 32 16 11 16 13 1
13 -11 0 -14 5 -10 17 4 11 3 14 -5 9 -7 -4 -12 -3 -12 3 0 6 -7 8 -15 5 -11
-5 -13 -2 -9 10 5 13 10 14 27 4 12 -7 49 -13 82 -15z m-691 -8 c3 -10 -1 -15
-12 -16 -10 0 -12 -3 -4 -6 22 -9 14 -43 -10 -43 -34 0 -46 12 -42 40 1 14 3
28 3 33 2 14 59 7 65 -8z m876 -18 c0 -18 -2 -19 -10 -7 -13 20 -13 43 0 35 6
-3 10 -16 10 -28z m-800 3 c0 -5 -8 -10 -17 -10 -15 0 -16 2 -3 10 19 12 20
12 20 0z m1126 -66 c19 -46 18 -74 -3 -74 -15 0 -15 -2 -4 -9 8 -5 20 -7 26
-4 7 2 17 -10 24 -28 15 -44 14 -59 -5 -59 -8 0 -12 -5 -9 -11 4 -6 13 -8 21
-5 8 3 14 -1 14 -9 0 -9 -6 -12 -15 -9 -8 4 -15 2 -15 -4 0 -6 6 -13 13 -15 6
-3 -3 -6 -20 -6 -28 -1 -32 2 -30 22 1 12 7 25 12 29 6 5 5 8 -2 8 -7 0 -13 5
-13 11 0 5 5 7 10 4 6 -3 11 2 11 12 1 17 2 17 6 1 4 -18 23 -26 23 -10 0 21
-34 52 -56 52 -20 0 -25 4 -22 23 2 12 8 26 13 30 6 5 4 7 -5 4 -8 -2 -14 -10
-12 -16 3 -16 -17 -14 -34 4 -13 12 -10 15 21 21 19 3 38 10 41 15 9 15 -5 29
-22 22 -13 -5 -13 -7 -2 -14 10 -7 9 -9 -4 -9 -10 0 -16 7 -15 19 0 11 5 17
11 14 5 -4 7 1 3 9 -3 9 -3 19 0 22 10 10 25 -5 39 -40z m-386 22 c0 -3 -4 -8
-10 -11 -5 -3 -10 -1 -10 4 0 6 5 11 10 11 6 0 10 -2 10 -4z m68 -13 c-9 -10
-13 -24 -11 -31 3 -7 -1 -13 -8 -11 -39 5 -41 0 -37 -71 2 -38 0 -70 -4 -70
-4 0 -8 4 -8 10 0 5 -6 7 -14 4 -12 -5 -12 2 -3 38 6 24 11 59 12 78 1 29 4
35 21 33 11 -1 27 7 34 17 8 11 19 20 24 20 5 0 2 -8 -6 -17z m-1134 -49 c7
-19 0 -34 -17 -34 -7 0 -6 4 3 10 16 10 15 12 -15 28 -20 11 -20 11 1 12 12 0
25 -7 28 -16z m950 -9 c-4 -8 -11 -15 -16 -15 -6 0 -5 6 2 15 7 8 14 15 16 15
2 0 1 -7 -2 -15z m53 -21 c-3 -3 -12 -4 -19 -1 -8 3 -5 6 6 6 11 1 17 -2 13
-5z m458 -53 c-3 -3 -18 -6 -33 -8 -22 -2 -23 -1 -7 6 22 9 48 10 40 2z m-65
-5 c0 -2 -9 -6 -20 -9 -11 -3 -20 -1 -20 4 0 5 9 9 20 9 11 0 20 -2 20 -4z
m-310 -70 c0 -3 -4 -8 -10 -11 -5 -3 -10 -1 -10 4 0 6 5 11 10 11 6 0 10 -2
10 -4z m-182 -15 c11 -7 11 -9 -1 -14 -16 -6 -27 0 -27 15 0 10 11 10 28 -1z
m182 -15 c0 -2 -7 -7 -16 -10 -8 -3 -12 -2 -9 4 6 10 25 14 25 6z m290 -23 c0
-18 -27 -16 -33 1 -4 10 0 14 14 13 10 -1 19 -7 19 -14z m-513 -9 c-3 -3 -12
-4 -19 -1 -8 3 -5 6 6 6 11 1 17 -2 13 -5z m490 -40 c-3 -3 -20 -4 -39 -2
l-33 4 35 10 c31 9 52 2 37 -12z m63 -4 c0 -5 -5 -10 -11 -10 -5 0 -7 5 -4 10
3 6 8 10 11 10 2 0 4 -4 4 -10z m-510 -30 c0 -5 -5 -10 -11 -10 -5 0 -7 5 -4
10 3 6 8 10 11 10 2 0 4 -4 4 -10z m510 -103 c0 -5 -4 -5 -10 -2 -5 3 -10 14
-10 23 0 15 2 15 10 2 5 -8 10 -19 10 -23z"/>
<path d="M2358 663 c6 -2 10 -9 6 -14 -3 -5 -1 -9 5 -9 17 0 21 18 5 24 -9 3
-19 6 -22 5 -4 0 -1 -3 6 -6z"/>
<path d="M722 1488 c2 -6 11 -12 20 -14 11 -1 15 3 11 12 -6 17 -36 19 -31 2z"/>
<path d="M730 1451 c0 -14 28 -33 39 -27 5 4 13 1 17 -5 4 -7 3 -9 -4 -5 -6 3
-13 2 -17 -4 -4 -6 4 -9 19 -8 36 3 33 11 -14 36 -22 11 -40 17 -40 13z"/>
<path d="M1410 1402 c0 -5 10 -8 23 -8 13 1 21 -4 19 -13 -1 -7 3 -19 9 -27 9
-12 9 -13 -4 -9 -17 7 -33 -10 -17 -20 5 -3 10 -17 10 -30 0 -17 -7 -25 -22
-28 -23 -4 -23 -4 1 -6 17 -1 22 -5 17 -17 -7 -19 10 -44 30 -44 19 0 18 20
-2 35 -9 6 -15 18 -12 25 3 10 8 9 21 -4 9 -10 17 -13 17 -7 0 6 7 11 15 11
12 0 13 -4 5 -19 -15 -30 -12 -38 6 -13 19 27 12 39 -29 51 l-32 10 40 -2 c33
-2 40 1 39 16 -2 22 7 22 34 -3 12 -12 22 -17 22 -12 0 5 7 9 15 9 8 0 15 -7
15 -14 0 -11 3 -11 14 -1 12 11 11 15 -8 25 -11 7 -30 10 -41 7 -19 -6 -19 -5
-2 8 18 13 18 14 0 30 -11 11 -33 16 -56 15 -32 -2 -35 -4 -20 -14 9 -7 24
-13 32 -13 14 0 14 -1 1 -10 -8 -5 -15 -14 -15 -20 0 -15 -7 -15 -40 3 -29 16
-29 16 -6 17 23 0 24 1 6 13 -11 9 -15 19 -10 27 5 9 4 11 -3 6 -7 -4 -12 -2
-12 5 0 7 12 9 38 5 32 -5 34 -4 12 5 -14 5 -33 8 -42 5 -10 -2 -18 0 -18 5 0
5 -11 9 -25 9 -14 0 -25 -4 -25 -8z m180 -63 c0 -6 -4 -7 -10 -4 -5 3 -10 11
-10 16 0 6 5 7 10 4 6 -3 10 -11 10 -16z"/>
<path d="M790 1384 c0 -8 6 -11 17 -7 13 5 15 2 11 -15 -4 -12 -1 -25 5 -29 7
-3 9 -3 5 2 -4 4 -3 15 2 24 5 10 6 22 2 28 -10 14 -42 12 -42 -3z"/>
<path d="M1370 1380 c0 -6 16 -10 35 -10 45 0 45 14 0 17 -19 2 -35 -2 -35 -7z"/>
<path d="M1622 1373 c-10 -4 -8 -9 7 -20 14 -9 26 -11 37 -5 11 6 13 11 5 16
-6 4 -11 3 -11 -3 0 -6 -7 -8 -16 -4 -13 5 -13 7 -2 14 14 9 1 11 -20 2z"/>
<path d="M847 1353 c-4 -3 -7 -11 -7 -16 0 -6 3 -7 7 -4 3 4 13 1 22 -6 14
-11 15 -10 1 8 -8 11 -15 21 -16 23 0 1 -4 -1 -7 -5z"/>
<path d="M740 1340 c8 -5 20 -10 25 -10 6 0 3 5 -5 10 -8 5 -19 10 -25 10 -5
0 -3 -5 5 -10z"/>
<path d="M1725 1341 c3 -5 -3 -12 -12 -15 -15 -4 -14 -4 2 -3 11 1 27 -3 35
-7 9 -6 8 -1 -4 12 -19 22 -32 30 -21 13z"/>
<path d="M890 1326 c0 -2 7 -7 16 -10 8 -3 12 -2 9 4 -6 10 -25 14 -25 6z"/>
<path d="M1810 1326 c0 -2 8 -10 18 -17 15 -13 16 -12 3 4 -13 16 -21 21 -21
13z"/>
<path d="M1400 1310 c-11 -7 -12 -12 -4 -20 8 -8 13 -6 17 9 3 12 4 21 4 21
-1 0 -9 -5 -17 -10z"/>
<path d="M727 1289 c7 -7 15 -10 18 -7 3 3 -2 9 -12 12 -14 6 -15 5 -6 -5z"/>
<path d="M870 1291 c0 -5 7 -12 16 -15 14 -5 15 -4 4 9 -14 17 -20 19 -20 6z"/>
<path d="M670 1286 c0 -2 9 -6 20 -9 11 -3 18 -1 14 4 -5 9 -34 13 -34 5z"/>
<path d="M1300 1280 c-9 -6 -10 -10 -3 -10 6 0 15 5 18 10 8 12 4 12 -15 0z"/>
<path d="M780 1275 c0 -5 5 -17 10 -25 5 -8 10 -10 10 -5 0 6 -5 17 -10 25 -5
8 -10 11 -10 5z"/>
<path d="M929 1275 c-9 -37 4 -54 36 -47 14 2 23 8 20 12 -3 4 3 11 13 15 16
7 15 8 -3 15 -23 10 -64 13 -66 5z m38 -31 c-3 -3 -12 -4 -19 -1 -8 3 -5 6 6
6 11 1 17 -2 13 -5z"/>
<path d="M1607 1274 c-3 -5 -2 -16 2 -23 7 -10 13 -11 27 -2 16 9 17 10 2 11
-9 0 -18 5 -20 12 -3 7 -7 8 -11 2z"/>
<path d="M666 1262 c-3 -5 1 -9 9 -9 8 0 12 4 9 9 -3 4 -7 8 -9 8 -2 0 -6 -4
-9 -8z"/>
<path d="M1104 1254 c-18 -14 -18 -15 4 -4 12 6 22 13 22 15 0 8 -5 6 -26 -11z"/>
<path d="M1838 1263 c6 -2 9 -10 6 -15 -4 -7 -2 -8 4 -4 7 4 12 0 12 -10 0
-10 3 -14 6 -11 4 3 16 1 28 -5 11 -7 25 -12 29 -13 4 0 11 -6 16 -13 7 -11 9
-11 14 2 4 9 2 16 -3 16 -5 0 -32 14 -60 30 -28 17 -54 30 -58 29 -4 0 -1 -3
6 -6z"/>
<path d="M706 1249 c3 -5 12 -9 21 -9 19 0 9 13 -12 16 -8 1 -13 -2 -9 -7z"/>
<path d="M816 1244 c-3 -8 0 -11 8 -8 13 5 53 -32 44 -41 -2 -3 -16 -6 -31 -7
-24 -2 -25 -4 -11 -20 17 -18 10 -43 -8 -32 -7 4 -8 2 -4 -5 4 -6 11 -9 16 -6
9 6 31 -50 23 -59 -4 -3 -1 -6 5 -6 8 0 9 11 5 31 -6 31 -5 32 25 27 18 -2 32
-1 32 3 0 4 8 9 18 12 13 3 8 8 -17 19 -44 20 -50 46 -10 40 17 -3 29 0 29 7
0 6 -6 12 -12 12 -7 1 -23 3 -35 4 -22 2 -56 29 -48 37 3 3 -2 5 -10 5 -8 0
-16 -6 -19 -13z m51 -79 c0 -18 -19 -15 -25 3 -2 7 3 12 11 12 7 0 14 -7 14
-15z m26 -32 c-7 -2 -21 -2 -30 0 -10 3 -4 5 12 5 17 0 24 -2 18 -5z"/>
<path d="M1301 1231 c6 -17 13 -31 15 -31 10 0 -3 54 -14 58 -9 3 -9 -4 -1
-27z"/>
<path d="M1135 1240 c4 -6 11 -8 16 -5 14 9 11 15 -7 15 -8 0 -12 -5 -9 -10z"/>
<path d="M1571 1247 c2 -1 13 -9 24 -17 19 -14 19 -14 6 3 -7 9 -18 17 -24 17
-6 0 -8 -1 -6 -3z"/>
<path d="M670 1229 c0 -5 5 -7 10 -4 6 3 10 8 10 11 0 2 -4 4 -10 4 -5 0 -10
-5 -10 -11z"/>
<path d="M1231 1233 c3 -21 -3 -32 -22 -38 -11 -4 -19 -9 -16 -11 2 -2 19 2
37 10 21 9 28 15 19 19 -11 4 -11 6 -1 6 7 1 10 6 7 11 -7 12 -26 14 -24 3z"/>
<path d="M1550 1231 c0 -5 5 -13 10 -16 6 -3 10 -2 10 4 0 5 -4 13 -10 16 -5
3 -10 2 -10 -4z"/>
<path d="M744 1219 c-3 -6 -2 -15 3 -20 5 -5 9 -1 9 11 0 23 -2 24 -12 9z"/>
<path d="M1205 1220 c3 -5 8 -10 11 -10 2 0 4 5 4 10 0 6 -5 10 -11 10 -5 0
-7 -4 -4 -10z"/>
<path d="M1620 1220 c0 -5 7 -10 15 -10 8 0 15 -4 15 -10 0 -5 5 -10 11 -10
14 0 2 18 -22 30 -13 7 -19 7 -19 0z"/>
<path d="M816 1208 c3 -5 10 -6 15 -3 13 9 11 12 -6 12 -8 0 -12 -4 -9 -9z"/>
<path d="M1335 1210 c4 -6 11 -8 16 -5 14 9 11 15 -7 15 -8 0 -12 -5 -9 -10z"/>
<path d="M701 1194 c-1 -15 24 -36 32 -27 12 12 7 25 -7 20 -8 -3 -17 -1 -20
6 -3 8 -5 8 -5 1z"/>
<path d="M1297 1184 c2 -7 11 -10 19 -7 19 7 18 10 -5 16 -13 3 -18 1 -14 -9z"/>
<path d="M1982 1174 c-7 -8 -8 -14 -3 -14 10 0 25 19 20 25 -2 1 -10 -3 -17
-11z"/>
<path d="M934 1173 c10 -11 37 -12 30 -2 -3 5 -12 9 -21 9 -9 0 -13 -3 -9 -7z"/>
<path d="M1590 1159 c0 -5 5 -7 10 -4 6 3 10 8 10 11 0 2 -4 4 -10 4 -5 0 -10
-5 -10 -11z"/>
<path d="M1943 1156 c2 -20 33 -31 43 -15 3 5 -4 9 -15 9 -10 0 -22 6 -25 13
-3 6 -5 3 -3 -7z"/>
<path d="M1615 1150 c-3 -6 -3 -10 2 -9 27 5 33 -3 28 -32 -4 -22 -2 -30 7
-27 7 3 13 15 13 28 0 26 -39 58 -50 40z"/>
<path d="M744 1138 c-4 -7 -2 -8 5 -4 6 4 25 -2 41 -14 17 -12 36 -19 43 -17
7 3 5 6 -5 6 -10 1 -22 9 -27 19 -11 20 -47 26 -57 10z"/>
<path d="M660 1115 c0 -5 5 -17 10 -25 5 -8 10 -10 10 -5 0 6 -5 17 -10 25 -5
8 -10 11 -10 5z"/>
<path d="M593 1085 c0 -8 9 -22 19 -32 17 -16 17 -15 2 15 -17 36 -21 38 -21
17z"/>
<path d="M695 1090 c3 -5 8 -10 11 -10 2 0 4 5 4 10 0 6 -5 10 -11 10 -5 0 -7
-4 -4 -10z"/>
<path d="M2165 1087 c4 -9 11 -17 16 -17 5 0 9 -7 9 -16 0 -8 4 -13 9 -10 5 4
12 0 14 -6 3 -7 6 -8 6 -2 1 5 -13 23 -30 40 -19 18 -28 22 -24 11z"/>
<path d="M636 1075 c4 -8 11 -15 18 -15 6 0 4 -5 -4 -10 -9 -6 -10 -10 -3 -10
17 0 29 23 15 28 -7 2 -10 8 -6 13 3 5 -2 9 -10 9 -10 0 -13 -6 -10 -15z"/>
<path d="M1518 1073 c7 -3 16 -2 19 1 4 3 -2 6 -13 5 -11 0 -14 -3 -6 -6z"/>
<path d="M2240 1071 c0 -20 13 -41 21 -35 5 3 9 1 9 -4 0 -6 7 -12 15 -16 21
-8 19 -3 -15 32 -16 18 -30 28 -30 23z"/>
<path d="M710 1066 c0 -9 30 -14 35 -6 4 6 -3 10 -14 10 -12 0 -21 -2 -21 -4z"/>
<path d="M1170 1056 c0 -2 11 -6 25 -8 14 -3 25 -1 25 3 0 5 -11 9 -25 9 -14
0 -25 -2 -25 -4z"/>
<path d="M1245 1050 c-3 -5 1 -10 10 -10 9 0 13 5 10 10 -3 6 -8 10 -10 10 -2
0 -7 -4 -10 -10z"/>
<path d="M1868 1053 c7 -3 16 -2 19 1 4 3 -2 6 -13 5 -11 0 -14 -3 -6 -6z"/>
<path d="M890 1040 c0 -5 7 -10 15 -10 8 0 15 5 15 10 0 6 -7 10 -15 10 -8 0
-15 -4 -15 -10z"/>
<path d="M696 1015 c4 -8 12 -16 20 -16 31 -3 35 -4 42 -14 4 -5 14 -11 22
-13 27 -6 -34 45 -62 52 -22 5 -26 3 -22 -9z"/>
<path d="M1883 1015 c0 -8 4 -12 9 -9 5 3 6 10 3 15 -9 13 -12 11 -12 -6z"/>
<path d="M865 1010 c3 -5 12 -10 20 -10 8 0 17 5 20 10 4 6 -5 10 -20 10 -15
0 -24 -4 -20 -10z"/>
<path d="M665 1000 c3 -5 8 -10 11 -10 2 0 4 5 4 10 0 6 -5 10 -11 10 -5 0 -7
-4 -4 -10z"/>
<path d="M1838 1003 c7 -3 16 -2 19 1 4 3 -2 6 -13 5 -11 0 -14 -3 -6 -6z"/>
<path d="M2087 999 c7 -7 15 -10 18 -7 3 3 -2 9 -12 12 -14 6 -15 5 -6 -5z"/>
<path d="M2303 965 c0 -7 6 -11 14 -8 7 3 13 6 13 8 0 2 -6 5 -13 8 -8 3 -14
-1 -14 -8z"/>
<path d="M2155 931 c3 -5 -3 -17 -12 -27 -17 -17 -17 -18 0 -11 10 4 21 7 23
7 2 0 4 9 4 20 0 11 -5 20 -11 20 -5 0 -8 -4 -4 -9z"/>
<path d="M2200 886 c0 -14 5 -26 10 -26 6 0 10 9 10 19 0 11 -4 23 -10 26 -6
4 -10 -5 -10 -19z"/>
<path d="M1577 893 c-10 -9 -9 -253 1 -253 5 0 10 59 11 130 1 72 1 130 -2
130 -2 0 -7 -3 -10 -7z"/>
<path d="M1474 843 c12 -90 18 -123 25 -124 3 0 18 -3 34 -5 l27 -5 0 91 0 90
-46 0 -47 0 7 -47z"/>
<path d="M1798 873 c7 -3 16 -2 19 1 4 3 -2 6 -13 5 -11 0 -14 -3 -6 -6z"/>
<path d="M2150 870 c20 -13 33 -13 25 0 -3 6 -14 10 -23 10 -15 0 -15 -2 -2
-10z"/>
<path d="M1810 784 c0 -42 4 -63 10 -59 7 4 9 -2 4 -19 -5 -19 -2 -26 9 -26 8
0 23 -3 31 -6 14 -5 16 5 15 85 l-2 91 -33 0 -34 0 0 -66z"/>
<path d="M1525 693 c11 -3 23 -10 27 -17 5 -7 8 -5 8 7 0 12 -7 17 -27 16 -22
-1 -23 -2 -8 -6z"/>
<path d="M903 533 c9 -2 23 -2 30 0 6 3 -1 5 -18 5 -16 0 -22 -2 -12 -5z"/>
<path d="M1018 533 c7 -3 16 -2 19 1 4 3 -2 6 -13 5 -11 0 -14 -3 -6 -6z"/>
<path d="M1058 533 c7 -3 16 -2 19 1 4 3 -2 6 -13 5 -11 0 -14 -3 -6 -6z"/>
<path d="M1480 485 c-7 -9 -11 -17 -9 -19 7 -7 49 13 49 24 0 15 -26 12 -40
-5z"/>
<path d="M1586 473 c-3 -7 8 -14 25 -18 31 -7 38 -19 15 -28 -8 -3 -17 1 -20
9 -8 21 -22 17 -22 -6 0 -12 7 -20 18 -20 16 0 17 -10 11 -133 -7 -152 0 -210
24 -205 14 3 16 27 15 186 -1 100 -4 187 -7 192 -3 6 -2 10 3 10 6 0 12 6 15
13 3 9 -6 13 -34 12 -21 0 -41 -5 -43 -12z"/>
<path d="M1520 472 c0 -5 -12 -13 -27 -18 -25 -9 -22 -10 24 -10 29 1 53 5 53
10 0 4 -7 6 -15 2 -9 -3 -15 0 -15 9 0 8 -4 15 -10 15 -5 0 -10 -4 -10 -8z"/>
<path d="M948 453 c6 -2 18 -2 25 0 6 3 1 5 -13 5 -14 0 -19 -2 -12 -5z"/>
<path d="M1411 424 c-1 -18 4 -20 55 -17 75 3 83 13 12 13 -36 0 -58 5 -61 13
-3 6 -6 3 -6 -9z"/>
<path d="M1492 393 c-30 -6 -30 -7 -35 -141 l-4 -112 26 -1 c14 0 45 -2 69 -4
37 -3 42 -1 37 14 -3 10 -7 66 -10 124 -4 105 -4 107 18 108 17 1 16 3 -8 9
-34 9 -59 9 -93 3z"/>
<path d="M512 354 c10 -10 20 -16 22 -13 3 3 -5 11 -17 18 -21 13 -21 12 -5
-5z"/>
<path d="M908 363 c6 -2 18 -2 25 0 6 3 1 5 -13 5 -14 0 -19 -2 -12 -5z"/>
<path d="M558 343 c7 -3 16 -2 19 1 4 3 -2 6 -13 5 -11 0 -14 -3 -6 -6z"/>
<path d="M520 310 c0 -11 4 -20 8 -20 4 0 8 9 8 20 0 11 -4 20 -8 20 -4 0 -8
-9 -8 -20z"/>
<path d="M555 320 c3 -5 8 -10 11 -10 2 0 4 5 4 10 0 6 -5 10 -11 10 -5 0 -7
-4 -4 -10z"/>
<path d="M576 301 c-17 -6 -17 -8 -4 -14 10 -3 19 0 22 9 3 8 4 14 3 13 -1 0
-11 -4 -21 -8z"/>
<path d="M576 248 c5 -8 1 -9 -12 -4 -14 5 -16 4 -8 -4 14 -15 68 -24 59 -10
-3 5 -1 10 5 10 6 0 8 5 5 10 -3 6 -11 10 -16 10 -6 0 -8 -4 -5 -9 3 -5 -1
-11 -9 -14 -9 -4 -12 -1 -8 9 3 7 0 14 -7 14 -6 0 -8 -5 -4 -12z"/>
<path d="M507 233 c4 -9 -1 -22 -13 -30 -19 -14 -19 -14 1 -11 12 2 19 -2 17
-10 -1 -8 2 -11 8 -7 15 9 12 62 -4 68 -11 4 -13 1 -9 -10z"/>
<path d="M588 203 c6 -2 18 -2 25 0 6 3 1 5 -13 5 -14 0 -19 -2 -12 -5z"/>
<path d="M576 175 c-11 -8 -14 -15 -7 -15 7 0 10 -4 7 -8 -2 -4 0 -14 6 -22 8
-12 9 -11 4 5 -6 19 -5 19 8 2 18 -24 10 -53 -10 -36 -11 9 -12 5 -5 -19 5
-16 7 -41 4 -56 -5 -24 -2 -26 26 -26 23 0 29 4 25 15 -4 8 -9 15 -13 15 -3 0
-6 23 -7 50 -1 43 2 50 18 50 17 0 18 2 3 30 -17 33 -31 37 -59 15z m24 -5 c0
-5 -5 -10 -11 -10 -5 0 -7 5 -4 10 3 6 8 10 11 10 2 0 4 -4 4 -10z"/>
<path d="M1002 150 c0 -14 2 -19 5 -12 2 6 2 18 0 25 -3 6 -5 1 -5 -13z"/>
<path d="M1433 127 c0 -8 6 -14 14 -14 9 0 10 4 2 14 -6 7 -12 13 -14 13 -1 0
-2 -6 -2 -13z"/>
<path d="M1090 70 c-11 -7 -7 -10 17 -10 17 0 35 5 38 10 8 13 -35 13 -55 0z"/>
<path d="M443 63 c15 -2 37 -2 50 0 12 2 0 4 -28 4 -27 0 -38 -2 -22 -4z"/>
<path d="M352 30 c0 -14 2 -19 5 -12 2 6 2 18 0 25 -3 6 -5 1 -5 -13z"/>
<path d="M760 30 c-12 -8 -12 -10 5 -10 11 0 27 5 35 10 12 8 12 10 -5 10 -11
0 -27 -5 -35 -10z"/>
<path d="M671 14 c0 -11 3 -14 6 -6 3 7 2 16 -1 19 -3 4 -6 -2 -5 -13z"/>
<path d="M428 3 c12 -2 30 -2 40 0 9 3 -1 5 -23 4 -22 0 -30 -2 -17 -4z"/>
</g>
</svg>
