<?xml version="1.0" standalone="no"?>
<!DOCTYPE svg PUBLIC "-//W3C//DTD SVG 20010904//EN"
 "http://www.w3.org/TR/2001/REC-SVG-20010904/DTD/svg10.dtd">
<svg version="1.0" xmlns="http://www.w3.org/2000/svg"
 width="640.000000pt" height="360.000000pt" viewBox="0 0 640.000000 360.000000"
 preserveAspectRatio="xMidYMid meet">

<g transform="translate(0.000000,360.000000) scale(0.100000,-0.100000)"
fill="#000000" stroke="none">
<path d="M3210 3490 c-2 -19 -2 -41 -1 -48 1 -8 -3 -20 -9 -27 -7 -8 -8 -20
-4 -27 14 -22 13 -41 -3 -69 -10 -17 -13 -34 -8 -45 15 -38 11 -79 -12 -110
-13 -17 -20 -34 -16 -37 3 -4 0 -7 -9 -7 -8 0 -25 -11 -38 -25 l-23 -24 22 4
c19 4 21 2 10 -11 -6 -8 -20 -12 -29 -9 -9 3 -30 -1 -46 -10 -16 -8 -33 -15
-37 -15 -12 0 -43 -33 -51 -54 -7 -19 -6 -19 13 -2 11 10 31 19 44 20 14 0 23
4 21 7 -7 12 126 29 225 29 83 0 101 3 101 15 0 8 -7 15 -16 15 -8 0 -12 -4
-9 -10 3 -5 1 -10 -5 -10 -6 0 -13 7 -16 15 -4 9 -12 14 -20 13 -7 -2 -20 6
-29 17 -16 20 -16 20 -10 -2 5 -18 3 -22 -9 -17 -9 3 -17 9 -17 13 -1 3 -3 19
-5 35 -3 26 -2 27 11 10 14 -18 14 -18 15 -1 0 10 4 15 10 12 5 -3 2 8 -8 24
-9 17 -21 31 -26 31 -5 0 -3 7 4 14 8 11 9 20 1 33 -7 13 -5 23 6 35 14 15 14
20 1 40 -16 25 -18 124 -4 147 7 10 6 12 -4 6 -9 -6 -12 -4 -8 6 3 8 2 23 -3
34 -6 16 -8 13 -9 -15z m-25 -382 l-5 -33 14 35 14 35 1 -32 c1 -17 4 -40 8
-50 6 -16 5 -17 -11 -4 -14 12 -22 12 -36 3 -25 -15 -37 3 -16 23 8 8 18 24
21 35 10 31 15 24 10 -12z"/>
<path d="M531 3120 c-2 -8 -4 -31 -6 -50 -2 -19 -3 -41 -4 -47 -1 -7 -8 -13
-16 -13 -24 0 -74 -50 -87 -86 -8 -23 -22 -37 -42 -44 l-31 -11 33 -28 c28
-24 32 -34 33 -77 2 -45 2 -46 8 -14 5 28 8 31 14 17 15 -38 7 -54 -33 -72
-22 -10 -42 -26 -45 -35 -7 -24 3 -48 24 -55 14 -4 18 -18 20 -67 1 -34 4 -65
7 -69 2 -4 0 -10 -6 -14 -5 -3 -10 -21 -10 -38 0 -18 -7 -116 -17 -219 -15
-169 -19 -188 -35 -188 -20 0 -41 -41 -32 -65 3 -8 14 -17 25 -20 17 -6 18
-14 14 -93 -2 -48 -6 -100 -9 -117 -3 -16 -7 -68 -11 -115 -14 -213 -16 -220
-41 -220 -13 0 -24 -4 -24 -9 0 -5 -3 -16 -6 -25 -3 -8 4 -23 18 -35 31 -27
32 -53 14 -261 -12 -128 -12 -166 -3 -172 9 -6 9 -8 0 -8 -7 0 -14 -29 -18
-74 -5 -51 -12 -76 -22 -80 -8 -3 -11 -11 -8 -17 4 -6 -2 -5 -13 2 -12 7 -25
10 -29 5 -4 -4 -8 -50 -8 -102 0 -52 -3 -95 -7 -95 -5 -1 -12 -2 -16 -3 -5 0
-17 -9 -27 -19 -11 -12 -21 -15 -28 -8 -5 5 -17 7 -26 3 -14 -5 -14 -3 -3 11
11 12 11 20 2 34 -10 16 -11 16 -6 1 3 -10 1 -18 -4 -18 -6 0 -10 -7 -10 -15
0 -11 -8 -13 -30 -8 l-31 6 1 -196 2 -196 26 -4 27 -4 -27 -2 c-45 -2 -36 -31
10 -32 l37 -2 -40 -7 c-34 -6 -30 -7 33 -9 40 0 72 -5 72 -11 0 -11 4 -11 -74
-16 -142 -9 -44 -14 305 -14 l374 0 4 38 c2 20 4 49 5 65 0 15 6 27 13 27 9 0
11 -17 6 -65 l-6 -65 37 0 c25 0 35 4 30 11 -4 7 0 9 14 5 18 -6 20 -3 17 31
-1 21 0 26 2 10 2 -15 8 -25 13 -22 4 3 6 14 3 26 -3 12 -1 24 5 28 8 5 9 23
3 59 -6 37 -5 52 3 52 21 0 35 -63 30 -133 l-4 -67 90 0 90 0 0 31 c0 28 3 31
25 27 23 -5 25 -2 25 28 0 57 17 46 24 -16 4 -33 11 -60 15 -60 14 0 21 13 12
24 -12 16 -20 66 -10 66 5 0 6 6 3 14 -3 8 -1 17 4 20 5 3 9 -5 8 -17 -1 -12
3 -25 9 -29 6 -5 5 -8 -3 -8 -7 0 -10 -5 -7 -10 3 -6 15 -10 26 -10 25 0 27
-40 2 -41 -15 0 -15 -2 2 -9 28 -12 265 -11 265 1 0 6 -4 7 -10 4 -15 -10 -45
17 -46 43 -1 15 4 22 16 22 23 0 34 -28 19 -46 -8 -10 -8 -14 0 -14 6 0 11 5
11 12 0 6 9 1 19 -11 18 -20 20 -21 24 -4 4 17 5 17 6 1 1 -16 12 -18 86 -18
78 0 85 2 85 20 0 11 5 20 11 20 6 0 8 -9 4 -20 -6 -20 -2 -20 344 -20 222 0
352 4 356 10 3 6 18 10 33 9 24 0 25 -1 7 -9 -15 -6 -5 -9 35 -9 49 -1 64 5
138 49 46 28 87 50 92 50 4 0 10 6 13 14 3 7 47 41 98 75 82 54 99 61 142 61
35 0 53 -5 62 -17 10 -13 26 -16 79 -14 54 2 66 0 66 -13 0 -13 -13 -15 -79
-12 -66 3 -81 0 -86 -13 -4 -9 -7 -18 -8 -21 -1 -2 39 -4 90 -5 50 0 89 3 87
7 -3 4 -2 19 2 33 6 22 11 25 54 25 57 0 110 -10 110 -20 0 -4 -6 -8 -12 -7
-7 0 -41 -1 -75 -1 -96 -3 -76 -22 22 -22 l84 0 26 -37 c32 -48 32 -39 -1 23
-14 27 -18 40 -9 29 9 -11 20 -19 25 -18 14 4 52 -56 44 -68 -4 -7 -3 -9 4 -5
6 3 13 2 17 -4 3 -5 1 -10 -5 -10 -6 0 1 -17 15 -38 17 -25 33 -37 49 -37 l24
-1 -19 26 c-11 14 -53 68 -93 120 l-73 95 49 3 c52 3 76 -10 202 -115 22 -18
46 -33 53 -33 7 0 13 -4 13 -9 0 -5 25 -27 55 -50 l54 -41 411 0 c387 0 411 1
406 18 -2 9 -8 47 -12 85 -5 58 -4 67 10 67 9 0 19 -6 21 -13 4 -12 12 -88 14
-134 1 -22 5 -23 81 -23 l80 0 0 48 c0 26 -5 53 -12 60 -18 18 -5 22 36 11
l38 -10 -4 -55 -3 -54 76 0 77 0 -8 34 c-4 19 -6 37 -3 39 2 3 23 -1 46 -8 23
-7 66 -12 95 -11 44 2 52 -1 52 -16 0 -14 8 -18 35 -18 24 0 35 5 35 15 0 11
11 15 40 15 48 0 54 -17 8 -22 -30 -3 -29 -4 20 -16 38 -9 192 -12 552 -12
l500 0 0 281 0 281 -52 -7 c-29 -3 -73 -15 -97 -26 l-43 -20 6 -50 c6 -46 -4
-67 -18 -36 -3 6 -5 -5 -3 -25 3 -43 1 -45 -33 -18 -33 26 -38 25 -35 -5 3
-25 3 -25 -80 -25 -57 0 -85 4 -89 13 -5 9 -7 9 -12 0 -7 -15 -34 -17 -34 -3
0 12 -37 14 -44 2 -2 -4 -17 -7 -33 -6 -20 0 -28 6 -29 20 -2 49 -6 56 -34 65
-16 6 -28 15 -25 19 3 4 -5 6 -17 3 -19 -4 -20 -3 -8 6 9 6 10 11 3 11 -6 0
-18 -6 -25 -13 -14 -13 -64 -37 -78 -37 -5 0 -7 6 -4 14 3 8 1 17 -5 20 -6 4
-8 -14 -5 -49 l4 -55 -70 0 c-60 0 -70 3 -70 18 -1 15 -2 15 -13 1 -17 -23
-104 -23 -117 -1 -9 16 -9 16 -10 0 0 -11 -8 -18 -20 -18 -17 0 -20 7 -20 50
0 28 -4 50 -10 50 -5 0 -10 -22 -10 -50 l0 -50 -71 5 c-38 3 -74 7 -80 10 -5
4 -9 1 -9 -5 0 -7 -15 -9 -42 -6 -24 3 -93 5 -154 5 l-111 1 -6 29 c-5 24 -14
32 -44 40 -20 6 -39 8 -42 6 -2 -3 1 -5 8 -5 7 0 9 -5 6 -11 -5 -7 -13 -5 -24
5 -15 14 -19 14 -34 -4 -19 -23 -23 -50 -6 -50 5 0 8 4 4 9 -3 5 -1 12 5 16 5
3 10 -3 10 -14 0 -18 -6 -21 -44 -21 -48 0 -56 9 -56 65 0 41 -21 59 -60 51
-22 -4 -36 0 -50 14 -11 11 -22 15 -25 10 -3 -4 1 -11 7 -13 7 -3 -3 -6 -22
-6 -27 -1 -42 -9 -63 -32 -15 -17 -27 -39 -27 -49 0 -31 -29 -33 -36 -2 -13
61 -13 61 -62 64 -68 4 -155 -7 -160 -20 -2 -7 -12 -12 -22 -12 -13 0 -19 11
-24 43 -6 37 -9 40 -18 23 -8 -15 -8 -21 0 -24 17 -5 15 -39 -3 -46 -9 -3 -15
-18 -15 -36 0 -23 -4 -30 -19 -30 -16 0 -20 8 -23 37 -3 31 -7 38 -33 45 -16
4 -59 5 -95 2 -36 -3 -69 -6 -75 -6 -5 0 -22 3 -37 7 -25 6 -28 4 -28 -16 0
-13 -3 -34 -6 -46 -6 -21 -9 -21 -185 -21 l-179 1 0 23 c0 17 -4 22 -16 17 -9
-3 -14 -13 -11 -24 7 -25 -10 -36 -60 -41 -35 -3 -44 0 -51 17 -9 20 -9 20
-16 -2 -6 -17 -15 -23 -37 -23 -24 0 -29 3 -25 18 5 16 -7 17 -179 15 l-184
-1 -3 41 c-3 42 -3 42 -43 42 l-40 0 -3 48 -3 47 -65 0 c-66 0 -73 5 -58 44 6
14 8 14 23 -3 23 -27 100 -36 102 -13 1 10 3 24 4 32 1 8 3 25 4 38 l1 23 578
-2 c631 -3 818 -8 815 -24 -1 -6 11 -11 27 -11 20 -1 27 2 23 12 -3 9 1 14 12
14 9 0 13 -4 10 -10 -3 -5 -1 -10 4 -10 6 0 11 4 11 9 0 11 970 8 988 -3 7 -4
10 -12 7 -17 -4 -5 1 -9 9 -9 9 0 16 5 16 11 0 6 7 3 16 -5 22 -23 100 -21
113 1 10 17 10 17 11 1 0 -24 -4 -33 -11 -31 -4 1 -9 -7 -12 -17 -7 -26 5 -26
23 0 17 23 50 27 50 5 0 -11 12 -15 46 -15 41 0 45 2 42 23 -2 17 -10 22 -31
22 -16 1 -32 7 -36 14 -6 10 -10 10 -12 2 -3 -8 -12 -9 -28 -3 -24 9 -24 9 6
15 37 7 103 -2 103 -14 0 -5 7 -9 15 -9 8 0 15 -4 15 -8 0 -11 105 -10 116 1
4 4 -2 7 -14 7 -11 0 -23 4 -26 9 -7 10 69 22 128 20 30 -2 34 -3 14 -6 -16
-2 -28 -10 -28 -16 0 -7 -4 -6 -10 3 -6 10 -10 11 -10 3 0 -7 -8 -13 -17 -14
-11 0 -13 -3 -5 -6 6 -2 12 -13 12 -24 0 -10 5 -19 11 -19 5 0 7 -4 4 -10 -3
-5 -1 -10 4 -10 6 0 11 4 11 10 0 5 18 7 43 4 23 -3 48 -6 55 -6 6 -1 12 -8
12 -17 0 -14 2 -14 10 -1 6 10 10 -2 13 -40 l3 -55 2 57 c1 39 6 57 14 55 7
-1 12 7 13 18 0 16 8 21 43 23 57 4 54 18 -4 17 -28 -1 -49 -7 -55 -16 -7 -10
-9 -8 -7 11 3 24 6 25 68 25 64 0 65 0 71 -30 l7 -30 2 30 2 30 8 -30 8 -30 1
32 1 33 60 -1 c41 -1 60 -5 60 -14 0 -7 -9 -11 -24 -8 -15 3 -25 -1 -29 -11
-5 -14 0 -16 28 -14 21 1 35 7 35 15 0 7 7 13 16 13 13 0 15 -8 12 -40 -2 -22
0 -40 4 -40 5 0 8 25 8 55 l0 55 33 1 c86 3 -112 24 -225 24 -99 0 -128 3
-128 13 0 10 14 12 54 9 30 -3 71 -2 90 3 20 4 36 4 36 0 0 -4 11 -5 24 -3 13
3 33 0 44 -6 16 -8 21 -7 26 5 9 24 9 24 -29 24 -19 0 -35 5 -35 10 0 6 -11
10 -25 10 -14 0 -25 6 -25 14 0 9 -17 14 -61 15 -78 2 -99 -5 -99 -32 0 -14
-3 -18 -8 -10 -4 7 -13 9 -21 4 -11 -7 -10 -11 5 -21 16 -9 16 -11 2 -6 -20 6
-34 -10 -16 -17 8 -3 6 -6 -4 -6 -10 -1 -18 4 -18 9 0 6 -4 10 -10 10 -5 0
-10 -6 -10 -14 0 -13 -28 -14 -182 -10 -220 7 -228 7 -228 16 0 4 28 9 63 11
34 2 -18 4 -115 5 -154 2 -177 0 -172 -13 5 -12 -5 -15 -56 -15 -54 0 -61 2
-50 15 10 12 10 15 -4 15 -9 0 -16 -6 -16 -12 0 -9 -4 -8 -10 2 -9 13 -10 13
-10 -1 0 -12 -13 -15 -65 -16 -54 0 -63 2 -54 13 9 11 7 14 -10 14 -11 0 -21
-6 -21 -12 0 -9 -22 -14 -73 -15 -39 -1 -66 1 -60 4 25 9 13 23 -19 22 -18 0
-27 -3 -20 -6 35 -14 -4 -18 -165 -17 -124 1 -178 4 -181 12 -2 7 -10 12 -18
12 -9 0 -13 -4 -10 -9 8 -13 -75 -17 -324 -15 -503 3 -1330 2 -1390 -2 -36 -2
-83 -3 -105 -3 -666 -1 -1117 1 -1145 6 -30 5 -32 7 -15 13 16 7 12 9 -18 9
-23 1 -36 -3 -32 -9 3 -5 -3 -10 -14 -10 -11 0 -23 4 -26 10 -10 15 -55 13
-49 -3 4 -11 -28 -14 -156 -15 -94 -1 -160 2 -160 7 0 5 8 12 18 14 9 3 -36 5
-100 6 -65 0 -118 -2 -118 -6 0 -5 44 -7 97 -6 64 1 89 -1 73 -7 -14 -4 -63
-9 -110 -9 -47 -1 -92 -6 -100 -11 -16 -11 7 -13 89 -10 31 1 41 -2 36 -10 -5
-9 -1 -10 14 -5 29 9 123 -5 96 -15 -17 -6 -14 -9 15 -14 39 -7 107 -2 117 8
3 3 -7 7 -23 7 -25 1 -23 2 11 9 22 4 139 8 260 9 121 1 330 4 465 7 135 2
287 4 338 4 119 -1 108 -1 177 0 145 3 165 1 165 -18 0 -15 9 -18 56 -19 36 0
52 2 43 8 -8 5 -31 9 -51 9 -21 0 -38 4 -38 9 0 6 29 10 65 10 36 0 69 3 75 6
6 4 10 -30 9 -97 -1 -57 -3 -94 -6 -83 -2 11 -7 27 -10 35 -3 8 -5 18 -5 23 2
9 -12 9 -21 0 -4 -3 1 -12 11 -19 16 -12 16 -13 0 -19 -9 -4 -25 -2 -35 3 -22
13 -73 -11 -73 -35 0 -15 -1 -15 -13 1 -12 16 -13 10 -9 -43 4 -51 2 -61 -12
-61 -13 0 -16 11 -16 50 0 28 -4 50 -10 50 -5 0 -10 -4 -10 -9 0 -5 -23 -12
-50 -16 -49 -7 -50 -8 -50 -41 0 -24 -5 -34 -15 -34 -8 0 -15 5 -15 10 0 14
-27 12 -33 -2 -3 -7 -8 2 -12 20 -5 22 -16 37 -31 43 -13 4 -24 13 -24 19 0
31 -44 -33 -45 -65 0 -5 -33 -11 -72 -13 l-73 -3 0 45 c0 37 -4 48 -22 57 -25
13 -48 34 -48 43 0 3 17 7 38 7 l37 2 -35 6 c-39 8 -63 3 -55 -9 3 -5 1 -11
-5 -15 -5 -3 -10 -11 -10 -17 0 -7 5 -6 14 1 10 8 16 9 21 1 6 -9 -13 -14 -41
-11 -14 2 -24 -31 -24 -76 0 -23 -5 -33 -15 -33 -9 0 -15 6 -14 12 1 7 1 27 0
44 -1 27 -5 33 -33 38 -37 7 -43 7 -78 4 -24 -3 -62 -38 -59 -55 8 -44 -1 -53
-51 -53 l-50 0 0 51 c0 42 -3 52 -20 56 -11 3 -20 9 -20 14 0 7 -39 4 -67 -6
-7 -2 -13 2 -13 10 0 8 -7 15 -15 15 -9 0 -15 -6 -14 -12 1 -7 -1 -24 -4 -38
-7 -23 -15 -65 -16 -83 -1 -4 -29 -7 -63 -6 -35 1 -67 0 -73 -1 -5 -1 -14 -1
-20 0 -5 1 -17 3 -25 4 -20 1 -18 129 2 153 11 15 10 16 -12 10 -14 -4 -46 -7
-72 -7 -36 0 -46 -3 -44 -16 1 -8 8 -19 15 -24 9 -5 10 -10 2 -14 -6 -4 -11
-18 -11 -30 0 -33 -26 -93 -32 -75 -5 11 -8 12 -19 2 -16 -16 -153 -18 -144
-3 3 6 1 10 -4 10 -6 0 -11 -4 -11 -10 0 -11 -78 -14 -104 -4 -9 3 -16 12 -16
20 0 8 -4 14 -10 14 -5 0 -10 7 -10 16 0 8 5 12 11 8 7 -4 10 2 8 17 -2 13 0
30 4 37 5 7 3 12 -5 12 -10 0 -10 2 0 9 8 4 12 12 10 16 -1 5 12 9 30 9 22 1
31 -3 27 -12 -6 -16 3 -15 21 2 23 24 17 28 -41 24 -40 -2 -55 1 -55 10 0 9
11 11 38 8 l37 -5 -37 11 c-23 7 -38 18 -38 27 0 14 1 14 10 1 9 -14 14 -7 11
13 -1 4 23 7 51 7 71 0 88 2 88 12 0 4 -34 8 -76 8 -53 0 -73 3 -68 11 4 7 1
10 -7 7 -10 -3 -15 -27 -16 -89 -1 -46 -2 -90 -2 -96 -1 -20 -21 -15 -22 5 0
9 -3 12 -5 5 -3 -7 -24 -9 -64 -6 -72 7 -90 -4 -90 -58 0 -21 -5 -41 -11 -45
-8 -4 -9 1 -4 15 4 13 1 28 -5 36 -7 9 -8 15 -3 15 6 0 10 26 9 60 0 33 2 61
6 63 3 1 8 31 10 66 l3 64 -92 0 c-51 0 -90 3 -88 8 7 11 87 17 113 8 13 -5
22 -5 22 1 0 6 11 10 25 10 46 0 25 20 -22 22 -36 1 -40 2 -16 5 29 4 32 7 30
34 -1 20 -7 29 -19 29 -26 0 -22 18 5 23 16 3 13 5 -10 6 -37 1 -44 16 -13 24
11 3 20 1 20 -4 0 -4 7 -6 15 -3 24 10 17 27 -9 22 -14 -3 -31 -1 -38 3 -10 7
-8 9 6 9 11 0 16 5 13 14 -4 9 3 16 19 20 38 10 23 31 -23 34 -36 3 -40 6 -41
28 l0 25 20 -21 c11 -12 24 -17 31 -13 8 5 7 9 -5 11 -22 4 -24 22 -3 22 8 0
15 6 15 14 0 8 10 13 23 12 14 -1 21 4 19 13 -2 8 3 18 10 22 9 6 6 9 -9 9
-13 0 -23 5 -23 10 0 6 4 10 10 10 5 0 7 7 4 15 -4 9 0 15 10 15 33 0 16 29
-21 37 l-38 7 40 7 c39 6 39 6 7 8 -35 1 -36 21 -1 21 11 0 18 4 15 9 -4 5 0
12 6 14 7 3 1 6 -14 6 -42 1 -33 21 10 22 l37 2 -35 6 c-34 7 -34 7 20 15 51
8 53 10 25 16 -30 8 -30 8 -3 9 18 1 29 8 33 22 4 11 5 22 3 25 -5 4 -45 12
-70 13 -9 1 -19 11 -21 24 l-4 22 -2 -22 c-2 -34 -21 -28 -21 7 0 27 3 30 33
31 24 0 27 2 14 8 -17 6 -17 8 -3 20 22 18 21 51 -1 52 -15 0 -15 2 2 9 11 5
14 9 8 9 -7 1 -13 8 -13 16 0 8 -7 15 -15 15 -8 0 -15 5 -15 10 0 6 14 10 30
10 24 0 30 4 30 21 0 11 -4 18 -9 14 -5 -3 -13 0 -17 6 -4 7 -3 9 4 5 6 -3 13
-2 17 4 3 5 -1 10 -9 10 -9 0 -16 7 -16 15 0 8 -6 15 -12 15 -8 0 -5 7 6 15
11 8 16 15 12 15 -4 0 0 7 9 16 13 14 14 19 3 25 -11 7 -10 11 2 19 13 8 13
10 -1 10 -12 0 -15 7 -12 23 3 17 -2 26 -19 34 l-23 12 25 1 c23 1 23 2 5 10
-17 7 -17 9 -2 9 9 1 17 9 18 19 0 14 2 14 9 -3 7 -17 9 -17 9 -2 1 9 7 17 14
18 6 0 3 4 -8 9 -15 7 -8 9 30 11 46 1 47 2 15 8 -23 4 -31 9 -22 14 6 5 17 5
22 2 6 -3 10 1 10 11 0 13 3 14 14 5 12 -10 17 -8 25 7 10 18 6 20 -37 27 -68
10 -92 16 -92 25 0 5 10 11 23 13 19 4 18 4 -5 6 -32 1 -39 21 -8 21 33 0 6
40 -28 42 -18 0 -11 3 18 8 38 6 41 8 23 15 -26 8 -31 25 -8 25 9 0 12 6 9 15
-4 8 -1 22 6 30 10 13 8 15 -14 15 -14 0 -26 5 -26 10 0 6 6 10 13 9 29 -4 42
2 22 11 -18 8 -18 9 5 10 14 1 19 4 13 7 -7 2 -13 11 -13 18 0 7 -5 15 -10 17
-6 2 -2 13 10 26 l21 22 -23 1 c-22 1 -22 1 2 9 14 4 19 8 11 9 -7 1 -11 7 -7
16 3 9 0 15 -10 15 -12 0 -12 2 -2 14 8 8 15 10 19 4 3 -5 9 -3 12 6 4 9 2 16
-4 16 -6 0 -7 5 -4 10 4 6 -5 10 -19 10 -14 0 -26 4 -26 8 0 5 10 8 21 8 13
-1 23 6 24 17 2 9 -1 17 -6 17 -5 0 -9 -5 -9 -11 0 -6 -7 -4 -15 5 -21 20 -19
29 5 23 11 -3 20 -1 20 3 0 5 -10 11 -22 13 -22 4 -22 4 2 6 23 2 24 3 5 11
-18 8 -18 9 5 10 23 1 23 2 5 10 -19 8 -19 9 3 9 13 1 20 5 17 11 -3 6 3 10
14 10 28 0 27 18 -1 23 -20 4 -20 5 5 7 56 5 63 4 95 -9 28 -12 35 -12 42 -1
12 20 -11 41 -29 26 -11 -8 -13 -8 -8 1 8 13 -31 27 -102 38 -29 5 -39 10 -30
15 7 5 16 7 19 5 3 -2 7 33 8 78 1 44 4 82 6 84 2 2 16 -3 32 -12 25 -13 26
-15 8 -15 -12 0 -25 -7 -28 -16 -8 -22 -8 -24 7 -24 17 0 38 -45 31 -65 -4 -8
-1 -15 5 -15 7 0 11 25 11 70 0 39 3 70 7 70 3 0 14 -7 24 -16 12 -11 27 -14
45 -10 25 7 26 8 9 27 -22 24 -77 39 -175 49 -66 6 -69 7 -24 9 49 1 51 2 46
26 -2 14 -9 25 -14 25 -5 0 -6 5 -2 11 4 8 -1 9 -15 4 -20 -6 -21 -5 -9 14 7
12 18 21 25 21 17 0 25 37 20 91 -2 24 -5 37 -6 29z m-31 -356 c17 -43 13 -54
-20 -54 -27 0 -30 3 -30 33 0 19 3 37 7 40 14 15 34 6 43 -19z m-43 -440 c-3
-3 -12 -4 -19 -1 -8 3 -5 6 6 6 11 1 17 -2 13 -5z m23 -24 c0 -5 -7 -7 -15 -4
-8 4 -15 8 -15 10 0 2 7 4 15 4 8 0 15 -4 15 -10z m-50 -240 c0 -5 -7 -10 -15
-10 -8 0 -15 5 -15 10 0 6 7 10 15 10 8 0 15 -4 15 -10z m10 -190 c0 -5 -2
-10 -4 -10 -3 0 -8 5 -11 10 -3 6 -1 10 4 10 6 0 11 -4 11 -10z m-30 -174 c0
-3 -4 -8 -10 -11 -5 -3 -10 -1 -10 4 0 6 5 11 10 11 6 0 10 -2 10 -4z m15 -94
c-3 -3 -11 0 -18 7 -9 10 -8 11 6 5 10 -3 15 -9 12 -12z m-25 -22 c0 -5 -7 -7
-15 -4 -8 4 -15 8 -15 10 0 2 7 4 15 4 8 0 15 -4 15 -10z m43 3 c-7 -2 -19 -2
-25 0 -7 3 -2 5 12 5 14 0 19 -2 13 -5z m-23 -83 c0 -5 -4 -10 -9 -10 -6 0
-13 5 -16 10 -3 6 1 10 9 10 9 0 16 -4 16 -10z m20 -60 c0 -5 -5 -10 -11 -10
-5 0 -7 5 -4 10 3 6 8 10 11 10 2 0 4 -4 4 -10z m-53 -6 c-3 -3 -12 -4 -19 -1
-8 3 -5 6 6 6 11 1 17 -2 13 -5z m23 -34 c0 -13 -5 -18 -15 -14 -16 7 -19 17
-8 27 12 13 23 7 23 -13z m-55 -160 c3 -5 1 -10 -4 -10 -6 0 -11 5 -11 10 0 6
2 10 4 10 3 0 8 -4 11 -10z m55 0 c0 -5 -7 -10 -16 -10 -8 0 -12 5 -9 10 3 6
10 10 16 10 5 0 9 -4 9 -10z m-35 -30 c-3 -5 -15 -10 -25 -10 -10 0 -22 5 -25
10 -4 6 7 10 25 10 18 0 29 -4 25 -10z m-45 -55 c0 -5 -5 -3 -10 5 -5 8 -10
20 -10 25 0 6 5 3 10 -5 5 -8 10 -19 10 -25z m67 29 c-3 -3 -12 -4 -19 -1 -8
3 -5 6 6 6 11 1 17 -2 13 -5z m-30 -80 c-3 -3 -12 -4 -19 -1 -8 3 -5 6 6 6 11
1 17 -2 13 -5z m-47 -64 c0 -5 -2 -10 -4 -10 -3 0 -8 5 -11 10 -3 6 -1 10 4
10 6 0 11 -4 11 -10z m72 -22 c-9 -9 -15 -9 -24 0 -9 9 -7 12 12 12 19 0 21
-3 12 -12z m-32 -138 c0 -5 -10 -10 -22 -10 -19 0 -20 2 -8 10 19 13 30 13 30
0z m0 -40 c0 -5 -8 -10 -17 -10 -15 0 -16 2 -3 10 19 12 20 12 20 0z m-47 -17
c-4 -11 -3 -14 5 -9 7 4 12 2 12 -3 0 -19 -28 -12 -33 9 -3 13 0 20 9 20 8 0
11 -6 7 -17z m-3 -37 c0 -3 -4 -8 -10 -11 -5 -3 -10 -1 -10 4 0 6 5 11 10 11
6 0 10 -2 10 -4z m50 -16 c0 -11 -4 -20 -10 -20 -5 0 -10 9 -10 20 0 11 5 20
10 20 6 0 10 -9 10 -20z m5593 -43 c29 -2 22 -4 -23 -5 -44 0 -59 2 -45 8 18
8 18 9 -5 10 l-25 2 25 7 c17 5 26 3 28 -5 2 -7 22 -15 45 -17z m-687 -34
c-10 -11 -106 -11 -112 -1 -3 4 23 8 57 8 34 0 59 -3 55 -7z m54 -2 c0 -5 -9
-7 -20 -4 -11 3 -20 7 -20 9 0 2 9 4 20 4 11 0 20 -4 20 -9z m-4970 -41 c0 -5
20 -10 45 -10 45 0 45 0 45 -35 0 -38 -24 -50 -34 -17 -7 21 -1 -22 9 -65 5
-23 4 -33 -4 -33 -7 0 -9 5 -6 10 3 6 -2 13 -12 17 -10 4 -21 11 -24 16 -9 13
-31 -2 -23 -15 4 -6 -2 -6 -15 1 -11 7 -21 8 -22 4 0 -4 -2 -18 -3 -30 -3 -24
8 -31 19 -13 10 17 44 11 57 -9 11 -18 13 -18 25 -3 18 24 16 4 -6 -58 l-20
-55 -48 -2 c-73 -2 -95 5 -83 27 6 10 10 35 10 54 0 25 4 36 15 36 10 0 15 11
15 35 0 41 -19 48 -21 8 -2 -28 -2 -28 -6 -3 -3 14 -10 28 -17 32 -8 6 -8 8 2
8 6 0 12 8 12 18 0 14 2 15 10 2 7 -10 8 -1 4 31 l-6 47 31 -4 c17 -2 31 1 31
6 0 6 5 10 10 10 6 0 10 -4 10 -10z m573 3 c-7 -2 -19 -2 -25 0 -7 3 -2 5 12
5 14 0 19 -2 13 -5z m1707 -5 c0 -5 -13 -8 -28 -8 -15 0 -33 -5 -40 -12 -8 -8
-15 -8 -27 2 -27 22 -16 30 40 27 30 -1 55 -5 55 -9z m2617 6 c-3 -3 -12 -4
-19 -1 -8 3 -5 6 6 6 11 1 17 -2 13 -5z m26 -21 c-7 -2 -21 -2 -30 0 -10 3 -4
5 12 5 17 0 24 -2 18 -5z m-2660 -10 c-7 -2 -19 -2 -25 0 -7 3 -2 5 12 5 14 0
19 -2 13 -5z m-13 -23 c0 -13 -11 -13 -30 0 -12 8 -11 10 8 10 12 0 22 -4 22
-10z m-2380 -15 c0 -8 -4 -15 -10 -15 -5 0 -7 7 -4 15 4 8 8 15 10 15 2 0 4
-7 4 -15z m5197 9 c-3 -3 -12 -4 -19 -1 -8 3 -5 6 6 6 11 1 17 -2 13 -5z
m-5200 -50 c-3 -3 -12 -4 -19 -1 -8 3 -5 6 6 6 11 1 17 -2 13 -5z m2340 -12
c14 -9 5 -26 -19 -35 -13 -5 -18 -1 -18 12 0 29 14 38 37 23z m41 -23 c-10 -5
-18 -19 -18 -29 0 -19 -29 -28 -43 -13 -8 7 51 53 67 53 6 0 3 -5 -6 -11z
m-1553 -9 c3 -5 -3 -10 -15 -10 -12 0 -18 5 -15 10 3 6 10 10 15 10 5 0 12 -4
15 -10z m1434 -31 c18 -15 20 -19 7 -19 -9 0 -19 -7 -23 -16 -3 -8 -12 -13
-19 -10 -8 3 -20 -7 -29 -24 -22 -42 -45 -39 -45 5 0 46 33 83 58 63 15 -12
16 -11 3 4 -7 10 -18 15 -24 11 -6 -3 -7 -1 -3 6 9 14 42 6 75 -20z m-2263 12
c8 7 17 9 21 5 3 -3 1 -6 -7 -6 -9 0 -10 -3 -2 -13 7 -8 8 -24 4 -40 -6 -21
-10 -24 -22 -16 -11 8 -12 12 -2 16 16 6 16 24 0 21 -7 -2 -14 8 -15 22 -1 14
0 19 3 12 5 -10 9 -10 20 -1z m-26 -41 c0 -5 -4 -10 -10 -10 -5 0 -10 5 -10
10 0 6 5 10 10 10 6 0 10 -4 10 -10z m-67 -35 c4 -8 2 -17 -3 -20 -6 -4 -10 3
-10 14 0 25 6 27 13 6z m48 -32 c-10 -17 -10 -17 -11 0 0 9 -6 17 -12 18 -7 0
-4 4 7 8 24 10 30 -1 16 -26z m1354 -113 c3 -6 -1 -7 -9 -4 -13 5 -15 0 -10
-27 3 -19 7 -40 10 -46 8 -29 -13 -10 -29 25 -16 35 -16 38 0 50 20 15 30 15
38 2z m-265 -32 c0 -19 -2 -20 -10 -8 -13 19 -13 30 0 30 6 0 10 -10 10 -22z
m1099 0 c0 -13 -4 -32 -9 -43 -8 -18 -9 -17 -9 7 -1 14 -4 33 -7 42 -4 11 -1
16 10 16 10 0 16 -8 15 -22z m41 -15 c-11 -17 -11 -17 -6 0 3 10 6 24 7 30 0
9 2 9 5 0 3 -7 0 -20 -6 -30z m1587 15 c-3 -8 -6 -5 -6 6 -1 11 2 17 5 13 3
-3 4 -12 1 -19z m-3177 -20 c0 -30 -14 -38 -24 -12 -10 26 -7 41 9 41 10 0 15
-10 15 -29z m1321 -14 l-9 -39 -1 36 c-1 20 2 39 6 42 12 13 13 0 4 -39z
m3147 39 c-10 -2 -26 -2 -35 0 -10 3 -2 5 17 5 19 0 27 -2 18 -5z m125 0 c-18
-2 -48 -2 -65 0 -18 2 -4 4 32 4 36 0 50 -2 33 -4z m110 0 c-13 -2 -33 -2 -45
0 -13 2 -3 4 22 4 25 0 35 -2 23 -4z m-5425 -10 c-16 -2 -40 -2 -55 0 -16 2
-3 4 27 4 30 0 43 -2 28 -4z m5759 1 c-3 -3 -12 -4 -19 -1 -8 3 -5 6 6 6 11 1
17 -2 13 -5z m116 -1 c-18 -2 -48 -2 -65 0 -18 2 -4 4 32 4 36 0 50 -2 33 -4z
m130 0 c-13 -2 -35 -2 -50 0 -16 2 -5 4 22 4 28 0 40 -2 28 -4z m-4350 -40
c-8 -56 -20 -61 -19 -8 1 27 6 45 13 45 8 0 10 -12 6 -37z m2608 -5 c0 -24 2
-55 4 -70 2 -15 -2 -29 -9 -31 -8 -3 -13 8 -14 32 -2 20 -5 53 -7 74 -4 28 -1
37 10 37 11 0 15 -12 16 -42z m-2881 12 c0 -11 -4 -20 -9 -20 -5 0 -7 9 -4 20
3 11 7 20 9 20 2 0 4 -9 4 -20z m544 -58 c-4 -34 -11 -62 -16 -62 -5 0 -7 12
-4 28 2 15 5 47 5 72 1 29 4 41 11 34 6 -6 8 -35 4 -72z m-754 52 c0 -8 -4
-12 -10 -9 -5 3 -10 10 -10 16 0 5 5 9 10 9 6 0 10 -7 10 -16z m679 -21 c-5
-21 -9 -55 -9 -75 0 -26 -6 -40 -19 -47 -16 -9 -20 -7 -23 12 -6 30 1 47 18
47 10 0 14 13 14 43 0 24 3 47 7 50 16 16 20 4 12 -30z m-1169 -4 c0 -6 -4 -7
-10 -4 -5 3 -10 11 -10 16 0 6 5 7 10 4 6 -3 10 -11 10 -16z m1850 1 c0 -5
-12 -10 -27 -9 -25 0 -26 1 -8 9 27 12 35 12 35 0z m-1971 -53 c-1 -31 -1 -31
-9 -7 -11 36 -11 52 0 45 6 -3 10 -21 9 -38z m206 -7 c-9 -24 -13 -50 -11 -56
3 -7 -2 -15 -11 -18 -29 -12 -28 -5 14 92 21 47 26 34 8 -18z m405 29 c0 -11
-4 -18 -10 -14 -5 3 -7 12 -3 20 7 21 13 19 13 -6z m252 -31 c5 -57 2 -70 -11
-49 -11 18 -12 101 -2 101 5 0 11 -24 13 -52z m388 32 c0 -11 -4 -20 -9 -20
-5 0 -7 9 -4 20 3 11 7 20 9 20 2 0 4 -9 4 -20z m-1160 -35 c0 -45 -7 -45 -12
0 -2 19 0 35 4 35 4 0 8 -16 8 -35z m-337 8 c-7 -2 -19 -2 -25 0 -7 3 -2 5 12
5 14 0 19 -2 13 -5z m2127 -7 c0 -2 -9 -6 -20 -9 -11 -3 -20 -1 -20 4 0 5 9 9
20 9 11 0 20 -2 20 -4z m-803 -28 c-3 -8 -6 -5 -6 6 -1 11 2 17 5 13 3 -3 4
-12 1 -19z m-1587 -8 c0 -5 -9 -10 -20 -10 -11 0 -20 5 -20 10 0 6 9 10 20 10
11 0 20 -4 20 -10z m3381 -17 c13 -16 12 -17 -3 -4 -10 7 -18 15 -18 17 0 8 8
3 21 -13z m-2846 -3 c18 -8 17 -9 -7 -9 -16 -1 -28 4 -28 9 0 12 8 12 35 0z
m4745 -10 c12 -8 9 -10 -12 -7 -15 1 -30 6 -34 10 -11 11 29 8 46 -3z m78 3
c-10 -2 -28 -2 -40 0 -13 2 -5 4 17 4 22 1 32 -1 23 -4z m47 -3 c3 -5 -1 -10
-9 -10 -9 0 -16 5 -16 10 0 6 4 10 9 10 6 0 13 -4 16 -10z m385 -11 c0 -6 -19
-9 -50 -7 -70 6 -75 18 -7 18 34 0 57 -4 57 -11z m280 1 c10 -7 -30 -10 -122
-10 -81 0 -139 4 -143 10 -8 13 245 13 265 0z m-2293 -6 c-3 -3 -12 -4 -19 -1
-8 3 -5 6 6 6 11 1 17 -2 13 -5z"/>
<path d="M293 617 c-2 -4 27 -7 66 -5 39 1 71 6 71 11 0 10 -130 5 -137 -6z"/>
<path d="M350 559 c0 -5 5 -7 10 -4 6 3 10 8 10 11 0 2 -4 4 -10 4 -5 0 -10
-5 -10 -11z"/>
<path d="M5881 3085 c-6 -68 -9 -79 -24 -90 -19 -14 -23 -30 -5 -19 7 4 8 3 4
-5 -4 -6 -11 -9 -16 -6 -14 9 -48 -34 -55 -71 -3 -19 -12 -34 -19 -34 -13 0
-53 -38 -45 -43 2 -2 16 -8 32 -15 17 -7 27 -19 27 -33 0 -15 5 -19 15 -15 11
4 15 -2 15 -24 0 -41 16 -38 24 5 5 26 12 35 26 35 18 0 25 -11 21 -32 0 -5 4
-8 11 -8 6 0 1 -9 -12 -20 -13 -11 -36 -20 -51 -20 -19 0 -39 -11 -59 -31 -34
-36 -38 -64 -12 -78 10 -5 19 -22 20 -37 1 -15 7 -31 13 -35 8 -4 7 -8 -2 -12
-9 -3 -7 -6 6 -6 11 -1 27 -6 35 -11 11 -7 5 -9 -20 -5 -27 4 -30 3 -15 -4 17
-8 18 -10 3 -10 -10 -1 -18 -5 -18 -11 0 -12 22 -13 36 -2 5 4 0 -1 -11 -12
-17 -16 -20 -31 -21 -110 -1 -74 2 -92 15 -98 14 -6 14 -7 -1 -7 -14 -1 -18
-10 -18 -45 0 -38 3 -45 23 -49 l22 -4 -23 -8 c-22 -7 -26 -33 -7 -47 6 -5 5
-8 -2 -8 -7 0 -13 -5 -13 -11 0 -5 4 -8 9 -4 5 3 12 1 16 -5 3 -5 -1 -10 -9
-10 -19 0 -21 -16 -4 -26 7 -5 -1 -12 -22 -19 -27 -9 -35 -18 -37 -41 -3 -22
2 -31 19 -39 13 -6 22 -16 21 -23 -2 -7 1 -12 6 -12 5 0 7 -10 4 -22 -4 -19
-3 -20 6 -8 8 12 11 12 11 1 0 -9 8 -12 25 -9 13 3 22 1 19 -3 -3 -5 -18 -9
-33 -9 l-28 0 0 -137 c-1 -92 3 -140 11 -145 8 -6 7 -8 -1 -8 -9 0 -13 -18
-13 -56 l0 -56 35 6 c25 5 40 3 50 -8 22 -22 19 -26 -22 -25 -34 1 -35 2 -13
9 22 7 21 8 -12 9 -34 1 -38 -2 -38 -24 0 -20 -5 -25 -27 -26 -16 0 -22 -3
-15 -6 10 -4 10 -8 0 -20 -10 -13 -8 -19 14 -37 15 -11 30 -33 33 -47 6 -24
11 -27 43 -24 20 1 24 0 9 -2 -23 -4 -26 -7 -16 -19 9 -11 7 -14 -12 -15 -13
0 -18 -3 -11 -6 6 -2 12 -11 12 -19 0 -10 8 -12 30 -8 19 4 30 2 30 -5 0 -6
-13 -11 -30 -11 -16 0 -30 -4 -30 -9 0 -5 10 -7 23 -4 13 4 19 2 14 -3 -9 -9
-13 -10 -42 -13 -8 0 -15 -10 -15 -21 0 -16 7 -20 38 -21 l37 -1 -40 -13 c-22
-7 -32 -13 -23 -14 11 -1 15 -6 12 -16 -5 -11 -2 -13 10 -9 9 3 16 12 16 20 0
8 5 14 11 14 13 0 1 -42 -15 -52 -6 -5 -2 -8 12 -8 12 0 22 -4 22 -10 0 -5
-15 -10 -34 -10 -32 0 -35 3 -39 33 -3 22 -4 15 -5 -20 -2 -47 0 -53 18 -53
11 0 20 -4 20 -10 0 -5 -9 -10 -20 -10 -11 0 -20 -4 -20 -9 0 -5 21 -5 47 0
26 5 53 7 60 4 21 -7 43 6 43 26 0 10 -7 19 -15 19 -8 0 -15 5 -15 11 0 6 10
10 23 9 12 -1 38 -1 57 0 29 1 32 3 15 10 -16 7 -14 9 14 9 19 1 32 4 28 7 -3
4 -24 6 -47 6 -22 0 -40 3 -40 9 0 5 17 9 39 9 30 0 40 4 44 20 5 18 0 20 -39
20 -44 0 -60 14 -26 23 10 3 7 5 -10 6 -20 1 -26 -3 -22 -14 5 -11 -1 -15 -22
-15 l-28 0 31 29 c18 16 29 32 26 35 -4 3 1 6 11 6 9 0 14 5 11 10 -4 6 -11 8
-16 5 -5 -4 -17 -1 -26 4 -15 8 -10 11 22 12 35 1 37 2 15 9 l-25 8 25 1 c21
1 22 3 8 11 -18 11 -48 4 -48 -11 0 -5 -8 -9 -17 -9 -17 1 -17 1 -1 11 11 6
15 16 11 26 -5 12 -2 15 10 10 11 -4 17 -1 17 8 0 11 12 15 48 15 29 0 42 3
34 9 -10 6 -4 11 20 16 l33 8 -40 7 -40 7 40 2 c29 1 36 4 25 11 -11 7 -9 8
11 6 13 -1 29 -5 34 -8 6 -3 19 3 29 13 18 18 18 19 -8 29 -15 5 -43 10 -61
10 -21 0 -37 6 -43 16 -6 11 -17 15 -31 11 -11 -3 -23 -1 -26 3 -3 4 -23 7
-45 5 -33 -3 -40 0 -40 15 0 10 -6 21 -12 23 -8 3 -6 6 5 6 9 1 17 -3 17 -8 0
-12 39 -21 46 -10 3 5 -1 9 -9 9 -8 0 -18 7 -21 16 -3 8 -10 12 -16 9 -5 -3
-10 -1 -10 4 0 20 32 11 57 -15 13 -15 31 -24 41 -21 15 4 15 5 -2 6 -16 1
-17 3 -5 17 12 15 11 16 -8 10 -12 -4 -24 -2 -28 4 -4 6 9 10 35 10 25 0 39 4
35 10 -4 6 -11 8 -16 5 -5 -4 -9 4 -9 16 0 22 -1 22 -13 4 -9 -11 -19 -15 -27
-10 -10 6 -9 11 5 22 11 7 15 13 9 14 -5 0 0 4 11 9 17 7 14 9 -13 9 -21 1
-31 5 -26 12 3 6 17 8 29 5 15 -4 30 0 39 10 21 20 20 23 -6 34 -18 7 -19 9
-5 9 10 1 17 8 16 19 0 10 -3 12 -6 5 -8 -20 -23 -15 -23 8 0 11 7 28 16 37
14 13 14 17 3 21 -8 2 -17 9 -21 15 -5 8 -8 7 -8 -1 0 -7 -9 -13 -20 -13 -24
0 -27 17 -3 22 16 3 16 4 0 20 -9 9 -17 19 -17 22 0 11 38 6 42 -5 2 -7 9 -5
17 5 12 14 10 16 -15 17 l-29 1 25 8 c14 4 21 8 16 9 -5 1 -3 7 4 15 9 12 8
15 -9 13 -12 -1 -21 -7 -21 -14 0 -20 -24 -15 -38 7 -10 17 -10 20 4 20 8 0
13 -4 9 -9 -3 -5 -1 -12 5 -16 5 -3 10 3 10 14 0 12 -7 21 -15 21 -8 0 -15 5
-15 10 0 15 17 12 47 -7 26 -17 27 -17 20 0 -5 13 -1 17 16 17 18 0 19 2 7 10
-12 8 -8 10 15 11 29 1 29 1 5 9 l-25 7 25 10 c14 6 28 9 33 6 13 -8 47 8 47
22 0 16 -13 21 -74 30 -47 7 -60 20 -28 28 18 5 -55 10 -100 7 -14 -1 -29 3
-33 9 -4 7 13 11 49 11 31 0 56 4 56 10 0 5 -3 9 -7 9 -27 -4 -33 5 -8 11 29
7 29 8 -10 10 -22 1 -49 1 -60 0 -11 -1 -17 1 -13 5 4 4 24 9 45 10 21 2 41 4
46 4 18 2 -20 41 -40 41 -29 0 -30 15 -1 17 11 1 24 6 27 11 3 5 13 12 21 15
8 3 -1 6 -20 7 -19 1 -27 4 -17 7 11 3 16 11 13 19 -3 8 -1 14 4 14 6 0 10 4
10 10 0 5 -6 7 -14 4 -8 -3 -17 -1 -21 5 -4 7 3 11 17 11 17 0 19 3 9 9 -11 7
-11 9 0 14 8 3 4 6 -8 6 -13 1 -23 6 -23 12 0 6 9 9 20 6 11 -3 20 -1 20 4 0
5 -15 10 -32 10 -27 1 -28 3 -9 6 18 4 21 7 10 13 -11 7 -9 13 10 29 l24 21
-24 1 c-21 1 -20 2 6 9 17 4 22 8 13 9 -12 1 -15 6 -11 18 5 12 2 15 -10 10
-9 -3 -17 -2 -17 3 0 6 5 10 11 10 5 0 8 4 4 9 -3 5 -1 12 5 16 18 11 11 34
-10 30 -11 -2 -22 0 -25 6 -4 5 6 10 22 10 23 2 24 2 6 6 -13 2 -23 9 -23 15
0 6 9 8 19 5 14 -3 21 2 26 20 4 19 11 24 25 20 11 -3 18 -1 14 4 -3 5 -15 9
-27 9 -20 1 -20 2 -5 11 10 5 30 9 45 7 22 -2 29 1 31 20 2 14 -2 22 -12 23
-25 2 -30 4 -43 12 -7 5 -17 5 -23 2 -5 -3 -10 0 -10 8 0 10 7 13 20 10 18 -5
20 0 20 60 0 68 -11 91 -29 60 -8 -14 -10 -15 -11 -3 0 31 16 43 39 31 18 -10
26 -8 47 8 l25 19 -38 13 c-21 7 -59 12 -85 11 -27 0 -48 4 -48 9 0 6 12 10
28 9 15 -1 30 -2 35 -1 12 2 -21 58 -43 74 -11 7 -17 17 -13 20 3 4 -2 7 -13
7 -10 0 -15 4 -9 8 6 4 8 28 4 57 -4 35 -7 41 -8 20z m79 -320 c0 -18 16 -20
23 -2 3 6 6 -7 6 -30 1 -47 -4 -52 -26 -25 -8 9 -12 11 -8 5 4 -9 -3 -13 -25
-13 -28 0 -30 2 -24 28 3 15 7 33 10 40 5 17 44 15 44 -3z m-140 -229 c0 -3
-4 -8 -10 -11 -5 -3 -10 -1 -10 4 0 6 5 11 10 11 6 0 10 -2 10 -4z m110 -76
c0 -5 -5 -10 -11 -10 -5 0 -7 5 -4 10 3 6 8 10 11 10 2 0 4 -4 4 -10z m-33
-56 c-3 -3 -12 -4 -19 -1 -8 3 -5 6 6 6 11 1 17 -2 13 -5z m-87 -28 c0 -3 -4
-8 -10 -11 -5 -3 -10 -1 -10 4 0 6 5 11 10 11 6 0 10 -2 10 -4z m110 -36 c0
-5 -7 -10 -15 -10 -8 0 -15 5 -15 10 0 6 7 10 15 10 8 0 15 -4 15 -10z m-20
-24 c0 -2 -7 -6 -15 -10 -8 -3 -15 -1 -15 4 0 6 7 10 15 10 8 0 15 -2 15 -4z
m20 -26 c0 -5 -7 -10 -15 -10 -8 0 -15 5 -15 10 0 6 7 10 15 10 8 0 15 -4 15
-10z m-80 -10 c0 -5 -5 -10 -11 -10 -5 0 -7 5 -4 10 3 6 8 10 11 10 2 0 4 -4
4 -10z m37 -46 c-3 -3 -12 -4 -19 -1 -8 3 -5 6 6 6 11 1 17 -2 13 -5z m63 -18
c0 -2 -7 -6 -15 -10 -8 -3 -15 -1 -15 4 0 6 7 10 15 10 8 0 15 -2 15 -4z m-83
-12 c-3 -3 -12 -4 -19 -1 -8 3 -5 6 6 6 11 1 17 -2 13 -5z m-20 -30 c-3 -3
-12 -4 -19 -1 -8 3 -5 6 6 6 11 1 17 -2 13 -5z m57 -12 c-7 -4 -14 -16 -17
-27 -4 -15 -5 -14 -6 8 -1 20 4 27 17 27 11 0 13 -3 6 -8z m56 4 c0 -9 -30
-14 -35 -6 -4 6 3 10 14 10 12 0 21 -2 21 -4z m-45 -56 c3 -5 1 -10 -4 -10 -6
0 -11 5 -11 10 0 6 2 10 4 10 3 0 8 -4 11 -10z m35 0 c0 -5 -4 -10 -10 -10 -5
0 -10 5 -10 10 0 6 5 10 10 10 6 0 10 -4 10 -10z m-60 -64 c0 -2 -11 -6 -25
-8 -14 -3 -25 -1 -25 3 0 5 11 9 25 9 14 0 25 -2 25 -4z m-20 -26 c0 -5 -8
-10 -17 -10 -15 0 -16 2 -3 10 19 12 20 12 20 0z m80 -24 c0 -3 -4 -8 -10 -11
-5 -3 -10 -1 -10 4 0 6 5 11 10 11 6 0 10 -2 10 -4z m-42 -143 c-10 -2 -26 -2
-35 0 -10 3 -2 5 17 5 19 0 27 -2 18 -5z m-31 -49 c-3 -3 -12 -4 -19 -1 -8 3
-5 6 6 6 11 1 17 -2 13 -5z m40 0 c-3 -3 -12 -4 -19 -1 -8 3 -5 6 6 6 11 1 17
-2 13 -5z m-11 -28 c18 -19 18 -26 -1 -26 -8 0 -15 7 -15 16 0 9 -5 12 -12 8
-7 -4 -8 -3 -4 4 9 15 14 15 32 -2z m37 7 c-7 -2 -19 -2 -25 0 -7 3 -2 5 12 5
14 0 19 -2 13 -5z m-83 -51 c0 -5 -7 -9 -15 -9 -8 0 -15 4 -15 9 0 4 7 8 15 8
8 0 15 -4 15 -8z m-17 -23 c21 0 21 -1 2 -9 -29 -13 -31 -12 -32 13 0 12 1 16
4 10 3 -7 14 -13 26 -14z m75 -7 c-10 -2 -18 -10 -18 -18 0 -8 -8 -14 -17 -13
-11 0 -13 3 -5 6 6 2 12 11 12 18 0 15 20 25 35 16 6 -3 2 -7 -7 -9z m-58 -28
c0 -2 -7 -4 -15 -4 -8 0 -15 4 -15 10 0 5 7 7 15 4 8 -4 15 -8 15 -10z m104
-29 c-26 -20 -33 -18 -27 4 5 21 35 33 42 18 1 -4 -5 -15 -15 -22z m-34 11 c0
-9 -30 -14 -35 -6 -4 6 3 10 14 10 12 0 21 -2 21 -4z m-110 -36 c0 -5 -4 -10
-10 -10 -5 0 -10 5 -10 10 0 6 5 10 10 10 6 0 10 -4 10 -10z m77 4 c-3 -3 -12
-4 -19 -1 -8 3 -5 6 6 6 11 1 17 -2 13 -5z m30 -20 c-3 -3 -23 -8 -44 -10 -31
-3 -34 -2 -13 5 30 11 66 14 57 5z m46 -1 c-7 -2 -19 -2 -25 0 -7 3 -2 5 12 5
14 0 19 -2 13 -5z m37 -25 c0 -4 -9 -8 -21 -8 -11 0 -18 4 -15 8 3 5 12 9 21
9 8 0 15 -4 15 -9z m-160 -7 c0 -5 -11 -11 -25 -13 -28 -6 -35 8 -7 15 28 8
32 7 32 -2z m97 3 c-3 -3 -12 -4 -19 -1 -8 3 -5 6 6 6 11 1 17 -2 13 -5z m-67
-28 c0 -2 -7 -6 -15 -10 -8 -3 -15 -1 -15 4 0 6 7 10 15 10 8 0 15 -2 15 -4z
m30 -26 c0 -5 -10 -10 -22 -9 -22 0 -22 1 -3 9 11 5 21 9 23 9 1 1 2 -3 2 -9z
m50 1 c0 -5 -9 -7 -20 -4 -11 3 -20 7 -20 9 0 2 9 4 20 4 11 0 20 -4 20 -9z
m-100 -5 c0 -2 -13 -6 -30 -8 -16 -3 -30 -1 -30 4 0 4 14 8 30 8 17 0 30 -2
30 -4z m20 -32 c0 -8 -6 -11 -15 -8 -8 4 -15 9 -15 13 0 4 7 8 15 8 8 0 15 -6
15 -13z m60 7 c0 -15 -38 -20 -44 -5 -4 10 2 14 19 14 14 0 25 -4 25 -9z m-70
-41 c-8 -5 -24 -9 -35 -9 l-20 0 20 9 c11 5 27 9 35 9 13 1 13 0 0 -9z m50
-250 c0 -5 -2 -10 -4 -10 -3 0 -8 5 -11 10 -3 6 -1 10 4 10 6 0 11 -4 11 -10z
m-63 -26 c-3 -3 -12 -4 -19 -1 -8 3 -5 6 6 6 11 1 17 -2 13 -5z m60 -20 c-3
-3 -12 -4 -19 -1 -8 3 -5 6 6 6 11 1 17 -2 13 -5z m-87 -64 c0 -5 -2 -10 -4
-10 -3 0 -8 5 -11 10 -3 6 -1 10 4 10 6 0 11 -4 11 -10z m77 4 c-3 -3 -12 -4
-19 -1 -8 3 -5 6 6 6 11 1 17 -2 13 -5z m83 -54 c0 -5 -18 -10 -41 -10 -22 0
-38 4 -35 8 7 12 76 14 76 2z m-30 -28 c0 -5 -7 -9 -15 -9 -8 0 -15 4 -15 9 0
4 7 8 15 8 8 0 15 -4 15 -8z m-37 -29 c-7 -2 -19 -2 -25 0 -7 3 -2 5 12 5 14
0 19 -2 13 -5z m-68 -33 c-3 -5 -15 -10 -26 -10 -10 0 -19 5 -19 10 0 6 12 10
26 10 14 0 23 -4 19 -10z m72 -26 c-3 -3 -12 -4 -19 -1 -8 3 -5 6 6 6 11 1 17
-2 13 -5z"/>
<path d="M2955 2940 c-3 -5 3 -10 15 -10 12 0 18 5 15 10 -3 6 -10 10 -15 10
-5 0 -12 -4 -15 -10z"/>
<path d="M3035 2930 c3 -5 8 -10 11 -10 2 0 4 5 4 10 0 6 -5 10 -11 10 -5 0
-7 -4 -4 -10z"/>
<path d="M3070 2910 c0 -5 4 -10 9 -10 6 0 13 5 16 10 3 6 -1 10 -9 10 -9 0
-16 -4 -16 -10z"/>
<path d="M2937 2899 c-10 -6 -24 -8 -32 -5 -8 3 -15 1 -17 -3 -2 -5 -14 -12
-27 -16 -18 -5 -22 -4 -16 6 7 12 5 12 -6 1 -12 -11 -12 -14 1 -22 13 -8 13
-10 -1 -10 -9 0 -22 -7 -29 -15 -11 -13 -10 -14 3 -10 8 4 18 2 22 -4 3 -6 -1
-12 -9 -12 -29 -3 -34 -4 -42 -11 -4 -5 -2 -8 4 -8 7 0 12 -5 12 -12 0 -9 -3
-9 -12 0 -16 16 -28 15 -28 -2 0 -16 -39 -48 -50 -41 -8 5 -1 -77 7 -85 3 -3
4 11 3 30 -3 49 0 58 10 35 9 -22 3 -64 -12 -80 -5 -5 -16 -10 -26 -10 -14 0
-16 -8 -14 -38 3 -27 -1 -42 -13 -50 -18 -14 -29 -73 -14 -82 15 -10 10 -23
-12 -30 -14 -5 -18 -12 -13 -23 3 -10 10 -30 14 -47 4 -16 8 -22 9 -13 1 9 5
19 10 22 4 3 6 -5 4 -18 -3 -13 0 -26 5 -30 7 -4 7 -17 0 -40 -11 -36 -6 -66
12 -66 5 0 10 8 10 17 0 16 1 15 13 -1 18 -25 48 -11 43 20 -6 30 2 31 14 2 6
-16 9 -18 9 -7 1 9 7 22 15 28 11 9 12 6 8 -16 -5 -32 13 -21 21 12 4 19 5 18
16 -5 11 -23 11 -23 7 -2 -3 16 1 22 14 22 11 0 19 -9 22 -23 4 -22 0 -24 -63
-35 -87 -15 -156 -42 -137 -53 10 -7 10 -9 1 -9 -7 0 -13 -9 -13 -20 0 -11 5
-20 11 -20 6 0 27 -7 46 -17 20 -9 38 -12 41 -7 12 16 56 35 82 35 49 1 90 10
90 20 0 6 -3 8 -8 5 -4 -2 -16 2 -27 10 -17 13 -15 14 23 14 23 0 42 -4 42
-10 0 -5 -6 -10 -12 -10 -9 0 -8 -3 2 -10 8 -5 42 -6 75 -3 33 3 86 6 117 7
32 0 58 4 58 9 0 4 -5 7 -11 7 -5 0 -8 4 -4 9 3 5 -7 12 -22 14 -16 2 -3 4 29
4 43 0 55 -3 51 -14 -3 -7 -12 -13 -21 -13 -8 0 -12 -3 -8 -7 10 -11 90 -9 98
2 5 6 8 5 8 -2 0 -7 7 -13 15 -13 8 0 15 5 15 12 0 6 -3 8 -7 5 -6 -7 -33 11
-33 22 0 7 181 5 275 -2 45 -4 52 -3 30 4 -49 14 -270 35 -395 38 -63 1 -117
4 -119 7 -2 2 46 4 107 4 61 0 113 4 117 10 3 5 -12 7 -40 3 l-45 -5 6 31 c4
20 3 31 -5 31 -6 0 -11 -11 -11 -24 0 -25 -16 -36 -56 -36 -20 0 -24 5 -24 30
0 17 -4 30 -10 30 -5 0 -10 -13 -10 -28 0 -21 -5 -28 -21 -29 -12 -1 -26 -8
-32 -16 -9 -11 -43 -16 -117 -20 -58 -3 -89 -2 -70 2 32 6 33 7 12 15 -25 8
-28 46 -4 54 7 2 10 -2 6 -11 -3 -8 -1 -18 5 -22 7 -3 11 2 11 14 0 29 30 27
31 -1 1 -21 2 -21 6 -3 8 33 23 42 29 17 8 -27 19 -29 21 -2 1 11 -3 20 -9 20
-6 0 -9 3 -6 6 10 9 48 -15 48 -31 0 -19 -18 -28 -70 -36 -45 -6 -44 -6 15 -8
33 0 67 4 75 9 13 8 13 10 -2 10 -14 0 -16 4 -8 25 6 16 6 33 -1 47 -8 20 -9
19 -4 -7 4 -22 3 -26 -5 -15 -16 25 -12 50 9 50 14 0 18 -5 14 -20 -3 -11 -1
-20 5 -20 5 0 13 -12 17 -27 l8 -28 7 25 c3 14 2 29 -4 33 -6 5 0 5 13 2 16
-5 21 -4 17 4 -5 7 -1 9 8 5 10 -4 16 -1 16 7 1 8 9 -4 20 -26 12 -25 19 -33
20 -21 0 11 3 17 6 13 4 -3 12 -1 20 6 45 41 48 42 41 24 -3 -9 -2 -17 4 -17
5 0 14 -10 19 -22 l9 -23 0 22 c1 12 -3 25 -9 28 -5 3 -10 12 -10 18 0 7 4 6
10 -3 8 -12 12 -12 18 -3 5 9 12 1 21 -23 7 -19 15 -33 18 -31 2 3 0 15 -7 27
-15 29 -4 66 16 49 8 -6 14 -16 14 -21 0 -6 -7 -5 -15 2 -10 9 -15 9 -15 1 0
-6 4 -11 9 -11 5 0 18 -8 27 -17 14 -14 16 -14 12 -3 -3 8 1 22 10 30 14 12
15 11 10 -8 -4 -13 -2 -20 5 -19 6 1 13 -8 15 -20 4 -28 17 -30 19 -4 1 11 -5
22 -13 25 -8 3 -14 10 -14 15 0 6 7 8 15 5 8 -4 15 -2 15 4 0 6 -6 13 -12 15
-9 4 -8 6 2 6 19 1 36 -10 43 -29 4 -12 6 -11 6 3 1 9 7 17 15 17 14 0 29 37
18 44 -19 11 -157 19 -320 18 -141 0 -182 3 -179 13 3 6 1 18 -4 26 -6 10 -9
7 -9 -13 0 -29 -7 -33 -76 -40 -30 -4 -45 4 -58 32 -3 8 -4 3 -1 -11 4 -23 1
-27 -26 -33 -70 -14 -96 7 -59 44 21 21 28 46 10 35 -5 -3 -10 -13 -10 -21 0
-8 -7 -14 -15 -14 -21 0 -19 38 3 43 13 4 12 5 -5 6 -19 1 -21 6 -20 44 1 28
-2 41 -10 40 -17 -4 -26 33 -14 54 9 16 11 15 11 -7 1 -14 4 -19 7 -10 2 8 7
22 10 30 3 8 7 31 9 50 7 60 10 70 23 83 11 10 12 7 7 -18 -18 -77 -19 -95 -2
-95 12 0 16 11 17 43 1 23 3 34 6 25 5 -20 33 -13 33 9 0 8 5 11 10 8 6 -3 10
1 10 9 0 9 -6 13 -14 10 -8 -3 -17 -1 -21 5 -3 6 1 14 9 17 9 3 16 14 16 24 0
10 7 26 16 35 9 8 13 22 10 31 -3 8 -2 12 3 9 5 -3 12 -1 16 5 3 5 19 10 36
10 19 0 29 5 29 15 0 18 0 17 -23 4z m-254 -397 c-6 -23 -23 -21 -23 4 0 8 5
12 10 9 6 -3 10 -1 10 6 0 7 2 10 5 8 2 -3 2 -15 -2 -27z m42 -26 c-1 -12 1
-23 5 -26 13 -9 20 -59 10 -65 -5 -3 -10 1 -10 9 0 19 -26 21 -33 4 -3 -9 -7
-6 -13 6 -5 13 -3 21 4 24 7 2 12 8 12 14 0 6 -7 8 -15 4 -19 -7 -19 13 0 34
21 23 42 21 40 -4z m-73 -78 c-7 -7 -12 -8 -12 -2 0 14 12 26 19 19 2 -3 -1
-11 -7 -17z m793 -28 c-3 -5 -12 -10 -18 -10 -7 0 -6 4 3 10 19 12 23 12 15 0z
m-710 -10 c-3 -5 -14 -10 -23 -9 -14 0 -13 2 3 9 27 11 27 11 20 0z m662 4
c-3 -3 -12 -4 -19 -1 -8 3 -5 6 6 6 11 1 17 -2 13 -5z m90 -10 c-3 -3 -12 -4
-19 -1 -8 3 -5 6 6 6 11 1 17 -2 13 -5z m-560 -46 c-3 -7 -5 -2 -5 12 0 14 2
19 5 13 2 -7 2 -19 0 -25z m32 11 c1 8 3 12 6 9 9 -8 -6 -38 -16 -32 -5 3 -9
15 -8 27 0 21 1 21 9 2 5 -12 9 -14 9 -6z m-77 -24 c-6 -12 -11 -14 -16 -6 -4
6 -2 11 4 11 7 0 9 7 5 18 -5 13 -3 14 5 5 8 -7 9 -17 2 -28z m-106 3 c5 -7 3
-8 -6 -3 -10 6 -12 4 -7 -9 4 -10 3 -15 -3 -11 -13 8 -13 35 -1 35 6 0 13 -5
17 -12z m-48 -63 c-3 -3 -9 2 -12 12 -6 14 -5 15 5 6 7 -7 10 -15 7 -18z m117
-30 c-27 -11 -96 -22 -89 -15 9 9 45 17 79 18 11 0 16 -1 10 -3z m285 -21 c0
-13 -9 -15 -45 -11 -25 2 -45 1 -45 -2 0 -4 -9 -7 -20 -8 -11 -1 -20 2 -20 7
0 5 -7 7 -15 4 -8 -4 -15 -1 -15 5 0 8 21 11 65 10 36 -1 68 1 72 4 11 12 23
7 23 -9z m164 9 c-5 -5 -12 -12 -15 -16 -3 -5 -9 -2 -12 7 -5 12 0 16 15 16
12 0 17 -3 12 -7z m-414 -32 c22 -7 19 -8 -18 -12 -28 -3 -47 0 -54 8 -8 10
-4 13 18 12 16 -1 40 -4 54 -8z m-94 -19 c-10 -16 -55 -20 -60 -6 -3 8 2 11
13 9 10 -2 24 1 32 5 16 10 24 6 15 -8z"/>
<path d="M3020 2860 c0 -5 7 -10 15 -10 8 0 15 5 15 10 0 6 -7 10 -15 10 -8 0
-15 -4 -15 -10z"/>
<path d="M2861 2788 c1 -16 3 -18 6 -6 2 9 12 19 21 21 12 3 10 5 -5 6 -18 1
-23 -4 -22 -21z"/>
<path d="M617 2786 c-3 -8 -2 -27 3 -43 8 -26 8 -25 9 15 1 43 -3 52 -12 28z"/>
<path d="M2727 2774 c-13 -18 -14 -22 -3 -18 8 3 17 13 20 21 10 25 3 23 -17
-3z"/>
<path d="M3030 2779 c0 -5 5 -7 10 -4 6 3 10 8 10 11 0 2 -4 4 -10 4 -5 0 -10
-5 -10 -11z"/>
<path d="M3220 2770 c0 -9 8 -12 26 -9 4 0 10 -5 15 -12 4 -8 11 -10 15 -6 9
8 -25 36 -43 37 -7 0 -13 -4 -13 -10z"/>
<path d="M3341 2754 c0 -11 3 -14 6 -6 3 7 2 16 -1 19 -3 4 -6 -2 -5 -13z"/>
<path d="M2951 2744 c0 -11 3 -14 6 -6 3 7 2 16 -1 19 -3 4 -6 -2 -5 -13z"/>
<path d="M3135 2750 c3 -5 12 -7 20 -3 21 7 19 13 -6 13 -11 0 -18 -4 -14 -10z"/>
<path d="M3144 2709 c-19 -22 -19 -22 4 -8 12 8 22 17 22 21 0 12 -6 9 -26
-13z"/>
<path d="M2687 2685 c-4 -8 -2 -17 3 -20 6 -4 10 3 10 14 0 25 -6 27 -13 6z"/>
<path d="M2655 2669 c-4 -6 -5 -12 -2 -15 2 -3 7 2 10 11 7 17 1 20 -8 4z"/>
<path d="M3265 2660 c3 -5 10 -10 16 -10 5 0 9 5 9 10 0 6 -7 10 -16 10 -8 0
-12 -4 -9 -10z"/>
<path d="M3140 2630 c-9 -6 -11 -13 -5 -17 15 -12 12 -47 -5 -55 -10 -4 -4 -7
15 -7 21 -1 26 2 18 10 -6 6 -9 26 -6 45 6 37 5 38 -17 24z"/>
<path d="M2632 2583 c2 -14 9 -28 16 -29 7 -1 9 0 4 2 -5 3 -7 16 -4 29 2 15
0 25 -7 25 -7 0 -11 -11 -9 -27z"/>
<path d="M2843 2595 c-8 -21 3 -30 20 -17 8 7 16 10 19 7 2 -3 5 2 5 10 0 20
-36 19 -44 0z"/>
<path d="M3245 2590 c-3 -5 -4 -14 -1 -19 4 -5 0 -12 -6 -14 -10 -4 -10 -6 0
-6 6 -1 12 -10 12 -21 0 -13 5 -18 15 -14 19 8 20 34 2 34 -16 0 -18 32 -3 42
8 6 7 8 -1 8 -6 0 -15 -4 -18 -10z"/>
<path d="M568 2583 c7 -3 16 -2 19 1 4 3 -2 6 -13 5 -11 0 -14 -3 -6 -6z"/>
<path d="M2762 2540 c0 -14 2 -19 5 -12 2 6 2 18 0 25 -3 6 -5 1 -5 -13z"/>
<path d="M3080 2498 c-11 -12 -20 -17 -20 -11 0 6 -11 8 -24 6 -16 -3 -23 -10
-19 -19 3 -8 9 -14 15 -14 5 0 6 5 3 10 -3 6 -1 10 4 10 6 0 11 -7 11 -15 0
-8 7 -15 15 -15 8 0 15 -4 15 -9 0 -4 11 -6 26 -3 l25 5 -20 19 c-26 24 -27
38 -1 38 11 0 20 5 20 10 0 18 -29 11 -50 -12z"/>
<path d="M3146 2493 c8 -35 10 -37 23 -28 17 10 13 29 -9 43 -19 12 -20 11
-14 -15z"/>
<path d="M3206 2501 c-4 -5 3 -7 14 -4 23 6 26 13 6 13 -8 0 -17 -4 -20 -9z"/>
<path d="M2796 2491 c-4 -7 -5 -15 -2 -18 9 -9 19 4 14 18 -4 11 -6 11 -12 0z"/>
<path d="M2908 2483 c-10 -2 -18 -14 -18 -25 0 -16 4 -19 23 -13 12 3 28 7 35
7 6 1 12 3 12 5 0 6 -28 33 -32 32 -2 -1 -11 -3 -20 -6z"/>
<path d="M3261 2442 c-13 -24 -2 -36 16 -17 6 6 7 18 3 25 -6 9 -11 7 -19 -8z"/>
<path d="M2439 2419 c0 -19 -2 -44 -3 -56 -2 -13 3 -23 9 -23 8 0 10 17 7 53
-5 61 -12 75 -13 26z"/>
<path d="M3975 2430 c-3 -5 -1 -10 4 -10 6 0 11 5 11 10 0 6 -2 10 -4 10 -3 0
-8 -4 -11 -10z"/>
<path d="M2830 2416 c0 -8 5 -18 10 -21 6 -3 10 3 10 14 0 12 -4 21 -10 21 -5
0 -10 -6 -10 -14z"/>
<path d="M3970 2400 c0 -5 5 -10 10 -10 6 0 10 5 10 10 0 6 -4 10 -10 10 -5 0
-10 -4 -10 -10z"/>
<path d="M3540 2371 c0 -4 11 -6 25 -3 14 2 25 6 25 8 0 2 -11 4 -25 4 -14 0
-25 -4 -25 -9z"/>
<path d="M3979 2378 c-6 -12 -4 -48 2 -48 5 0 9 11 9 25 0 21 -6 33 -11 23z"/>
<path d="M3608 2363 c7 -3 16 -2 19 1 4 3 -2 6 -13 5 -11 0 -14 -3 -6 -6z"/>
<path d="M3450 2316 c0 -8 4 -17 9 -20 5 -4 7 3 4 14 -6 23 -13 26 -13 6z"/>
<path d="M2380 2303 c-45 -8 -49 -26 -5 -19 22 3 54 6 70 7 26 0 27 2 10 9
-22 9 -36 10 -75 3z"/>
<path d="M2615 2273 c9 -50 17 -61 25 -37 4 10 2 22 -4 27 -8 5 -6 12 6 21 20
15 14 26 -15 26 -17 0 -18 -5 -12 -37z"/>
<path d="M3486 2302 c-3 -5 1 -9 9 -9 8 0 12 4 9 9 -3 4 -7 8 -9 8 -2 0 -6 -4
-9 -8z"/>
<path d="M2488 2293 c7 -3 16 -2 19 1 4 3 -2 6 -13 5 -11 0 -14 -3 -6 -6z"/>
<path d="M3766 2287 c2 -7 6 -52 7 -100 2 -78 0 -87 -16 -87 -11 0 -17 -6 -15
-17 2 -14 -5 -19 -29 -21 -25 -2 -33 1 -33 12 0 9 5 16 10 16 6 0 10 -4 10
-10 0 -5 7 -10 15 -10 8 0 15 7 15 16 0 15 -20 16 -88 5 -2 -1 0 -6 4 -13 5
-7 3 -8 -7 -2 -23 14 -52 15 -61 2 -6 -10 -11 -9 -22 5 -7 9 -20 17 -29 17
-20 0 -31 -31 -15 -42 21 -13 106 -10 111 5 4 10 6 10 6 0 1 -9 21 -13 67 -13
61 0 66 1 61 20 -3 11 -1 20 4 20 5 0 9 -9 9 -21 0 -11 5 -17 10 -14 6 4 10
55 10 120 0 81 4 115 13 118 6 3 0 6 -15 6 -19 1 -26 -3 -22 -12z m-221 -225
c-8 -8 -25 10 -19 20 4 6 9 5 15 -3 4 -7 6 -15 4 -17z m65 8 c0 -5 -5 -10 -11
-10 -5 0 -7 5 -4 10 3 6 8 10 11 10 2 0 4 -4 4 -10z"/>
<path d="M3898 2293 c-36 -9 -18 -25 20 -18 20 4 60 11 87 15 49 7 49 8 -20 8
-38 0 -78 -2 -87 -5z"/>
<path d="M2320 2250 c-8 -5 -11 -12 -8 -16 4 -3 14 1 23 10 18 17 9 21 -15 6z"/>
<path d="M3404 2239 c-3 -5 6 -9 20 -9 31 0 34 6 6 13 -11 3 -23 1 -26 -4z"/>
<path d="M2269 2187 c-25 -66 -17 -76 42 -57 43 14 54 35 15 28 -22 -5 -24 -3
-15 20 5 14 7 27 4 30 -16 16 -35 7 -46 -21z m31 -8 c0 -6 -4 -7 -10 -4 -5 3
-10 11 -10 16 0 6 5 7 10 4 6 -3 10 -11 10 -16z"/>
<path d="M2330 2205 c0 -9 5 -15 11 -13 6 2 11 8 11 13 0 5 -5 11 -11 13 -6 2
-11 -4 -11 -13z"/>
<path d="M3819 2203 c-13 -16 -12 -17 4 -4 16 13 21 21 13 21 -2 0 -10 -8 -17
-17z"/>
<path d="M3658 2173 c7 -3 16 -2 19 1 4 3 -2 6 -13 5 -11 0 -14 -3 -6 -6z"/>
<path d="M4015 2170 c-3 -5 -1 -10 4 -10 6 0 11 5 11 10 0 6 -2 10 -4 10 -3 0
-8 -4 -11 -10z"/>
<path d="M3360 2160 c0 -5 5 -10 11 -10 5 0 7 5 4 10 -3 6 -8 10 -11 10 -2 0
-4 -4 -4 -10z"/>
<path d="M3698 2163 c7 -3 16 -2 19 1 4 3 -2 6 -13 5 -11 0 -14 -3 -6 -6z"/>
<path d="M1893 2149 c-7 -7 -8 -22 -1 -45 5 -19 7 -38 3 -43 -3 -5 -6 -63 -6
-129 -1 -114 -2 -121 -23 -126 -41 -11 -46 -7 -46 34 0 22 4 40 8 40 5 0 8 23
7 50 -1 29 3 50 9 50 12 0 -14 20 -26 20 -3 0 -7 -55 -8 -122 -1 -148 -2 -161
-15 -170 -6 -5 -5 -8 2 -8 10 0 11 -49 6 -222 -5 -162 -3 -219 5 -214 6 4 11
19 10 34 0 15 0 114 1 220 l3 192 24 0 c13 0 24 5 24 11 0 7 11 8 31 4 20 -5
29 -4 25 3 -7 12 50 23 122 23 34 0 58 -4 63 -12 4 -8 11 -10 15 -6 4 3 1 13
-6 22 -10 12 -10 15 1 15 8 0 9 3 4 9 -9 8 -86 1 -152 -14 -13 -3 -23 -1 -23
5 0 5 10 10 23 10 13 0 49 5 80 11 49 10 57 15 57 34 0 18 -4 22 -19 18 -23
-6 -35 23 -34 80 1 26 -3 37 -13 37 -11 0 -14 -8 -10 -32 l5 -33 -28 31 c-19
20 -37 31 -52 30 -40 -3 -44 7 -38 96 6 85 -4 121 -28 97z m75 -246 c-10 -2
-26 -2 -35 0 -10 3 -2 5 17 5 19 0 27 -2 18 -5z m9 -57 c-3 -8 -2 -17 4 -20 5
-2 4 -3 -3 -2 -17 3 -23 36 -8 36 7 0 10 -6 7 -14z m-44 -16 c-10 -11 -19 -20
-21 -20 -1 0 2 9 8 20 6 11 15 20 20 20 6 0 2 -9 -7 -20z m120 3 c-7 -2 -19
-2 -25 0 -7 3 -2 5 12 5 14 0 19 -2 13 -5z m42 -13 c3 -5 1 -10 -4 -10 -6 0
-11 5 -11 10 0 6 2 10 4 10 3 0 8 -4 11 -10z m-175 -60 c-14 -4 -34 -8 -45 -8
-16 0 -15 2 5 8 14 4 34 8 45 8 16 0 15 -2 -5 -8z"/>
<path d="M3812 2120 c3 -39 4 -40 33 -34 17 3 77 8 134 10 57 2 107 7 110 10
3 4 -51 4 -121 2 -70 -3 -133 -1 -140 4 -10 8 -10 11 0 15 17 7 15 33 -3 33
-12 0 -15 -10 -13 -40z"/>
<path d="M5970 2135 c0 -8 4 -15 10 -15 5 0 7 7 4 15 -4 8 -8 15 -10 15 -2 0
-4 -7 -4 -15z"/>
<path d="M4496 2131 c-3 -4 -1 -23 4 -42 6 -19 10 -58 10 -86 l0 -53 -35 0
c-36 0 -64 -20 -80 -56 -8 -16 -10 -12 -13 19 -5 58 -21 44 -19 -18 2 -55 2
-55 37 -61 19 -3 54 -9 77 -15 23 -5 44 -9 47 -9 9 0 1 115 -9 122 -6 5 -6 8
2 8 9 0 11 16 7 58 -4 32 -2 74 4 94 8 30 7 38 -5 42 -19 8 -21 8 -27 -3z
m-49 -283 c-3 -8 -6 -5 -6 6 -1 11 2 17 5 13 3 -3 4 -12 1 -19z"/>
<path d="M2632 2100 c0 -19 2 -27 5 -17 2 9 2 25 0 35 -3 9 -5 1 -5 -18z"/>
<path d="M2260 2096 c-29 -11 -31 -14 -15 -18 14 -3 6 -8 -25 -14 -49 -10 -59
-31 -24 -49 11 -5 27 -17 35 -25 15 -16 18 -67 4 -89 -5 -9 -4 -12 2 -8 6 4
13 -2 16 -13 7 -28 37 -26 37 3 0 12 6 31 14 42 7 11 16 37 20 58 7 39 20 48
30 22 5 -14 8 -14 31 1 30 20 33 9 4 -15 -27 -21 -39 -125 -16 -134 19 -7 34
4 39 28 2 12 10 19 21 17 10 -2 16 3 15 10 -5 22 24 14 33 -9 5 -14 5 -23 -1
-23 -6 0 -10 -4 -10 -10 0 -5 7 -10 15 -10 14 0 20 13 15 35 -1 6 -3 18 -5 27
-2 9 -8 26 -14 37 -12 22 -5 50 18 68 20 15 37 16 101 2 44 -9 50 -14 50 -35
0 -14 -4 -22 -10 -19 -6 4 -10 -5 -10 -19 0 -25 -20 -38 -20 -13 0 6 -8 22
-18 35 -18 23 -19 23 -40 5 -30 -25 -41 -105 -18 -128 9 -9 16 -12 16 -6 0 6
12 11 26 11 23 0 25 -3 20 -25 -4 -16 -2 -25 6 -25 9 0 9 -3 0 -12 -7 -7 -61
-11 -167 -10 -87 1 -155 -3 -155 -8 0 -5 57 -9 128 -9 129 0 178 -5 197 -21 7
-6 15 -2 23 11 7 10 8 19 4 19 -5 0 -9 23 -9 50 0 28 3 50 7 50 4 0 8 6 7 13
0 6 1 26 2 42 2 26 3 27 11 10 6 -15 9 -8 9 28 1 51 -1 50 74 47 30 -1 47 3
47 10 0 8 -22 10 -70 8 -38 -3 -75 -1 -82 4 -9 5 -6 8 10 8 18 0 22 5 21 28
-2 25 -2 25 -6 3 -4 -19 -9 -22 -31 -16 -15 4 -98 9 -185 12 -87 3 -155 8
-152 11 3 4 56 9 118 12 l112 7 -110 1 c-67 0 -124 -5 -145 -12z m208 -87 c-2
-6 -8 -10 -13 -10 -5 0 -11 4 -13 10 -2 6 4 11 13 11 9 0 15 -5 13 -11z m-148
-3 c0 -3 -4 -8 -10 -11 -5 -3 -10 -1 -10 4 0 6 5 11 10 11 6 0 10 -2 10 -4z
m270 -80 c0 -3 -4 -8 -10 -11 -5 -3 -10 -1 -10 4 0 6 5 11 10 11 6 0 10 -2 10
-4z"/>
<path d="M2710 2083 c25 -18 73 -27 64 -12 -2 4 -14 6 -25 4 -11 -2 -22 2 -26
10 -3 8 -12 15 -21 15 -12 0 -10 -5 8 -17z"/>
<path d="M2840 2093 c14 -3 29 -9 34 -14 6 -5 1 -7 -13 -4 -12 2 -19 0 -16 -6
4 -5 11 -7 16 -4 5 4 9 2 9 -4 0 -6 7 -8 15 -5 26 10 -5 44 -40 43 -27 -2 -28
-2 -5 -6z"/>
<path d="M2910 2090 c0 -5 7 -7 15 -4 8 4 15 8 15 10 0 2 -7 4 -15 4 -8 0 -15
-4 -15 -10z"/>
<path d="M2950 2092 c0 -16 29 -47 36 -39 19 19 13 43 -11 45 -14 1 -25 -2
-25 -6z"/>
<path d="M3026 2083 c-6 -14 -5 -15 5 -6 7 7 10 15 7 18 -3 3 -9 -2 -12 -12z"/>
<path d="M3063 2082 c-9 -15 -7 -18 11 -18 15 0 22 6 23 21 1 11 -1 14 -4 6
-4 -9 -8 -10 -12 -3 -4 7 -11 5 -18 -6z"/>
<path d="M3223 2074 c-6 -13 -7 -24 -3 -24 5 0 10 6 13 13 3 9 7 9 20 -2 14
-11 17 -11 17 0 0 11 2 11 11 -1 8 -13 10 -12 7 3 -2 10 -7 17 -12 17 -5 -1
-13 4 -18 12 -7 9 -8 7 -4 -7 5 -18 5 -18 -7 -4 -11 15 -14 14 -24 -7z"/>
<path d="M3345 2091 c-9 -16 9 -20 23 -5 10 12 10 14 -2 14 -8 0 -17 -4 -21
-9z"/>
<path d="M3395 2089 c-11 -16 -1 -19 13 -3 7 8 8 14 3 14 -5 0 -13 -5 -16 -11z"/>
<path d="M3156 2077 c3 -10 9 -15 12 -12 3 3 0 11 -7 18 -10 9 -11 8 -5 -6z"/>
<path d="M3431 2073 c-1 -18 4 -23 22 -22 15 1 17 3 5 6 -9 2 -19 12 -21 21
-3 12 -5 10 -6 -5z"/>
<path d="M3838 2073 c-28 -4 -28 -4 -28 -89 0 -46 3 -84 6 -84 4 0 13 8 20 17
11 16 13 16 22 -7 6 -14 13 -33 16 -42 3 -10 12 -18 20 -18 19 0 29 50 16 84
-6 17 -6 25 0 21 10 -6 14 6 11 37 -3 22 15 32 23 12 3 -8 11 -12 16 -9 6 4 4
-10 -4 -30 -9 -21 -16 -39 -16 -40 0 -1 11 0 24 2 20 4 29 -2 45 -28 26 -42
27 -60 4 -52 -10 3 -15 3 -11 -1 3 -4 14 -9 24 -10 10 -2 20 -9 22 -16 3 -9
-1 -11 -12 -7 -9 4 -16 2 -16 -3 0 -6 15 -10 33 -10 27 0 32 4 32 24 0 13 -3
22 -7 19 -5 -2 -8 5 -8 17 0 14 -4 19 -12 14 -10 -6 -10 -5 -1 7 6 8 9 35 7
67 -4 44 -2 52 13 53 11 0 13 3 6 6 -10 3 -10 8 1 19 11 10 25 12 61 5 26 -5
51 -14 55 -21 9 -15 45 1 53 24 9 24 -72 38 -238 41 -82 2 -162 1 -177 -2z
m179 -65 c-3 -8 -6 -5 -6 6 -1 11 2 17 5 13 3 -3 4 -12 1 -19z"/>
<path d="M4284 2068 c-4 -6 -6 -58 -5 -115 2 -79 -1 -103 -11 -104 -116 -7
-117 -7 -100 -18 11 -7 11 -9 -2 -14 -22 -9 -21 29 0 41 21 12 14 96 -10 120
-15 15 -17 15 -32 0 -16 -15 -16 -19 0 -51 21 -46 21 -85 0 -83 -9 0 -18 -5
-20 -12 -1 -7 0 -8 3 -2 2 5 9 10 14 10 14 0 11 -28 -3 -33 -7 -3 31 -5 85 -6
l97 -1 -2 120 c-3 99 0 120 12 124 11 2 9 4 -4 5 -12 1 -16 6 -12 16 6 18 0
20 -10 3z m-74 -248 c0 -5 -2 -10 -4 -10 -3 0 -8 5 -11 10 -3 6 -1 10 4 10 6
0 11 -4 11 -10z m40 0 c0 -5 -7 -10 -16 -10 -8 0 -12 5 -9 10 3 6 10 10 16 10
5 0 9 -4 9 -10z"/>
<path d="M3180 2059 c0 -5 5 -7 10 -4 6 3 10 8 10 11 0 2 -4 4 -10 4 -5 0 -10
-5 -10 -11z"/>
<path d="M2110 2046 c0 -7 5 -17 12 -24 9 -9 9 -12 -1 -12 -7 0 -9 -5 -5 -11
4 -8 9 -7 15 2 4 7 5 17 2 22 -3 5 0 13 7 17 8 5 5 9 -9 13 -13 3 -21 0 -21
-7z"/>
<path d="M4840 2036 c0 -13 -11 -34 -25 -47 -13 -13 -25 -31 -25 -40 0 -9 -10
-24 -22 -32 -18 -13 -19 -16 -7 -16 33 -2 42 -93 12 -110 -17 -9 -17 -11 0
-39 9 -17 17 -50 18 -74 0 -31 3 -37 8 -23 8 19 8 19 20 -3 14 -27 23 -28 38
-2 19 30 5 53 -28 48 -19 -3 -29 0 -29 8 0 18 21 29 29 16 10 -16 50 -11 44 5
-3 8 3 13 18 13 19 0 21 2 9 10 -12 8 -9 10 13 10 15 0 27 5 27 10 0 6 -4 10
-9 10 -19 0 -61 48 -61 69 0 32 24 21 31 -15 6 -25 7 -23 8 15 1 35 -2 42 -15
37 -10 -4 -14 -1 -11 6 2 7 15 12 29 10 43 -5 41 16 -1 23 -29 5 -38 11 -34
21 3 8 -1 14 -11 14 -17 0 -19 6 -16 63 1 20 -1 37 -4 37 -3 0 -6 -11 -6 -24z
m-33 -213 c-3 -10 -5 -2 -5 17 0 19 2 27 5 18 2 -10 2 -26 0 -35z m51 21 c2
-15 -4 -23 -17 -27 -18 -4 -21 0 -21 25 0 23 4 29 18 26 9 -2 18 -13 20 -24z"/>
<path d="M1543 2005 c-18 -19 -33 -41 -33 -50 0 -9 -10 -19 -22 -24 l-23 -8
23 -7 c13 -4 22 -15 22 -27 0 -22 11 -24 28 -7 10 10 14 8 19 -12 6 -23 7 -23
18 10 11 34 14 35 55 32 54 -5 46 14 -11 23 -22 4 -38 10 -35 13 4 3 -1 16
-10 30 -12 19 -13 26 -4 32 7 4 11 12 9 18 -2 6 -19 -4 -36 -23z"/>
<path d="M2790 2032 c0 -5 7 -9 15 -9 8 0 15 4 15 9 0 4 -7 8 -15 8 -8 0 -15
-4 -15 -8z"/>
<path d="M2845 2030 c-13 -5 4 -8 45 -8 36 0 248 0 473 -1 l407 -2 0 -221 c0
-122 2 -219 5 -217 2 3 5 102 6 220 1 118 6 219 11 225 10 13 -914 17 -947 4z"/>
<path d="M4584 1998 c-9 -14 -7 -156 3 -203 10 -51 19 -2 17 91 -1 58 2 84 9
84 7 0 4 7 -5 14 -10 7 -15 16 -11 19 3 4 4 7 0 7 -3 0 -9 -6 -13 -12z"/>
<path d="M601 1952 c-7 -14 -8 -23 -1 -27 5 -3 10 -1 10 5 0 7 7 9 15 6 8 -3
22 -9 30 -12 9 -4 15 -1 15 9 0 8 -7 17 -15 21 -8 3 -15 0 -15 -6 0 -7 -6 -3
-14 7 -13 18 -14 18 -25 -3z"/>
<path d="M3140 1940 c0 -5 5 -10 10 -10 6 0 10 5 10 10 0 6 -4 10 -10 10 -5 0
-10 -4 -10 -10z"/>
<path d="M3298 1943 c6 -2 18 -2 25 0 6 3 1 5 -13 5 -14 0 -19 -2 -12 -5z"/>
<path d="M3430 1923 c0 -22 2 -25 10 -13 8 12 10 12 10 1 0 -8 3 -11 6 -8 4 4
2 13 -4 20 -7 8 -9 17 -5 20 3 4 1 7 -5 7 -7 0 -12 -12 -12 -27z"/>
<path d="M3514 1937 c-13 -16 -7 -37 12 -37 9 0 13 9 12 25 -3 28 -8 30 -24
12z"/>
<path d="M3551 1938 c1 -7 5 -24 9 -38 7 -23 8 -23 10 10 1 19 4 27 7 18 2
-10 11 -18 19 -18 12 0 12 3 2 20 -14 22 -49 27 -47 8z"/>
<path d="M3608 1943 c6 -2 18 -2 25 0 6 3 1 5 -13 5 -14 0 -19 -2 -12 -5z"/>
<path d="M3653 1938 c1 -7 -6 -12 -15 -12 -10 1 -15 -2 -12 -7 8 -13 20 -11
36 5 8 8 23 16 34 19 12 3 7 5 -13 6 -22 1 -32 -3 -30 -11z"/>
<path d="M2121 1924 c0 -11 3 -14 6 -6 3 7 2 16 -1 19 -3 4 -6 -2 -5 -13z"/>
<path d="M2730 1933 c0 -5 14 -8 30 -8 17 0 30 3 30 8 0 4 -13 7 -30 7 -16 0
-30 -3 -30 -7z"/>
<path d="M2867 1932 c-9 -2 -15 -7 -12 -12 3 -5 12 -7 20 -3 11 4 13 1 8 -13
-4 -12 -3 -15 5 -10 8 4 10 2 6 -8 -4 -11 1 -14 20 -12 26 3 49 16 29 16 -6 0
-9 10 -7 23 2 12 2 16 -2 10 -7 -17 -31 -17 -41 0 -4 7 -16 11 -26 9z"/>
<path d="M2820 1920 c0 -5 -9 -10 -20 -10 -11 0 -20 -5 -20 -11 0 -5 4 -8 9
-4 5 3 17 -2 25 -11 15 -14 16 -13 16 15 0 17 -2 31 -5 31 -3 0 -5 -4 -5 -10z"/>
<path d="M2990 1920 c0 -5 4 -10 9 -10 6 0 13 5 16 10 3 6 -1 10 -9 10 -9 0
-16 -4 -16 -10z"/>
<path d="M3066 1919 c4 -13 -1 -16 -20 -14 -16 2 -23 -1 -20 -9 7 -17 66 -14
72 4 3 8 1 12 -3 8 -4 -4 -14 0 -22 10 -11 14 -12 14 -7 1z"/>
<path d="M3197 1919 c7 -7 15 -10 18 -7 3 3 -2 9 -12 12 -14 6 -15 5 -6 -5z"/>
<path d="M2653 1860 c0 -36 2 -50 4 -32 2 17 2 47 0 65 -2 17 -4 3 -4 -33z"/>
<path d="M2750 1905 c0 -8 4 -15 10 -15 5 0 7 7 4 15 -4 8 -8 15 -10 15 -2 0
-4 -7 -4 -15z"/>
<path d="M1596 1901 c-4 -6 -3 -18 2 -27 8 -15 10 -14 16 2 8 20 -8 42 -18 25z"/>
<path d="M2331 1894 c0 -11 3 -14 6 -6 3 7 2 16 -1 19 -3 4 -6 -2 -5 -13z"/>
<path d="M2726 1895 c-4 -11 -2 -22 6 -26 17 -11 20 -6 10 21 -8 21 -9 22 -16
5z"/>
<path d="M2420 1870 c0 -6 4 -9 9 -6 5 4 12 1 14 -4 3 -6 4 -5 3 2 -3 15 -26
23 -26 8z"/>
<path d="M3680 1860 c0 -5 7 -10 15 -10 8 0 15 5 15 10 0 6 -7 10 -15 10 -8 0
-15 -4 -15 -10z"/>
<path d="M2157 1843 c-4 -3 -7 -13 -7 -22 1 -13 3 -13 11 2 11 19 8 33 -4 20z"/>
<path d="M2196 1835 c-3 -9 -10 -13 -16 -10 -5 3 -10 1 -10 -4 0 -15 27 -14
33 2 4 10 6 10 6 0 1 -19 68 -16 75 3 10 26 7 29 -9 8 -9 -11 -13 -13 -10 -4
4 11 -2 16 -19 18 -20 1 -24 -2 -20 -16 5 -16 5 -16 -9 1 -13 16 -15 16 -21 2z"/>
<path d="M2308 1829 c-17 -18 -17 -19 11 -19 17 0 33 5 36 10 4 6 11 7 17 4 7
-4 8 -2 4 5 -6 9 -11 9 -21 1 -8 -7 -15 -7 -19 -1 -3 5 0 12 6 14 9 4 8 5 -2
5 -8 0 -23 -8 -32 -19z"/>
<path d="M2396 1834 c-4 -9 -4 -19 -1 -22 3 -3 5 0 5 7 0 7 4 9 10 6 6 -3 7 1
4 9 -8 20 -10 20 -18 0z"/>
<path d="M2556 1834 c-8 -21 -8 -21 8 -21 8 0 11 8 8 19 -5 22 -8 23 -16 2z"/>
<path d="M3962 1839 c2 -6 8 -10 13 -10 5 0 11 4 13 10 2 6 -4 11 -13 11 -9 0
-15 -5 -13 -11z"/>
<path d="M488 1833 c7 -3 16 -2 19 1 4 3 -2 6 -13 5 -11 0 -14 -3 -6 -6z"/>
<path d="M2439 1839 c0 -2 -2 -11 -4 -20 -1 -9 3 -16 10 -16 7 0 12 6 11 13
-2 13 -15 31 -17 23z"/>
<path d="M2510 1825 c-10 -12 -10 -15 4 -15 9 0 16 7 16 15 0 8 -2 15 -4 15
-2 0 -9 -7 -16 -15z"/>
<path d="M3810 1820 c0 -11 5 -20 10 -20 6 0 10 9 10 20 0 11 -4 20 -10 20 -5
0 -10 -9 -10 -20z"/>
<path d="M3873 1824 c-4 -11 -8 -12 -13 -4 -5 8 -9 7 -13 -3 -4 -12 1 -15 24
-15 17 1 25 4 18 8 -6 4 -8 13 -5 19 4 6 5 11 1 11 -3 0 -8 -7 -12 -16z"/>
<path d="M3931 1823 c-7 -15 -5 -18 17 -20 22 -1 23 0 9 9 -10 5 -15 13 -12
19 4 5 4 9 1 9 -3 0 -10 -8 -15 -17z"/>
<path d="M1498 1816 c-20 -15 -24 -46 -6 -46 8 0 9 -36 4 -137 -9 -181 -16
-243 -29 -240 -13 2 -22 -33 -10 -42 14 -10 34 -51 25 -51 -14 0 -22 -224 -8
-232 8 -5 7 -8 -3 -8 -10 0 -12 -9 -8 -32 3 -18 3 -28 1 -21 -8 18 -34 4 -34
-18 0 -10 5 -19 10 -19 6 0 10 -8 10 -19 0 -10 11 -26 25 -35 14 -9 25 -12 25
-6 0 5 4 10 10 10 5 0 9 -5 7 -12 -1 -6 6 -14 16 -16 16 -3 17 -1 8 15 -8 15
-6 22 9 33 10 8 17 17 14 21 -3 5 18 11 46 15 28 4 49 8 48 9 -2 2 -23 6 -48
10 -51 8 -63 13 -55 25 3 4 -3 11 -12 14 -15 6 -15 8 -3 16 8 6 11 10 5 10 -5
0 -3 5 5 10 12 8 10 10 -10 11 -23 0 -23 1 -5 9 11 5 14 9 7 9 -9 1 -8 8 4 26
9 14 12 25 7 25 -13 0 -11 53 2 63 7 6 6 10 -3 14 -10 4 -10 8 -1 19 9 11 8
14 -5 14 -13 0 -15 4 -6 19 14 27 13 31 -7 32 -10 1 2 7 27 14 25 7 38 14 30
14 -12 1 -11 4 3 12 10 6 27 9 38 6 10 -3 21 -1 24 3 3 5 -15 12 -40 15 -32 5
-45 12 -46 24 0 12 -2 12 -9 -4 -8 -18 -9 -19 -9 -1 -1 12 -6 16 -16 12 -8 -3
-15 -2 -15 3 0 5 8 11 19 14 16 4 18 12 14 61 -3 36 0 56 7 56 15 0 8 52 -10
68 -8 8 -10 11 -3 8 17 -9 25 11 13 33 -7 14 -7 22 0 26 8 5 7 12 -2 23 -10
12 -10 16 0 19 6 3 9 9 6 15 -3 5 4 12 16 15 16 4 18 8 9 14 -16 10 34 24 56
15 8 -3 15 -2 15 3 0 4 -17 12 -37 17 -21 5 -37 15 -35 22 3 17 -68 15 -90 -2z
m56 -174 c3 -5 -1 -9 -9 -9 -8 0 -12 4 -9 9 3 4 7 8 9 8 2 0 6 -4 9 -8z m-30
-478 c3 -8 2 -12 -4 -9 -6 3 -10 10 -10 16 0 14 7 11 14 -7z m-32 -50 c-6 -11
-11 -13 -16 -5 -4 6 -2 11 3 11 6 0 11 8 12 18 0 9 3 12 5 5 3 -7 1 -20 -4
-29z"/>
<path d="M2748 1822 c-29 -3 -32 -9 -22 -36 5 -13 9 -12 27 4 11 11 27 20 34
20 7 0 13 4 13 8 0 9 -7 10 -52 4z"/>
<path d="M3640 1816 c0 -9 8 -12 27 -8 25 5 25 6 8 13 -29 11 -35 10 -35 -5z"/>
<path d="M2870 1802 c-6 -2 -10 -8 -10 -13 0 -6 5 -7 10 -4 6 3 14 -3 18 -15
8 -21 9 -21 23 -4 8 11 9 15 2 10 -7 -4 -13 -3 -13 3 0 5 21 11 48 13 l47 3
-58 5 c-31 3 -62 4 -67 2z"/>
<path d="M2790 1789 c0 -5 -4 -7 -10 -4 -5 3 -10 2 -10 -4 0 -5 5 -13 10 -16
14 -8 13 -45 -1 -45 -6 0 -13 9 -16 20 -6 24 -34 23 -41 0 -5 -13 -3 -13 11
-1 17 13 24 2 10 -13 -13 -13 -10 -96 3 -85 6 5 15 4 22 -3 9 -9 12 -8 12 5 0
9 -6 16 -12 15 -8 -2 -12 6 -10 20 2 12 -2 22 -7 22 -6 0 -11 4 -11 8 0 5 7 9
15 9 8 0 12 -4 9 -8 -2 -4 0 -10 6 -14 5 -3 10 0 10 7 0 9 3 9 10 -2 7 -11 9
2 8 43 -1 31 -4 57 -5 57 -2 0 -3 -5 -3 -11z"/>
<path d="M3002 1795 c8 -8 208 -9 215 -1 4 3 -45 6 -107 6 -62 0 -111 -2 -108
-5z"/>
<path d="M3254 1791 c5 -8 56 -3 56 5 0 2 -14 4 -31 4 -16 0 -28 -4 -25 -9z"/>
<path d="M3330 1790 c-8 -5 -10 -10 -5 -10 6 0 17 5 25 10 8 5 11 10 5 10 -5
0 -17 -5 -25 -10z"/>
<path d="M3375 1790 c3 -5 8 -10 11 -10 2 0 4 5 4 10 0 6 -5 10 -11 10 -5 0
-7 -4 -4 -10z"/>
<path d="M3423 1793 c9 -2 17 -9 17 -14 0 -5 4 -9 10 -9 5 0 7 7 4 15 -4 8
-16 14 -28 14 -16 -1 -17 -2 -3 -6z"/>
<path d="M3488 1778 c5 -19 7 -20 10 -5 2 9 7 17 12 17 5 0 7 -7 4 -15 -4 -10
0 -15 14 -15 11 0 22 6 25 13 2 6 4 -51 4 -128 0 -79 -3 -131 -8 -120 -4 11
-8 15 -8 9 -1 -7 6 -27 14 -45 13 -32 14 -22 15 139 0 142 -2 172 -14 172 -8
0 -17 -8 -19 -17 -4 -17 -5 -17 -6 0 -1 11 -9 17 -25 17 -20 0 -23 -4 -18 -22z"/>
<path d="M2142 1778 c6 -18 43 -22 56 -5 9 10 4 13 -24 15 -26 2 -35 -1 -32
-10z"/>
<path d="M2222 1785 c10 -11 48 -14 48 -4 0 5 -12 9 -27 9 -14 0 -24 -2 -21
-5z"/>
<path d="M3813 1779 c-16 -5 -16 -7 2 -17 14 -7 26 -7 38 -1 12 7 17 6 17 -3
0 -10 2 -10 9 0 6 10 32 13 97 12 49 -2 122 -2 163 -1 50 2 76 -2 82 -10 6
-10 11 -10 24 1 25 20 41 -1 27 -37 -14 -39 -12 -61 7 -58 11 1 16 13 16 41 0
21 4 49 8 61 l8 21 -241 -1 c-132 -1 -248 -5 -257 -8z"/>
<path d="M2950 1771 c0 -6 4 -13 10 -16 6 -3 7 1 4 9 -7 18 -14 21 -14 7z"/>
<path d="M3110 1770 c-9 -6 -10 -10 -3 -10 6 0 15 5 18 10 8 12 4 12 -15 0z"/>
<path d="M3203 1760 c1 -11 5 -20 9 -20 4 0 8 9 8 20 0 11 -4 20 -9 20 -6 0
-9 -9 -8 -20z"/>
<path d="M3240 1766 c0 -9 5 -16 10 -16 6 0 10 4 10 9 0 6 -4 13 -10 16 -5 3
-10 -1 -10 -9z"/>
<path d="M3306 1767 c3 -10 9 -15 12 -12 3 3 0 11 -7 18 -10 9 -11 8 -5 -6z"/>
<path d="M3170 1759 c0 -5 5 -7 10 -4 6 3 10 8 10 11 0 2 -4 4 -10 4 -5 0 -10
-5 -10 -11z"/>
<path d="M4338 1763 c7 -3 16 -2 19 1 4 3 -2 6 -13 5 -11 0 -14 -3 -6 -6z"/>
<path d="M2996 1750 c-19 -6 -18 -7 3 -13 19 -5 22 -10 17 -31 -3 -14 -3 -27
1 -29 5 -3 9 9 10 26 2 18 7 33 13 35 5 2 10 8 10 14 0 7 -5 6 -14 -1 -8 -7
-16 -8 -18 -3 -1 5 -12 6 -22 2z"/>
<path d="M3130 1750 c0 -5 5 -10 11 -10 5 0 7 5 4 10 -3 6 -8 10 -11 10 -2 0
-4 -4 -4 -10z"/>
<path d="M3280 1744 c0 -8 5 -12 10 -9 6 4 8 11 5 16 -9 14 -15 11 -15 -7z"/>
<path d="M3370 1750 c0 -5 5 -10 11 -10 5 0 7 5 4 10 -3 6 -8 10 -11 10 -2 0
-4 -4 -4 -10z"/>
<path d="M3445 1753 c-31 -5 -45 -18 -44 -43 0 -8 4 -5 9 8 6 14 18 22 34 22
28 0 42 -15 25 -26 -6 -3 -15 0 -20 7 -5 9 -7 -1 -4 -25 3 -21 0 -44 -5 -51
-8 -10 -8 -15 1 -21 8 -4 9 -3 5 4 -4 7 -2 12 3 12 6 0 11 -7 11 -15 0 -11 6
-10 25 7 14 12 25 29 24 37 0 12 -2 11 -8 -3 -4 -11 -15 -20 -24 -22 -22 -3
-23 39 -1 61 12 11 13 19 5 29 -6 7 -8 16 -4 19 3 4 4 6 2 6 -2 -1 -17 -4 -34
-6z"/>
<path d="M3685 1750 c-3 -5 1 -10 9 -10 9 0 16 5 16 10 0 6 -4 10 -9 10 -6 0
-13 -4 -16 -10z"/>
<path d="M4595 1735 c0 -14 3 -25 8 -25 4 0 7 11 7 25 0 14 -3 25 -7 25 -5 0
-8 -11 -8 -25z"/>
<path d="M2920 1744 c0 -3 6 -12 14 -19 12 -12 16 -12 26 1 11 12 10 13 -4 8
-9 -3 -16 -1 -16 5 0 6 -4 11 -10 11 -5 0 -10 -3 -10 -6z"/>
<path d="M3070 1739 c0 -5 5 -7 10 -4 6 3 10 8 10 11 0 2 -4 4 -10 4 -5 0 -10
-5 -10 -11z"/>
<path d="M3490 1740 c0 -5 5 -10 10 -10 6 0 10 5 10 10 0 6 -4 10 -10 10 -5 0
-10 -4 -10 -10z"/>
<path d="M3530 1748 c-2 -5 -3 -14 -4 -20 -1 -7 -8 -12 -15 -10 -7 1 -9 -2 -6
-9 10 -15 39 15 32 33 -3 7 -6 10 -7 6z"/>
<path d="M2188 1733 c12 -2 30 -2 40 0 9 3 -1 5 -23 4 -22 0 -30 -2 -17 -4z"/>
<path d="M2358 1733 c45 -2 119 -2 165 0 45 1 8 3 -83 3 -91 0 -128 -2 -82 -3z"/>
<path d="M3640 1722 c6 -13 14 -21 18 -18 3 4 -2 14 -12 24 -18 16 -18 16 -6
-6z"/>
<path d="M3863 1733 c9 -2 25 -2 35 0 9 3 1 5 -18 5 -19 0 -27 -2 -17 -5z"/>
<path d="M4113 1733 c9 -2 25 -2 35 0 9 3 1 5 -18 5 -19 0 -27 -2 -17 -5z"/>
<path d="M4220 1736 c0 -2 9 -6 20 -9 11 -3 20 -1 20 4 0 5 -9 9 -20 9 -11 0
-20 -2 -20 -4z"/>
<path d="M1995 1718 c-27 -6 -74 -14 -102 -20 -29 -5 -53 -14 -53 -19 0 -6 6
-6 18 0 10 5 54 14 97 20 90 13 159 30 115 29 -14 -1 -47 -5 -75 -10z"/>
<path d="M2860 1605 c0 -71 3 -126 6 -123 3 3 6 20 6 37 1 22 5 30 14 27 8 -3
11 0 7 10 -3 7 1 14 8 14 7 0 9 3 6 6 -4 4 -13 2 -20 -5 -12 -9 -15 2 -16 71
-3 131 -11 104 -11 -37z"/>
<path d="M3295 1720 c-3 -5 -2 -10 4 -10 5 0 13 5 16 10 3 6 2 10 -4 10 -5 0
-13 -4 -16 -10z"/>
<path d="M4560 1719 c0 -5 5 -7 10 -4 6 3 10 8 10 11 0 2 -4 4 -10 4 -5 0 -10
-5 -10 -11z"/>
<path d="M3120 1708 c0 -4 6 -8 14 -8 8 0 17 4 20 8 2 4 -4 8 -15 8 -10 0 -19
-4 -19 -8z"/>
<path d="M3336 1707 c3 -10 9 -15 12 -12 3 3 0 11 -7 18 -10 9 -11 8 -5 -6z"/>
<path d="M2913 1695 c-3 -9 -3 -18 -1 -21 3 -3 8 4 11 16 6 23 -1 27 -10 5z"/>
<path d="M2957 1703 c-6 -10 19 -34 27 -26 3 4 6 1 6 -5 0 -7 5 -12 11 -12 8
0 9 4 0 13 -6 8 -7 18 -3 22 4 5 1 5 -5 1 -7 -4 -13 -2 -13 3 0 13 -17 15 -23
4z"/>
<path d="M3115 1663 c-49 -24 -99 -53 -110 -62 -11 -10 -28 -21 -39 -25 -13
-4 -17 -13 -13 -27 3 -12 3 -18 0 -15 -4 3 -17 -11 -29 -32 -19 -32 -25 -62
-33 -178 -5 -77 -6 -155 -1 -174 l8 -35 1 38 c1 20 6 37 12 37 6 0 8 -7 5 -16
-4 -10 -1 -14 6 -11 7 2 12 12 10 21 -2 9 1 16 5 15 4 -1 43 -1 85 0 64 1 77
4 81 19 4 16 5 16 6 -1 1 -14 9 -18 39 -16 133 4 345 -3 330 -12 -14 -8 -18
-23 -18 -69 0 -50 3 -60 18 -60 14 -1 14 -3 -4 -13 -14 -8 -20 -19 -17 -32 11
-50 -6 -100 -36 -108 -9 -3 3 -5 27 -6 23 0 42 -5 42 -10 0 -4 -12 -7 -27 -5
-26 3 -25 3 4 -7 17 -7 34 -18 38 -26 4 -12 -2 -14 -30 -11 -23 3 -35 0 -35
-8 0 -16 -13 -24 -45 -30 -24 -4 -25 -2 -25 41 0 26 -5 56 -11 67 -8 15 -8 19
0 14 6 -4 11 -3 11 3 0 6 15 7 35 4 30 -5 35 -3 35 13 0 16 -2 17 -10 4 -6 -9
-10 -11 -10 -3 0 7 -7 10 -15 7 -10 -4 -15 0 -15 13 0 10 -4 23 -9 29 -5 5
-12 36 -16 69 -3 32 -11 66 -18 74 -10 12 -9 14 6 8 13 -5 17 -3 15 5 -5 16
-128 24 -128 9 0 -5 8 -12 18 -14 9 -3 -5 -5 -33 -5 -27 0 -44 2 -37 5 32 13
5 23 -63 22 -64 -1 -74 -3 -64 -15 6 -8 8 -14 3 -14 -5 0 -9 -58 -9 -130 0
-71 -1 -147 -3 -168 l-4 -38 -71 1 -72 2 -5 34 c-7 45 -16 19 -19 -53 -2 -49
0 -57 13 -52 9 3 16 2 16 -2 0 -5 68 -9 150 -9 115 0 150 3 150 12 0 16 17 17
22 2 5 -14 161 -13 166 1 2 6 12 10 23 10 10 0 16 -5 14 -12 -4 -9 5 -13 27
-12 18 1 36 2 41 4 17 6 32 5 38 -3 8 -11 2 621 -6 683 -3 25 -6 50 -7 55 -1
22 -38 82 -70 111 -32 31 -132 87 -212 118 -21 9 -39 16 -40 15 0 0 -41 -21
-91 -46z m39 -221 c3 -5 -1 -9 -9 -9 -8 0 -12 4 -9 9 3 4 7 8 9 8 2 0 6 -4 9
-8z m-47 -34 c-3 -7 -5 -2 -5 12 0 14 2 19 5 13 2 -7 2 -19 0 -25z m155 -59
c16 -10 -15 -16 -47 -8 l-30 7 28 1 c22 1 27 6 28 29 2 27 2 27 6 2 3 -14 9
-28 15 -31z m118 37 c0 -3 -4 -8 -10 -11 -5 -3 -10 -1 -10 4 0 6 5 11 10 11 6
0 10 -2 10 -4z m-353 -37 c5 -5 8 -21 5 -34 -3 -20 -7 -23 -22 -15 -16 8 -19
6 -23 -18 -3 -22 -4 -20 -6 11 0 20 4 37 9 37 6 0 10 7 10 15 0 17 12 19 27 4z
m43 -49 c5 0 12 5 15 10 3 6 1 10 -4 10 -6 0 -11 5 -11 11 0 6 7 9 15 5 8 -3
15 -1 15 4 0 6 6 10 14 10 15 0 15 -28 0 -52 -4 -7 -3 -8 4 -4 19 12 14 -2 -9
-23 -12 -11 -27 -17 -35 -14 -10 4 -14 -3 -14 -21 0 -14 -5 -26 -11 -26 -8 0
-10 13 -5 38 3 20 7 53 7 72 2 30 3 31 6 8 2 -16 8 -28 13 -28z m304 -20 c-3
-2 -9 1 -13 9 -7 10 -9 9 -14 -3 -3 -8 0 -19 7 -23 25 -14 23 -45 -1 -49 -22
-4 -23 -2 -17 53 7 72 15 85 30 48 7 -17 10 -32 8 -35z m-151 33 c-7 -2 -21
-2 -30 0 -10 3 -4 5 12 5 17 0 24 -2 18 -5z m31 -9 c3 -8 2 -12 -4 -9 -6 3
-10 10 -10 16 0 14 7 11 14 -7z m61 -48 c2 -53 -12 -54 -17 -1 -2 26 1 44 7
42 5 -2 10 -20 10 -41z m-68 -23 c-3 -10 -5 -2 -5 17 0 19 2 27 5 18 2 -10 2
-26 0 -35z m99 -131 c1 -17 1 -18 -3 -3 -5 23 -33 18 -33 -6 0 -8 5 -11 10 -8
6 4 10 -13 10 -44 0 -34 4 -51 13 -51 8 0 8 -3 -2 -9 -11 -7 -14 -30 -13 -95
1 -68 -2 -86 -13 -86 -11 0 -14 12 -12 50 1 28 -1 50 -5 50 -3 0 -4 8 -1 19 3
11 -6 29 -21 46 l-26 28 -2 -104 c-1 -80 -3 -88 -5 -36 -4 67 -4 67 -33 67
-29 0 -29 -1 -33 -62 -2 -41 -3 -27 -4 40 -1 57 3 102 8 102 5 0 9 7 9 15 0 8
-5 15 -12 15 -6 0 -9 -3 -5 -6 3 -4 -4 -15 -16 -26 -12 -11 -16 -16 -8 -12 9
5 12 3 7 -5 -4 -6 -15 -10 -23 -9 -9 2 -18 -4 -20 -12 -4 -13 -3 -13 7 0 9 12
11 9 7 -17 -3 -25 0 -33 12 -34 13 -1 13 -2 -1 -6 -14 -3 -16 -14 -14 -53 2
-33 -1 -50 -9 -54 -21 -8 -25 4 -25 66 0 39 4 58 13 59 10 0 10 2 0 6 -15 6
-18 53 -3 53 6 0 10 5 10 12 0 6 -9 3 -20 -7 -17 -15 -20 -16 -20 -3 0 9 7 19
16 22 16 6 16 8 0 24 -17 20 -23 87 -6 77 6 -3 10 1 10 10 0 14 16 15 128 13
124 -3 127 -4 128 -26z m186 -13 c-6 -43 -17 -43 -19 1 -1 27 2 37 11 34 8 -3
11 -16 8 -35z m-6 -166 c-10 -10 -19 5 -10 18 6 11 8 11 12 0 2 -7 1 -15 -2
-18z m-179 -75 c-3 -8 -6 -5 -6 6 -1 11 2 17 5 13 3 -3 4 -12 1 -19z m-359
-81 c7 -5 12 -4 12 2 0 6 18 11 40 11 22 0 40 -4 40 -10 0 -5 -6 -10 -12 -10
-9 0 -8 -3 2 -10 12 -7 10 -9 -7 -7 -12 0 -19 5 -17 9 3 4 -1 8 -10 8 -8 0
-16 -6 -19 -12 -3 -10 -7 -10 -18 -2 -8 6 -22 14 -33 18 -14 5 -17 3 -12 -10
5 -14 4 -15 -9 -4 -29 24 8 38 43 17z m386 -5 c2 -4 -7 -8 -22 -9 -24 -2 -24
-1 -7 7 11 5 21 9 22 9 1 1 4 -3 7 -7z"/>
<path d="M3168 1063 c29 -2 74 -2 100 0 26 2 2 3 -53 3 -55 0 -76 -1 -47 -3z"/>
<path d="M3110 1040 c0 -5 7 -7 15 -4 11 5 14 1 9 -12 -5 -16 -4 -16 5 -4 16
22 13 30 -9 30 -11 0 -20 -4 -20 -10z"/>
<path d="M3200 1021 c0 -11 -4 -22 -9 -26 -5 -3 -9 -19 -9 -35 1 -26 5 -30 30
-30 28 0 28 1 27 50 -2 44 -4 48 -16 32 -13 -16 -14 -15 -8 6 4 13 2 22 -4 22
-6 0 -11 -9 -11 -19z"/>
<path d="M3280 1016 c0 -2 9 -6 20 -9 11 -3 18 -1 14 4 -5 9 -34 13 -34 5z"/>
<path d="M3270 997 c0 -5 8 -20 19 -33 l19 -24 5 26 c3 20 1 24 -11 19 -8 -3
-19 0 -24 7 -4 7 -8 9 -8 5z"/>
<path d="M2880 1679 c0 -5 5 -7 10 -4 6 3 10 8 10 11 0 2 -4 4 -10 4 -5 0 -10
-5 -10 -11z"/>
<path d="M3397 1670 c-3 -11 -3 -20 -1 -20 2 0 8 9 14 20 6 11 7 20 2 20 -6 0
-12 -9 -15 -20z"/>
<path d="M3530 1680 c0 -5 5 -10 11 -10 5 0 7 5 4 10 -3 6 -8 10 -11 10 -2 0
-4 -4 -4 -10z"/>
<path d="M4601 1674 c0 -11 3 -14 6 -6 3 7 2 16 -1 19 -3 4 -6 -2 -5 -13z"/>
<path d="M2375 1670 c-3 -5 1 -10 9 -10 8 0 18 5 21 10 3 6 -1 10 -9 10 -8 0
-18 -4 -21 -10z"/>
<path d="M3650 1660 c-9 -17 -8 -20 10 -20 20 0 20 -1 6 -16 -31 -30 -6 -31
26 -1 20 19 18 47 -2 47 -6 0 -8 -4 -5 -10 3 -5 -1 -10 -10 -10 -11 0 -15 5
-11 15 8 22 -1 18 -14 -5z"/>
<path d="M4044 1665 c-10 -8 -14 -14 -9 -14 6 0 19 6 29 14 11 8 15 15 10 15
-6 0 -19 -7 -30 -15z"/>
<path d="M4191 1664 c0 -11 3 -14 6 -6 3 7 2 16 -1 19 -3 4 -6 -2 -5 -13z"/>
<path d="M2020 1660 c0 -5 9 -10 20 -10 11 0 20 5 20 10 0 6 -9 10 -20 10 -11
0 -20 -4 -20 -10z"/>
<path d="M2303 1655 c-9 -10 -9 -16 -2 -20 14 -9 22 0 17 18 -2 13 -5 13 -15
2z"/>
<path d="M2792 1650 c0 -14 2 -19 5 -12 2 6 2 18 0 25 -3 6 -5 1 -5 -13z"/>
<path d="M3982 1654 c-7 -8 -8 -14 -3 -14 10 0 25 19 20 25 -2 1 -10 -3 -17
-11z"/>
<path d="M1841 1644 c0 -11 3 -14 6 -6 3 7 2 16 -1 19 -3 4 -6 -2 -5 -13z"/>
<path d="M1929 1648 l-56 -10 -2 -66 c-1 -49 2 -63 9 -52 8 12 9 9 5 -10 -10
-50 -13 -155 -4 -172 5 -10 5 -19 0 -23 -5 -3 -8 -27 -6 -53 3 -53 -5 -50 116
-37 l57 6 0 179 c1 122 -3 182 -10 186 -8 5 -9 1 -5 -10 5 -13 -1 -11 -24 8
-17 14 -35 26 -40 26 -13 0 -53 -39 -67 -65 -8 -15 -11 -16 -12 -4 0 8 6 21
12 27 10 10 10 17 0 32 -10 16 -10 20 2 20 8 0 16 -3 19 -7 2 -5 2 -2 0 6 -2
10 4 12 26 8 19 -4 31 -2 35 6 3 9 7 8 15 -3 9 -13 11 -13 11 3 0 19 0 19 -81
5z m48 -244 c-3 -3 -12 -4 -19 -1 -8 3 -5 6 6 6 11 1 17 -2 13 -5z"/>
<path d="M2440 1649 c0 -5 5 -7 10 -4 6 3 10 8 10 11 0 2 -4 4 -10 4 -5 0 -10
-5 -10 -11z"/>
<path d="M2928 1648 c17 -6 32 -15 32 -19 0 -5 5 -9 12 -9 23 0 -16 29 -47 34
-30 6 -30 5 3 -6z"/>
<path d="M2110 1639 c0 -5 5 -7 10 -4 6 3 10 8 10 11 0 2 -4 4 -10 4 -5 0 -10
-5 -10 -11z"/>
<path d="M2340 1628 c-87 -42 -98 -71 -102 -256 -3 -120 -1 -132 15 -132 11 0
17 8 17 25 0 21 5 25 31 25 28 0 31 -2 25 -25 l-6 -25 100 0 101 0 -3 160 c-3
179 -1 174 -88 224 l-46 26 -44 -22z m53 -195 c-7 -2 -19 -2 -25 0 -7 3 -2 5
12 5 14 0 19 -2 13 -5z m-56 -48 c6 -14 7 -25 2 -25 -5 0 -9 5 -9 10 0 6 -7
10 -15 10 -8 0 -15 7 -15 15 0 24 24 17 37 -10z m33 10 c0 -8 -4 -15 -10 -15
-5 0 -10 7 -10 15 0 8 5 15 10 15 6 0 10 -7 10 -15z m31 6 c-8 -5 -10 -14 -6
-21 5 -9 4 -11 -3 -6 -18 11 -14 36 6 36 13 0 14 -2 3 -9z m46 -16 c6 -14 8
-25 4 -25 -12 0 -31 23 -31 37 0 21 14 15 27 -12z m-154 -22 c-7 -2 -19 -2
-25 0 -7 3 -2 5 12 5 14 0 19 -2 13 -5z m-16 -35 c-3 -8 -6 -5 -6 6 -1 11 2
17 5 13 3 -3 4 -12 1 -19z m48 12 c-3 -5 -12 -10 -18 -10 -7 0 -6 4 3 10 19
12 23 12 15 0z"/>
<path d="M2030 1625 c0 -8 5 -15 10 -15 6 0 10 7 10 15 0 8 -4 15 -10 15 -5 0
-10 -7 -10 -15z"/>
<path d="M3985 1612 c-75 -41 -84 -66 -84 -233 0 -100 4 -139 12 -140 7 0 72
-1 145 -2 l134 -2 -4 157 c-3 151 -4 157 -28 184 -23 25 -93 64 -115 64 -5 0
-32 -13 -60 -28z"/>
<path d="M4285 1630 c-3 -5 -1 -10 4 -10 6 0 11 5 11 10 0 6 -2 10 -4 10 -3 0
-8 -4 -11 -10z"/>
<path d="M2235 1620 c3 -5 8 -10 11 -10 2 0 4 5 4 10 0 6 -5 10 -11 10 -5 0
-7 -4 -4 -10z"/>
<path d="M4192 1600 c0 -19 2 -27 5 -17 2 9 2 25 0 35 -3 9 -5 1 -5 -18z"/>
<path d="M4604 1495 c0 -77 2 -107 3 -67 2 40 2 103 0 140 -2 37 -3 4 -3 -73z"/>
<path d="M4805 1605 c-19 -14 -19 -14 10 -15 17 -1 25 -4 18 -7 -16 -6 6 -43
25 -43 8 0 10 5 5 13 -4 6 -8 18 -10 26 -1 8 -8 20 -15 28 -12 11 -17 11 -33
-2z"/>
<path d="M2885 1600 c3 -5 11 -10 16 -10 6 0 7 5 4 10 -3 6 -11 10 -16 10 -6
0 -7 -4 -4 -10z"/>
<path d="M2930 1601 c0 -6 4 -13 10 -16 6 -3 7 1 4 9 -7 18 -14 21 -14 7z"/>
<path d="M3520 1599 c0 -5 5 -7 10 -4 6 3 10 8 10 11 0 2 -4 4 -10 4 -5 0 -10
-5 -10 -11z"/>
<path d="M4424 1592 c-33 -26 -44 -55 -44 -115 0 -40 4 -56 15 -61 10 -4 15 1
16 17 1 20 2 20 6 2 7 -28 21 -34 61 -28 23 4 37 2 42 -8 5 -7 12 -10 17 -6
11 12 -12 42 -31 39 -22 -4 -20 15 3 28 16 8 20 6 24 -8 3 -9 5 -1 6 18 1 39
-17 80 -51 116 -27 28 -36 29 -64 6z m36 -152 c0 -11 -4 -20 -10 -20 -5 0 -10
9 -10 20 0 11 5 20 10 20 6 0 10 -9 10 -20z"/>
<path d="M2230 1589 c0 -5 5 -7 10 -4 6 3 10 8 10 11 0 2 -4 4 -10 4 -5 0 -10
-5 -10 -11z"/>
<path d="M2772 1580 c0 -14 2 -19 5 -12 2 6 2 18 0 25 -3 6 -5 1 -5 -13z"/>
<path d="M3675 1570 c3 -5 8 -10 11 -10 2 0 4 5 4 10 0 6 -5 10 -11 10 -5 0
-7 -4 -4 -10z"/>
<path d="M2642 1540 c0 -19 2 -27 5 -17 2 9 2 25 0 35 -3 9 -5 1 -5 -18z"/>
<path d="M2728 1563 c7 -3 16 -2 19 1 4 3 -2 6 -13 5 -11 0 -14 -3 -6 -6z"/>
<path d="M4791 1543 c0 -13 4 -23 9 -23 6 0 10 -9 10 -20 0 -11 7 -20 15 -20
8 0 15 7 15 15 0 8 -5 15 -11 15 -5 0 -7 5 -4 10 3 6 -1 10 -9 10 -8 0 -17 8
-19 18 -4 13 -5 11 -6 -5z"/>
<path d="M3670 1542 c0 -4 9 -13 20 -19 16 -11 18 -10 14 1 -6 15 -34 30 -34
18z"/>
<path d="M3770 1506 c0 -27 4 -45 10 -41 9 5 5 74 -5 84 -3 2 -5 -17 -5 -43z"/>
<path d="M2724 1492 c0 -26 1 -39 4 -29 3 14 10 18 28 14 14 -2 27 0 30 4 3 5
0 9 -7 9 -6 0 -9 8 -6 19 5 22 -19 37 -27 18 -3 -9 -5 -9 -5 1 -1 6 -4 12 -8
12 -5 0 -8 -21 -9 -48z"/>
<path d="M4289 1496 c8 -10 9 -16 1 -21 -6 -3 -7 -11 -4 -17 10 -15 25 17 18
36 -3 9 -11 16 -16 16 -6 0 -6 -6 1 -14z"/>
<path d="M4850 1479 c0 -20 -4 -27 -17 -24 -21 3 -45 -14 -37 -26 3 -5 0 -9
-5 -9 -6 0 -11 -7 -11 -16 0 -8 -7 -23 -16 -32 -15 -14 -15 -17 0 -27 9 -7 16
-19 16 -28 0 -11 6 -14 18 -10 13 5 15 3 5 -7 -9 -10 -8 -16 3 -27 8 -8 14
-19 14 -26 0 -6 -6 -2 -14 8 -13 18 -14 15 -12 -29 2 -27 9 -52 17 -58 10 -7
8 -8 -8 -3 -13 3 -23 2 -23 -2 0 -12 22 -33 35 -33 5 0 3 5 -5 10 -11 7 -3 10
30 11 38 1 41 2 20 9 -17 5 -19 8 -7 9 9 1 17 5 17 10 0 5 8 12 18 14 9 3 -8
3 -38 1 -37 -3 -49 -1 -35 5 11 4 23 7 28 4 4 -2 7 1 7 6 0 6 -12 12 -27 12
-24 2 -25 2 -5 6 12 2 20 9 17 14 -4 5 -1 9 6 9 8 0 8 4 -1 15 -10 12 -10 15
0 15 7 0 10 6 7 14 -4 11 6 16 36 22 23 4 35 9 27 12 -9 3 1 10 25 17 30 9 36
14 23 19 -10 3 -26 9 -35 13 -10 3 -21 5 -25 5 -5 -1 -8 4 -8 11 0 8 -10 13
-22 13 -15 -1 -23 6 -25 19 -1 11 0 14 3 8 12 -28 26 -12 20 22 -4 22 -3 35 4
35 5 0 10 4 10 8 0 5 -7 9 -15 9 -10 0 -15 -10 -15 -28z"/>
<path d="M2105 1490 c-3 -5 -1 -10 4 -10 6 0 11 5 11 10 0 6 -2 10 -4 10 -3 0
-8 -4 -11 -10z"/>
<path d="M3670 1490 c0 -6 7 -10 15 -10 8 0 15 2 15 4 0 2 -7 6 -15 10 -8 3
-15 1 -15 -4z"/>
<path d="M3670 1460 c0 -5 8 -10 17 -10 15 0 14 -2 -3 -16 -18 -14 -18 -15 4
-4 27 13 27 16 2 30 -14 7 -20 7 -20 0z"/>
<path d="M2761 1444 c0 -11 3 -14 6 -6 3 7 2 16 -1 19 -3 4 -6 -2 -5 -13z"/>
<path d="M3770 1415 c0 -8 2 -15 4 -15 2 0 6 7 10 15 3 8 1 15 -4 15 -6 0 -10
-7 -10 -15z"/>
<path d="M4280 1421 c0 -6 5 -13 10 -16 6 -3 10 1 10 9 0 9 -4 16 -10 16 -5 0
-10 -4 -10 -9z"/>
<path d="M2730 1401 c0 -5 -3 -16 -6 -25 -3 -9 -2 -16 3 -16 5 0 10 11 11 25
1 14 0 25 -3 25 -3 0 -5 -4 -5 -9z"/>
<path d="M3660 1400 c-8 -5 -12 -11 -9 -14 2 -3 11 -1 19 4 8 5 12 11 9 14 -2
3 -11 1 -19 -4z"/>
<path d="M3697 1404 c-4 -4 -7 -17 -7 -28 1 -19 1 -20 11 -3 11 19 8 43 -4 31z"/>
<path d="M4486 1391 c-3 -5 -15 -7 -25 -4 -15 4 -20 0 -18 -16 1 -12 8 -21 18
-21 9 0 19 -9 22 -21 4 -16 -1 -24 -26 -34 -18 -7 -36 -10 -41 -5 -11 11 -36
1 -36 -15 0 -9 11 -11 38 -9 35 5 36 4 17 -11 -17 -14 -18 -17 -5 -25 8 -5 29
-10 45 -10 17 0 40 -3 53 -6 17 -5 22 -2 22 14 0 12 -4 24 -10 27 -5 3 -10 17
-10 30 0 13 -6 26 -12 28 -7 3 -3 6 10 6 18 1 23 6 20 24 -2 12 -7 21 -13 19
-5 -2 -12 6 -17 17 -8 22 -23 27 -32 12z m24 -42 c0 -6 -4 -7 -10 -4 -5 3 -10
11 -10 16 0 6 5 7 10 4 6 -3 10 -11 10 -16z m10 -109 c0 -5 -4 -10 -10 -10 -5
0 -10 5 -10 10 0 6 5 10 10 10 6 0 10 -4 10 -10z"/>
<path d="M2642 1360 c0 -19 2 -27 5 -17 2 9 2 25 0 35 -3 9 -5 1 -5 -18z"/>
<path d="M4391 1378 c1 -7 -1 -21 -6 -31 -4 -10 -5 -21 -1 -24 3 -4 6 2 6 13
0 16 2 17 10 4 9 -13 11 -13 20 0 6 10 4 17 -8 24 -15 8 -14 10 3 17 18 7 18
8 -3 8 -13 1 -22 -4 -21 -11z"/>
<path d="M4291 1354 c0 -11 3 -14 6 -6 3 7 2 16 -1 19 -3 4 -6 -2 -5 -13z"/>
<path d="M550 1336 c0 -19 17 -30 25 -16 4 6 12 7 18 2 18 -12 74 -15 81 -3 7
11 -12 18 -76 26 -39 5 -48 4 -48 -9z"/>
<path d="M2724 1319 c1 -15 5 -31 10 -36 5 -5 7 -1 3 10 -8 21 -3 21 28 1 23
-15 25 -15 25 1 0 11 -5 15 -15 11 -14 -5 -40 26 -30 36 3 3 -1 5 -8 5 -8 0
-13 -11 -13 -28z"/>
<path d="M3675 1340 c-8 -13 3 -30 18 -29 8 0 7 3 -2 6 -10 4 -10 7 -1 13 8 5
9 10 2 14 -6 3 -13 2 -17 -4z"/>
<path d="M1831 1314 c0 -11 3 -14 6 -6 3 7 2 16 -1 19 -3 4 -6 -2 -5 -13z"/>
<path d="M2644 1205 c0 -66 1 -92 3 -57 2 34 2 88 0 120 -2 31 -3 3 -3 -63z"/>
<path d="M4290 1301 c0 -11 4 -22 9 -25 4 -3 6 6 3 19 -5 30 -12 33 -12 6z"/>
<path d="M3670 1289 c0 -5 5 -7 10 -4 6 3 10 8 10 11 0 2 -4 4 -10 4 -5 0 -10
-5 -10 -11z"/>
<path d="M4856 1285 c-3 -8 -1 -15 4 -15 6 0 10 7 10 15 0 8 -2 15 -4 15 -2 0
-6 -7 -10 -15z"/>
<path d="M1831 1254 c0 -11 3 -14 6 -6 3 7 2 16 -1 19 -3 4 -6 -2 -5 -13z"/>
<path d="M2725 1246 c-15 -11 -16 -13 -1 -13 9 0 16 5 17 11 0 6 4 2 9 -9 7
-16 9 -17 9 -3 1 24 -13 30 -34 14z"/>
<path d="M3650 1252 c0 -5 7 -9 15 -9 8 0 15 4 15 9 0 4 -7 8 -15 8 -8 0 -15
-4 -15 -8z"/>
<path d="M1799 1234 c-5 -44 -4 -123 3 -116 9 9 14 110 5 119 -4 3 -7 2 -8 -3z"/>
<path d="M2611 1224 c0 -11 3 -14 6 -6 3 7 2 16 -1 19 -3 4 -6 -2 -5 -13z"/>
<path d="M4850 1236 c0 -2 9 -6 20 -9 11 -3 20 -1 20 4 0 5 -9 9 -20 9 -11 0
-20 -2 -20 -4z"/>
<path d="M4290 1215 c0 -8 2 -15 4 -15 2 0 6 7 10 15 3 8 1 15 -4 15 -6 0 -10
-7 -10 -15z"/>
<path d="M2498 1213 c6 -2 18 -2 25 0 6 3 1 5 -13 5 -14 0 -19 -2 -12 -5z"/>
<path d="M2716 1204 c-3 -9 -6 -17 -6 -19 0 -6 30 1 37 10 5 4 2 5 -6 0 -11
-6 -13 -4 -8 8 3 10 2 17 -2 17 -5 0 -12 -7 -15 -16z"/>
<path d="M3888 1213 c7 -3 16 -2 19 1 4 3 -2 6 -13 5 -11 0 -14 -3 -6 -6z"/>
<path d="M3928 1213 c7 -3 16 -2 19 1 4 3 -2 6 -13 5 -11 0 -14 -3 -6 -6z"/>
<path d="M1915 1200 c-30 -5 -10 -6 50 -3 55 3 102 7 104 9 6 6 -96 2 -154 -6z"/>
<path d="M2760 1184 c0 -7 -5 -14 -12 -16 -7 -3 -8 -7 -3 -10 6 -3 18 4 27 16
13 18 14 23 2 23 -8 0 -14 -6 -14 -13z"/>
<path d="M4613 1145 c0 -33 2 -45 4 -27 2 18 2 45 0 60 -2 15 -4 0 -4 -33z"/>
<path d="M1822 1160 c0 -14 2 -19 5 -12 2 6 2 18 0 25 -3 6 -5 1 -5 -13z"/>
<path d="M3770 1140 c0 -22 5 -40 10 -40 6 0 10 18 10 40 0 22 -4 40 -10 40
-5 0 -10 -18 -10 -40z"/>
<path d="M2719 1160 c0 -8 -2 -25 -3 -38 -2 -15 4 -26 18 -33 20 -10 21 -10 2
5 -11 9 -17 16 -14 16 4 0 14 3 24 7 12 4 15 3 10 -5 -4 -7 -2 -12 4 -12 6 0
8 -5 4 -12 -4 -7 -3 -8 4 -4 8 5 9 13 2 25 -5 10 -6 22 -2 26 4 5 2 5 -5 1 -6
-3 -19 4 -27 16 -11 15 -16 18 -17 8z"/>
<path d="M2931 1153 c-12 -13 -12 -17 2 -25 10 -5 17 -16 17 -23 0 -8 5 -15
11 -15 6 0 8 8 4 19 -3 11 -1 22 4 25 13 8 3 36 -13 36 -6 -1 -17 -8 -25 -17z"/>
<path d="M3390 1115 c0 -52 1 -55 25 -55 24 0 25 3 25 55 0 52 -1 55 -25 55
-24 0 -25 -3 -25 -55z"/>
<path d="M3680 1166 c0 -2 7 -7 16 -10 8 -3 12 -2 9 4 -6 10 -25 14 -25 6z"/>
<path d="M4292 1150 c0 -14 2 -19 5 -12 2 6 2 18 0 25 -3 6 -5 1 -5 -13z"/>
<path d="M2358 1153 c7 -3 16 -2 19 1 4 3 -2 6 -13 5 -11 0 -14 -3 -6 -6z"/>
<path d="M3000 1150 c0 -5 7 -10 16 -10 8 0 12 5 9 10 -3 6 -10 10 -16 10 -5
0 -9 -4 -9 -10z"/>
<path d="M3946 1144 c-6 -15 -4 -15 11 -3 10 7 20 15 22 16 2 2 -3 3 -11 3 -9
0 -19 -7 -22 -16z"/>
<path d="M2000 1141 c0 -6 5 -13 11 -16 6 -4 14 -17 19 -29 7 -16 9 -17 9 -4
1 9 -3 20 -9 23 -5 3 -10 11 -10 16 0 6 4 8 9 4 5 -3 12 -1 16 5 4 6 -5 10
-19 10 -14 0 -26 -4 -26 -9z"/>
<path d="M1860 1124 c0 -12 5 -14 18 -8 9 4 32 8 50 9 57 3 48 15 -11 15 -46
0 -57 -3 -57 -16z"/>
<path d="M4848 1134 c21 -10 13 -26 -10 -19 -18 5 -20 4 -8 -4 13 -9 13 -12
-2 -28 -12 -11 -18 -13 -18 -5 0 7 -4 10 -10 7 -5 -3 -7 -20 -3 -37 5 -23 3
-29 -6 -23 -10 6 -11 3 -1 -15 11 -20 10 -21 -8 -16 -30 10 -36 -10 -11 -35
17 -17 34 -22 73 -22 90 1 96 2 90 18 -5 11 1 15 25 15 35 0 43 17 9 18 -31 2
-51 6 -65 15 -6 4 -18 4 -27 1 -12 -5 -15 -2 -10 10 4 11 2 15 -8 11 -9 -4
-15 0 -15 10 0 8 4 15 8 15 4 0 9 7 13 15 5 13 2 14 -16 4 -22 -12 -22 -12 -6
12 9 13 21 23 26 22 6 -1 9 5 8 15 -2 9 -11 18 -22 19 -10 2 -13 0 -6 -3z"/>
<path d="M1980 1120 c0 -5 5 -10 10 -10 6 0 10 5 10 10 0 6 -4 10 -10 10 -5 0
-10 -4 -10 -10z"/>
<path d="M1910 1109 c0 -5 5 -7 10 -4 6 3 10 8 10 11 0 2 -4 4 -10 4 -5 0 -10
-5 -10 -11z"/>
<path d="M2061 1104 c0 -11 3 -14 6 -6 3 7 2 16 -1 19 -3 4 -6 -2 -5 -13z"/>
<path d="M2316 1099 c-48 -26 -59 -36 -74 -74 -13 -34 -21 -185 -9 -185 4 0 7
8 8 18 1 11 4 8 8 -8 8 -25 1 -55 -7 -32 -9 28 -19 9 -15 -30 6 -63 9 -68 44
-68 l31 0 -23 19 c-19 16 -21 22 -12 32 7 7 22 13 33 14 16 1 20 -4 20 -27 0
-15 5 -28 10 -28 6 0 10 16 10 35 0 21 -5 35 -12 35 -7 0 -13 10 -13 23 -1 12
-4 33 -9 47 -4 14 -4 20 1 15 4 -6 18 -12 31 -12 18 -2 22 3 22 29 0 25 2 28
14 19 11 -10 17 -8 25 6 9 16 10 16 11 -5 0 -13 4 -20 10 -17 6 4 8 11 5 16
-4 5 3 9 15 9 19 0 19 -2 5 -23 -14 -22 -13 -25 15 -45 52 -39 52 -38 52 86 1
85 -14 113 -78 149 -49 28 -69 28 -118 2z m-39 -141 c-3 -8 -6 -5 -6 6 -1 11
2 17 5 13 3 -3 4 -12 1 -19z m109 -5 c-4 -4 -12 -1 -19 7 -9 10 -9 11 1 6 7
-4 12 -2 13 6 0 11 2 11 6 0 3 -7 2 -16 -1 -19z m84 12 c0 -8 -4 -15 -10 -15
-5 0 -7 7 -4 15 4 8 8 15 10 15 2 0 4 -7 4 -15z m-136 -30 c5 0 11 -6 14 -14
3 -10 0 -12 -12 -8 -10 4 -22 7 -27 7 -5 0 -9 7 -9 16 0 10 4 12 13 7 6 -4 16
-8 21 -8z m-79 -25 c3 -5 1 -10 -4 -10 -6 0 -11 5 -11 10 0 6 2 10 4 10 3 0 8
-4 11 -10z"/>
<path d="M3985 1091 c-28 -16 -56 -41 -63 -56 -15 -33 -16 -159 -1 -132 5 9
17 17 25 17 9 0 12 5 8 12 -5 8 4 9 32 5 21 -4 53 -7 70 -7 17 0 31 -5 32 -12
4 -48 16 -94 24 -99 5 -3 2 -9 -7 -13 -22 -8 -35 1 -35 24 0 19 -32 38 -38 21
-2 -5 -10 -7 -18 -4 -10 4 -14 -3 -14 -25 0 -30 -1 -30 -32 -21 -54 15 -58 13
-58 -36 0 -25 3 -45 6 -45 14 0 33 30 28 44 -3 9 -1 16 5 16 6 0 11 -6 11 -12
0 -9 4 -8 11 2 8 12 9 11 5 -5 -8 -30 4 -40 52 -42 42 -2 42 -2 43 35 2 34 2
34 6 7 6 -43 23 -56 23 -17 0 25 4 32 20 32 13 0 20 -7 20 -20 0 -11 -4 -20
-10 -20 -5 0 -10 -4 -10 -10 0 -14 67 -13 76 1 6 10 6 143 0 249 -3 55 -24 83
-88 116 -59 30 -62 30 -123 -5z m-28 -133 c-3 -8 -6 -5 -6 6 -1 11 2 17 5 13
3 -3 4 -12 1 -19z m40 7 c0 -8 -4 -15 -9 -15 -4 0 -8 7 -8 15 0 8 4 15 8 15 5
0 9 -7 9 -15z m49 -10 c1 -8 -2 -15 -7 -15 -5 0 -9 10 -9 22 0 23 12 17 16 -7z
m114 -69 c0 -8 -4 -18 -10 -21 -5 -3 -10 -4 -10 -1 0 2 -3 11 -6 20 -4 11 -1
16 10 16 9 0 16 -6 16 -14z m-26 -55 c-6 -6 -24 19 -24 34 1 6 7 1 15 -9 8
-11 12 -22 9 -25z m-124 -65 c0 -3 -4 -8 -10 -11 -5 -3 -10 -1 -10 4 0 6 5 11
10 11 6 0 10 -2 10 -4z"/>
<path d="M4788 1113 c7 -3 16 -2 19 1 4 3 -2 6 -13 5 -11 0 -14 -3 -6 -6z"/>
<path d="M5974 1111 c3 -5 15 -7 26 -4 28 7 25 13 -6 13 -14 0 -23 -4 -20 -9z"/>
<path d="M1883 1092 c1 -14 5 -18 11 -12 7 7 6 14 -1 21 -9 9 -12 7 -10 -9z"/>
<path d="M1918 1083 c-26 -27 -48 -72 -48 -96 0 -7 4 -6 11 3 8 11 9 6 4 -20
-11 -52 -11 -103 -1 -124 6 -14 4 -21 -8 -28 -22 -12 -23 -98 -1 -98 8 0 15 6
15 13 0 9 2 9 8 0 5 -9 31 -12 79 -10 l71 2 4 37 c2 21 -1 39 -7 42 -6 2 -10
54 -9 137 1 74 -1 129 -3 123 -2 -7 -16 1 -33 17 -35 36 -49 36 -82 2z m57
-173 c4 -6 -6 -10 -22 -9 -25 0 -26 1 -8 9 11 5 21 9 22 9 1 1 5 -3 8 -9z
m-15 -28 c0 -13 -12 -22 -22 -16 -10 6 -1 24 13 24 5 0 9 -4 9 -8z m0 -61 c0
-12 -39 -21 -45 -11 -6 10 1 15 25 17 11 1 20 -2 20 -6z"/>
<path d="M4433 1084 c-30 -23 -37 -39 -48 -114 -4 -31 -4 -33 7 -15 12 18 13
17 18 -20 5 -37 8 -40 39 -45 19 -3 36 -11 37 -18 1 -7 0 -8 -3 -2 -7 14 -23
13 -23 -3 0 -7 9 -18 19 -24 13 -8 18 -19 14 -33 -4 -16 -13 -20 -49 -20 -36
0 -42 3 -37 17 4 11 3 14 -5 9 -7 -4 -12 -16 -12 -27 0 -16 7 -19 50 -19 47 0
50 -2 50 -25 0 -14 5 -25 11 -25 7 0 9 10 7 25 -4 19 -1 25 13 25 14 0 19 -7
19 -25 0 -14 5 -25 11 -25 15 0 1 62 -17 76 -17 14 -18 34 -1 35 6 1 1 5 -13
9 -24 8 -24 8 -3 9 21 1 22 5 19 56 -2 30 -1 55 3 55 4 0 7 10 8 22 2 28 -31
88 -61 110 -21 15 -24 15 -53 -8z m9 -157 c-4 -17 -6 -18 -14 -3 -5 9 -6 26
-2 39 7 21 7 21 14 2 4 -11 5 -28 2 -38z"/>
<path d="M1790 1080 c0 -11 4 -20 9 -20 5 0 7 9 4 20 -3 11 -7 20 -9 20 -2 0
-4 -9 -4 -20z"/>
<path d="M2890 1084 c0 -8 5 -12 10 -9 6 3 10 10 10 16 0 5 -4 9 -10 9 -5 0
-10 -7 -10 -16z"/>
<path d="M6005 1080 c3 -5 13 -10 21 -10 8 0 14 5 14 10 0 6 -9 10 -21 10 -11
0 -17 -4 -14 -10z"/>
<path d="M2511 1064 c0 -11 3 -14 6 -6 3 7 2 16 -1 19 -3 4 -6 -2 -5 -13z"/>
<path d="M2643 1035 c0 -27 2 -38 4 -22 2 15 2 37 0 50 -2 12 -4 0 -4 -28z"/>
<path d="M2781 1064 c0 -11 3 -14 6 -6 3 7 2 16 -1 19 -3 4 -6 -2 -5 -13z"/>
<path d="M2935 1070 c-19 -8 -19 -9 3 -9 12 -1 22 4 22 9 0 6 -1 10 -2 9 -2 0
-12 -4 -23 -9z"/>
<path d="M4611 1064 c0 -11 3 -14 6 -6 3 7 2 16 -1 19 -3 4 -6 -2 -5 -13z"/>
<path d="M3676 1063 c5 -5 12 -12 15 -16 3 -5 9 -2 12 7 5 12 0 16 -15 16 -12
0 -17 -3 -12 -7z"/>
<path d="M1865 1050 c3 -5 8 -10 11 -10 2 0 4 5 4 10 0 6 -5 10 -11 10 -5 0
-7 -4 -4 -10z"/>
<path d="M2987 1044 c-18 -18 -6 -41 21 -42 23 0 28 3 27 21 -2 22 -33 35 -48
21z"/>
<path d="M3390 1026 c0 -21 5 -26 25 -26 14 0 25 5 25 10 0 6 -9 10 -21 10
-11 0 -18 4 -14 9 3 5 1 12 -5 16 -6 4 -10 -5 -10 -19z"/>
<path d="M3783 1000 c0 -30 2 -43 4 -27 2 15 2 39 0 55 -2 15 -4 2 -4 -28z"/>
<path d="M1790 882 c0 -99 4 -152 10 -152 6 0 10 6 9 13 -3 26 1 37 15 37 8 0
17 -8 19 -17 4 -14 5 -12 6 5 1 17 -4 22 -24 22 l-25 0 2 115 c1 63 -2 118 -5
122 -4 3 -7 -62 -7 -145z"/>
<path d="M4290 1009 c0 -5 5 -7 10 -4 6 3 10 8 10 11 0 2 -4 4 -10 4 -5 0 -10
-5 -10 -11z"/>
<path d="M2920 1000 c0 -5 10 -10 23 -10 l22 -1 -24 -19 c-13 -11 -20 -20 -16
-20 10 0 -18 -26 -35 -33 -12 -4 -11 -6 3 -6 9 -1 17 -7 17 -15 0 -19 14 -28
34 -20 11 4 14 14 9 35 -5 27 -4 28 23 20 32 -9 60 -2 59 16 0 17 -15 29 -15
11 0 -10 -9 -14 -27 -13 -25 1 -28 4 -25 33 3 29 1 32 -22 32 -14 0 -26 -4
-26 -10z"/>
<path d="M3670 999 c0 -5 5 -7 10 -4 6 3 10 8 10 11 0 2 -4 4 -10 4 -5 0 -10
-5 -10 -11z"/>
<path d="M4290 970 c0 -11 4 -20 9 -20 5 0 7 9 4 20 -3 11 -7 20 -9 20 -2 0
-4 -9 -4 -20z"/>
<path d="M2720 925 c0 -8 4 -15 10 -15 5 0 7 7 4 15 -4 8 -8 15 -10 15 -2 0
-4 -7 -4 -15z"/>
<path d="M5986 924 c-9 -23 -8 -24 23 -24 17 0 33 5 37 12 5 8 2 9 -9 5 -9 -3
-23 0 -31 8 -12 13 -15 12 -20 -1z"/>
<path d="M3782 905 c0 -16 2 -22 5 -12 2 9 2 23 0 30 -3 6 -5 -1 -5 -18z"/>
<path d="M4038 913 c6 -2 18 -2 25 0 6 3 1 5 -13 5 -14 0 -19 -2 -12 -5z"/>
<path d="M4390 900 c0 -11 4 -20 9 -20 5 0 7 9 4 20 -3 11 -7 20 -9 20 -2 0
-4 -9 -4 -20z"/>
<path d="M4817 906 c-3 -8 -2 -18 3 -21 13 -8 24 15 12 27 -6 6 -11 4 -15 -6z"/>
<path d="M1457 896 c-6 -14 1 -26 14 -26 4 0 7 9 6 20 -1 23 -12 26 -20 6z"/>
<path d="M3685 890 c3 -5 11 -10 16 -10 6 0 7 5 4 10 -3 6 -11 10 -16 10 -6 0
-7 -4 -4 -10z"/>
<path d="M3960 885 c0 -11 -7 -14 -25 -11 -20 4 -25 1 -25 -15 0 -14 7 -19 30
-19 19 0 30 5 30 14 0 8 3 21 6 30 3 9 1 16 -5 16 -6 0 -11 -7 -11 -15z"/>
<path d="M4035 891 c-11 -5 -23 -7 -27 -4 -5 2 -8 -3 -8 -11 0 -10 10 -14 34
-13 19 1 32 4 30 6 -2 2 1 10 7 18 13 15 -3 17 -36 4z"/>
<path d="M4860 892 c0 -5 7 -9 15 -9 8 0 12 4 9 9 -3 4 -9 8 -15 8 -5 0 -9 -4
-9 -8z"/>
<path d="M1494 875 c-4 -8 -15 -15 -25 -15 -13 0 -19 -7 -19 -21 0 -12 4 -18
11 -13 8 5 10 -3 7 -25 -4 -28 -2 -31 24 -31 21 0 28 5 28 20 0 13 -7 20 -20
20 -13 0 -20 6 -19 18 0 10 3 12 6 5 6 -15 53 -18 53 -3 0 6 -7 10 -15 10 -8
0 -15 5 -15 10 0 6 7 10 16 10 14 0 14 2 0 15 -8 8 -17 15 -21 15 -3 0 -8 -7
-11 -15z"/>
<path d="M5810 875 c0 -8 0 -18 0 -22 0 -9 5 -10 51 -12 19 -1 28 -5 23 -12
-3 -6 -17 -9 -30 -6 -12 2 -29 0 -36 -4 -9 -6 -4 -9 15 -9 16 0 26 -4 22 -10
-4 -6 18 -10 60 -10 42 0 64 4 60 10 -4 6 7 10 24 10 17 0 31 3 31 8 0 4 -29
6 -65 5 -36 -1 -65 0 -65 3 0 3 6 12 14 20 11 11 16 11 20 1 4 -6 4 -2 2 11
-4 21 -1 22 50 22 42 0 54 -3 54 -16 0 -8 -4 -13 -9 -9 -5 3 -12 1 -16 -5 -3
-5 3 -10 14 -10 14 0 21 6 21 19 0 11 6 22 13 24 6 3 -28 6 -78 6 -55 0 -85
-3 -76 -8 7 -5 10 -14 7 -20 -11 -18 -26 -13 -26 9 0 17 -7 20 -40 20 -29 0
-40 -4 -40 -15z m61 -10 c-1 -15 -24 -12 -29 3 -3 9 2 13 12 10 10 -1 17 -7
17 -13z"/>
<path d="M2936 849 c-19 -19 -19 -19 2 -19 15 0 22 6 22 20 0 24 0 24 -24 -1z"/>
<path d="M3000 860 c19 -13 30 -13 30 0 0 6 -10 10 -22 10 -19 0 -20 -2 -8
-10z"/>
<path d="M4800 861 c0 -5 7 -11 14 -14 10 -4 13 -1 9 9 -6 15 -23 19 -23 5z"/>
<path d="M5950 850 c0 -5 5 -10 10 -10 6 0 10 5 10 10 0 6 -4 10 -10 10 -5 0
-10 -4 -10 -10z"/>
<path d="M5980 850 c0 -5 5 -10 10 -10 6 0 10 5 10 10 0 6 -4 10 -10 10 -5 0
-10 -4 -10 -10z"/>
<path d="M2350 788 l0 -58 38 -1 c20 0 47 -2 60 -5 14 -2 22 1 22 11 0 9 -6
12 -15 9 -10 -4 -15 0 -15 15 0 17 6 21 33 21 24 0 28 -3 17 -10 -12 -8 -12
-10 -1 -10 10 0 11 -3 2 -13 -6 -8 -8 -17 -4 -20 16 -16 23 -4 23 41 0 46 -1
48 -29 50 -16 1 -32 -2 -36 -8 -10 -17 -25 -11 -25 9 0 14 -9 20 -35 23 l-35
4 0 -58z"/>
<path d="M2980 829 c0 -5 5 -7 10 -4 6 3 10 8 10 11 0 2 -4 4 -10 4 -5 0 -10
-5 -10 -11z"/>
<path d="M2131 794 c0 -11 3 -14 6 -6 3 7 2 16 -1 19 -3 4 -6 -2 -5 -13z"/>
<path d="M2590 765 c0 -27 3 -45 7 -42 3 4 6 23 6 42 0 19 -3 38 -6 42 -4 3
-7 -15 -7 -42z"/>
<path d="M2778 803 c6 -2 18 -2 25 0 6 3 1 5 -13 5 -14 0 -19 -2 -12 -5z"/>
<path d="M3678 803 c7 -3 16 -2 19 1 4 3 -2 6 -13 5 -11 0 -14 -3 -6 -6z"/>
<path d="M2531 784 c0 -11 3 -14 6 -6 3 7 2 16 -1 19 -3 4 -6 -2 -5 -13z"/>
<path d="M3758 765 c2 -19 6 -35 8 -35 2 0 4 16 4 35 0 19 -4 35 -8 35 -4 0
-6 -16 -4 -35z"/>
<path d="M3823 765 c0 -22 2 -30 4 -17 2 12 2 30 0 40 -3 9 -5 -1 -4 -23z"/>
<path d="M3882 780 c0 -14 2 -19 5 -12 2 6 2 18 0 25 -3 6 -5 1 -5 -13z"/>
<path d="M4268 793 c6 -2 12 -18 12 -34 0 -23 3 -27 17 -22 11 4 12 8 5 11 -7
2 -12 15 -12 28 0 16 -5 24 -17 23 -11 0 -13 -3 -5 -6z"/>
<path d="M5991 774 c0 -11 3 -14 6 -6 3 7 2 16 -1 19 -3 4 -6 -2 -5 -13z"/>
<path d="M2832 755 c0 -16 2 -22 5 -12 2 9 2 23 0 30 -3 6 -5 -1 -5 -18z"/>
<path d="M1440 758 c0 -4 6 -8 13 -8 8 0 7 -4 -3 -10 -11 -7 -4 -10 27 -10 32
0 41 3 37 14 -6 15 -74 28 -74 14z"/>
<path d="M2076 733 c-6 -14 -5 -15 5 -6 7 7 10 15 7 18 -3 3 -9 -2 -12 -12z"/>
<path d="M3581 734 c0 -11 3 -14 6 -6 3 7 2 16 -1 19 -3 4 -6 -2 -5 -13z"/>
<path d="M4321 734 c0 -11 3 -14 6 -6 3 7 2 16 -1 19 -3 4 -6 -2 -5 -13z"/>
<path d="M935 700 c3 -5 10 -10 16 -10 5 0 9 5 9 10 0 6 -7 10 -16 10 -8 0
-12 -4 -9 -10z"/>
<path d="M4558 703 c7 -3 16 -2 19 1 4 3 -2 6 -13 5 -11 0 -14 -3 -6 -6z"/>
<path d="M4888 703 c7 -3 16 -2 19 1 4 3 -2 6 -13 5 -11 0 -14 -3 -6 -6z"/>
<path d="M5570 698 c0 -5 18 -8 40 -8 22 0 40 2 40 4 0 2 -18 6 -40 8 -22 2
-40 0 -40 -4z"/>
<path d="M6121 694 c0 -11 3 -14 6 -6 3 7 2 16 -1 19 -3 4 -6 -2 -5 -13z"/>
<path d="M5693 693 c9 -2 23 -2 30 0 6 3 -1 5 -18 5 -16 0 -22 -2 -12 -5z"/>
<path d="M970 626 c0 -13 13 -16 65 -16 37 0 65 -4 65 -10 0 -5 7 -10 15 -10
8 0 15 7 15 15 0 13 7 15 34 9 19 -3 42 -1 53 5 14 9 -11 11 -102 9 -66 -2
-126 1 -132 5 -9 5 -13 3 -13 -7z"/>
<path d="M1411 609 c-1 -21 -6 -36 -13 -36 -7 -1 -46 -2 -85 -3 -40 -2 -73 -7
-73 -12 0 -6 16 -8 38 -5 20 3 29 3 20 1 -12 -4 -18 -15 -17 -32 0 -18 3 -22
7 -12 9 20 52 25 63 8 7 -10 9 -10 9 0 0 7 13 12 29 12 17 0 29 5 28 13 0 6 1
26 2 42 2 26 3 27 11 10 7 -17 9 -17 9 -2 1 13 10 17 44 18 23 1 47 1 54 0 23
-3 22 17 -2 21 -13 3 -22 1 -19 -3 3 -5 -17 -9 -45 -9 -30 0 -51 5 -54 13 -3
6 -6 -4 -6 -24z"/>
<path d="M1875 630 c-3 -5 1 -10 10 -10 9 0 13 5 10 10 -3 6 -8 10 -10 10 -2
0 -7 -4 -10 -10z"/>
<path d="M3973 633 c-17 -6 -16 -23 1 -23 8 0 16 7 20 15 6 15 1 17 -21 8z"/>
<path d="M1248 623 c7 -3 16 -2 19 1 4 3 -2 6 -13 5 -11 0 -14 -3 -6 -6z"/>
<path d="M1298 623 c12 -2 32 -2 45 0 12 2 2 4 -23 4 -25 0 -35 -2 -22 -4z"/>
<path d="M2273 623 c9 -2 25 -2 35 0 9 3 1 5 -18 5 -19 0 -27 -2 -17 -5z"/>
<path d="M4248 623 c7 -3 16 -2 19 1 4 3 -2 6 -13 5 -11 0 -14 -3 -6 -6z"/>
<path d="M4668 623 c23 -2 42 -8 42 -13 0 -4 9 -6 20 -3 11 3 20 1 20 -5 0 -7
10 -6 27 3 15 8 31 11 37 8 6 -3 8 -2 3 2 -4 5 -49 9 -100 11 -50 1 -73 0 -49
-3z"/>
<path d="M4838 623 c7 -3 16 -2 19 1 4 3 -2 6 -13 5 -11 0 -14 -3 -6 -6z"/>
<path d="M4887 613 c3 -7 9 -13 13 -13 4 0 10 6 13 13 3 7 -3 13 -13 13 -10 0
-16 -6 -13 -13z"/>
<path d="M1628 613 c12 -2 30 -2 40 0 9 3 -1 5 -23 4 -22 0 -30 -2 -17 -4z"/>
<path d="M4970 602 c0 -14 6 -22 16 -22 14 0 15 3 3 18 -7 9 -15 19 -16 21 -2
2 -3 -5 -3 -17z"/>
<path d="M5048 613 c12 -2 32 -2 45 0 12 2 2 4 -23 4 -25 0 -35 -2 -22 -4z"/>
<path d="M5994 605 c-3 -8 -4 -20 -1 -27 3 -7 6 -3 6 9 1 12 7 24 14 26 9 4 9
6 -1 6 -7 1 -15 -6 -18 -14z"/>
<path d="M1615 590 c3 -5 8 -10 11 -10 2 0 4 5 4 10 0 6 -5 10 -11 10 -5 0 -7
-4 -4 -10z"/>
<path d="M1895 590 c-3 -5 -1 -10 4 -10 6 0 11 5 11 10 0 6 -2 10 -4 10 -3 0
-8 -4 -11 -10z"/>
<path d="M5170 590 c0 -12 28 -21 35 -11 2 5 -4 11 -15 14 -11 3 -20 2 -20 -3z"/>
<path d="M705 580 c-3 -5 1 -10 9 -10 9 0 16 5 16 10 0 6 -4 10 -9 10 -6 0
-13 -4 -16 -10z"/>
<path d="M760 570 c-24 -8 -23 -8 8 -9 17 -1 32 4 32 9 0 11 -5 11 -40 0z"/>
<path d="M1090 571 c0 -6 9 -9 20 -8 11 1 20 5 20 9 0 4 -9 8 -20 8 -11 0 -20
-4 -20 -9z"/>
<path d="M2113 573 c9 -2 23 -2 30 0 6 3 -1 5 -18 5 -16 0 -22 -2 -12 -5z"/>
<path d="M2280 570 c0 -5 6 -7 14 -4 8 3 17 1 21 -5 4 -7 -5 -11 -24 -11 -17
0 -31 -4 -31 -10 0 -13 67 -13 75 0 4 7 13 6 27 -1 13 -7 24 -7 30 -1 7 7 -1
12 -21 17 -17 4 -31 10 -31 14 0 4 -13 8 -30 9 -16 1 -30 -2 -30 -8z"/>
<path d="M6077 561 c-4 -17 -3 -21 5 -13 5 5 8 16 6 23 -3 8 -7 3 -11 -10z"/>
<path d="M885 560 c4 -6 11 -8 16 -5 5 4 9 0 9 -7 0 -9 -13 -13 -44 -12 -43 2
-44 1 -36 -21 5 -13 6 -26 3 -29 -12 -12 8 -6 32 10 24 15 25 15 25 -3 0 -16
6 -19 28 -15 24 3 28 8 28 34 -1 17 -9 35 -20 44 -23 16 -50 19 -41 4z"/>
<path d="M1498 563 c6 -2 18 -2 25 0 6 3 1 5 -13 5 -14 0 -19 -2 -12 -5z"/>
<path d="M3950 555 c0 -8 5 -15 10 -15 6 0 10 7 10 15 0 8 -4 15 -10 15 -5 0
-10 -7 -10 -15z"/>
<path d="M4608 563 c7 -3 16 -2 19 1 4 3 -2 6 -13 5 -11 0 -14 -3 -6 -6z"/>
<path d="M4753 563 c9 -2 23 -2 30 0 6 3 -1 5 -18 5 -16 0 -22 -2 -12 -5z"/>
<path d="M5366 552 c-11 -11 -6 -18 14 -19 11 -1 20 2 20 8 0 5 8 9 18 9 14 0
15 -2 2 -10 -13 -8 -12 -10 3 -10 9 0 17 -4 17 -9 0 -5 7 -11 15 -15 8 -3 14
0 12 6 -1 7 3 12 10 13 20 0 27 15 7 16 -15 1 -13 3 6 9 l25 8 -27 1 c-19 1
-28 -4 -28 -14 0 -8 -4 -15 -10 -15 -5 0 -7 6 -4 13 3 9 -7 13 -35 14 -22 0
-42 -2 -45 -5z"/>
<path d="M5528 553 c7 -3 16 -2 19 1 4 3 -2 6 -13 5 -11 0 -14 -3 -6 -6z"/>
<path d="M5870 547 c0 -15 -23 -23 -52 -18 -5 0 -8 -9 -7 -21 0 -13 3 -17 6
-10 2 6 17 12 31 11 16 0 21 -3 12 -6 -49 -18 -46 -49 6 -59 36 -7 41 -13 23
-31 -7 -7 -5 -12 8 -15 16 -4 20 1 22 34 1 26 -3 40 -13 44 -21 8 -29 34 -10
34 8 0 13 -3 11 -7 -3 -5 5 -17 16 -28 l20 -20 -6 25 c-4 14 -7 31 -7 38 0 8
-9 12 -22 10 -13 -2 -23 2 -23 9 0 6 -3 15 -7 19 -5 4 -8 0 -8 -9z"/>
<path d="M5913 553 c9 -2 23 -2 30 0 6 3 -1 5 -18 5 -16 0 -22 -2 -12 -5z"/>
<path d="M2080 540 c8 -5 24 -10 35 -10 17 0 17 2 5 10 -8 5 -24 10 -35 10
-17 0 -17 -2 -5 -10z"/>
<path d="M2415 540 c-3 -5 1 -10 10 -10 9 0 13 5 10 10 -3 6 -8 10 -10 10 -2
0 -7 -4 -10 -10z"/>
<path d="M3788 543 c6 -2 18 -2 25 0 6 3 1 5 -13 5 -14 0 -19 -2 -12 -5z"/>
<path d="M3980 540 c0 -5 5 -10 11 -10 5 0 7 5 4 10 -3 6 -8 10 -11 10 -2 0
-4 -4 -4 -10z"/>
<path d="M5678 543 c6 -2 18 -2 25 0 6 3 1 5 -13 5 -14 0 -19 -2 -12 -5z"/>
<path d="M765 530 c-3 -5 -2 -10 4 -10 5 0 13 5 16 10 3 6 2 10 -4 10 -5 0
-13 -4 -16 -10z"/>
<path d="M1184 516 c-1 -18 5 -26 22 -30 13 -4 24 -11 24 -16 0 -6 4 -10 9
-10 5 0 9 16 9 35 0 36 -14 45 -36 23 -9 -9 -12 -8 -12 5 0 26 -15 20 -16 -7z"/>
<path d="M1453 534 c7 -8 108 -7 115 1 3 3 -23 5 -58 5 -35 0 -60 -3 -57 -6z"/>
<path d="M1653 533 c9 -2 25 -2 35 0 9 3 1 5 -18 5 -19 0 -27 -2 -17 -5z"/>
<path d="M1710 533 c0 -5 5 -15 10 -23 8 -12 10 -11 10 8 0 12 -4 22 -10 22
-5 0 -10 -3 -10 -7z"/>
<path d="M2775 530 c3 -6 -4 -10 -17 -10 -23 -1 -23 -1 -3 -15 11 -8 26 -19
33 -25 9 -8 12 -3 12 25 0 25 -4 35 -16 35 -8 0 -12 -4 -9 -10z"/>
<path d="M2890 529 c0 -15 54 -62 58 -50 3 8 -43 61 -53 61 -3 0 -5 -5 -5 -11z"/>
<path d="M3190 531 c0 -6 5 -13 10 -16 6 -3 10 1 10 9 0 9 -4 16 -10 16 -5 0
-10 -4 -10 -9z"/>
<path d="M3323 533 c9 -2 23 -2 30 0 6 3 -1 5 -18 5 -16 0 -22 -2 -12 -5z"/>
<path d="M4263 533 c15 -2 37 -2 50 0 12 2 0 4 -28 4 -27 0 -38 -2 -22 -4z"/>
<path d="M4413 533 c9 -2 23 -2 30 0 6 3 -1 5 -18 5 -16 0 -22 -2 -12 -5z"/>
<path d="M4488 533 c7 -3 16 -2 19 1 4 3 -2 6 -13 5 -11 0 -14 -3 -6 -6z"/>
<path d="M4880 528 c0 -11 28 -10 35 1 3 6 -4 9 -15 8 -11 -1 -20 -5 -20 -9z"/>
<path d="M4967 503 c7 -52 13 -54 13 -5 0 23 -4 42 -9 42 -5 0 -7 -17 -4 -37z"/>
<path d="M4993 500 c0 -25 2 -35 4 -22 2 12 2 32 0 45 -2 12 -4 2 -4 -23z"/>
<path d="M5065 530 c-60 -7 -60 -7 -15 -10 25 -2 52 -2 60 -1 8 1 23 3 32 4 9
1 14 5 12 9 -3 4 -11 7 -17 6 -7 -1 -39 -4 -72 -8z"/>
<path d="M5183 533 c9 -2 25 -2 35 0 9 3 1 5 -18 5 -19 0 -27 -2 -17 -5z"/>
<path d="M5525 530 c3 -5 16 -10 28 -9 21 0 21 1 2 9 -28 12 -37 12 -30 0z"/>
<path d="M2006 521 c-3 -5 -16 -7 -29 -3 -20 5 -21 4 -8 -12 8 -9 22 -21 31
-26 14 -7 17 -4 17 21 0 31 -2 35 -11 20z"/>
<path d="M2043 523 c-18 -7 -16 -20 2 -20 8 0 15 6 15 14 0 7 -1 13 -2 12 -2
0 -9 -3 -15 -6z"/>
<path d="M5318 523 c6 -2 12 -11 12 -19 0 -9 4 -13 10 -9 14 9 0 35 -19 34
-10 0 -11 -2 -3 -6z"/>
<path d="M5590 520 c0 -5 5 -10 11 -10 6 0 9 -7 5 -15 -3 -8 -1 -15 4 -15 9 0
14 14 11 33 0 4 6 7 14 7 8 0 15 -4 15 -10 0 -5 4 -10 10 -10 5 0 7 7 4 15 -7
17 -74 21 -74 5z"/>
<path d="M5687 518 c-7 -4 7 -8 31 -8 23 0 42 3 42 8 0 9 -58 9 -73 0z"/>
<path d="M6020 522 c0 -4 11 -9 25 -10 13 -1 28 -2 32 -3 4 -1 17 0 28 1 17 2
17 3 -5 10 -33 11 -80 12 -80 2z"/>
<path d="M1558 495 c-3 -14 -1 -25 3 -25 5 0 9 11 9 25 0 14 -2 25 -4 25 -2 0
-6 -11 -8 -25z"/>
<path d="M2106 511 c-3 -5 3 -11 15 -14 16 -4 18 -3 8 9 -13 16 -16 17 -23 5z"/>
<path d="M3835 510 c3 -5 8 -10 11 -10 2 0 4 5 4 10 0 6 -5 10 -11 10 -5 0 -7
-4 -4 -10z"/>
<path d="M4290 500 c0 -5 6 -10 14 -10 10 0 13 -7 11 -20 -2 -12 0 -18 6 -14
6 3 8 -5 4 -23 l-5 -28 11 25 c19 40 18 48 -7 64 -27 19 -34 20 -34 6z"/>
<path d="M4674 495 c-3 -8 -4 -20 -2 -27 3 -7 7 -1 10 15 6 29 1 36 -8 12z"/>
<path d="M4905 500 c3 -5 8 -10 11 -10 2 0 4 5 4 10 0 6 -5 10 -11 10 -5 0 -7
-4 -4 -10z"/>
<path d="M5018 503 c7 -3 16 -2 19 1 4 3 -2 6 -13 5 -11 0 -14 -3 -6 -6z"/>
<path d="M5070 490 c14 -11 31 -25 38 -30 7 -7 12 -7 12 -1 0 11 -53 51 -67
51 -4 -1 3 -10 17 -20z"/>
<path d="M5125 500 c3 -5 8 -10 11 -10 2 0 4 5 4 10 0 6 -5 10 -11 10 -5 0 -7
-4 -4 -10z"/>
<path d="M5250 501 c0 -5 9 -11 20 -14 24 -6 27 8 4 17 -21 8 -24 8 -24 -3z"/>
<path d="M5366 502 c-2 -4 11 -17 29 -30 19 -12 32 -16 29 -9 -7 18 -52 48
-58 39z"/>
<path d="M2711 491 c-7 -5 -9 -11 -5 -14 5 -3 15 1 22 9 14 16 5 18 -17 5z"/>
<path d="M3795 489 c-11 -17 1 -21 15 -4 8 9 8 15 2 15 -6 0 -14 -5 -17 -11z"/>
<path d="M3870 491 c0 -5 5 -13 10 -16 6 -3 10 -2 10 4 0 5 -4 13 -10 16 -5 3
-10 2 -10 -4z"/>
<path d="M5152 480 c0 -14 2 -19 5 -12 2 6 2 18 0 25 -3 6 -5 1 -5 -13z"/>
<path d="M5306 487 c3 -10 9 -15 12 -12 3 3 0 11 -7 18 -10 9 -11 8 -5 -6z"/>
<path d="M6050 491 c0 -5 7 -11 14 -14 10 -4 13 -1 9 9 -6 15 -23 19 -23 5z"/>
<path d="M6100 491 c0 -6 4 -13 10 -16 6 -3 7 1 4 9 -7 18 -14 21 -14 7z"/>
<path d="M960 479 c0 -5 5 -7 10 -4 6 3 10 8 10 11 0 2 -4 4 -10 4 -5 0 -10
-5 -10 -11z"/>
<path d="M2962 460 c0 -14 2 -19 5 -12 2 6 2 18 0 25 -3 6 -5 1 -5 -13z"/>
<path d="M3765 470 c-3 -5 -1 -10 4 -10 6 0 11 5 11 10 0 6 -2 10 -4 10 -3 0
-8 -4 -11 -10z"/>
<path d="M5177 467 c-4 -11 -1 -27 8 -40 16 -23 18 -11 6 33 -6 22 -8 23 -14
7z"/>
<path d="M5771 464 c0 -11 3 -14 6 -6 3 7 2 16 -1 19 -3 4 -6 -2 -5 -13z"/>
<path d="M761 444 c0 -11 3 -14 6 -6 3 7 2 16 -1 19 -3 4 -6 -2 -5 -13z"/>
<path d="M4640 440 c0 -5 5 -10 10 -10 6 0 10 5 10 10 0 6 -4 10 -10 10 -5 0
-10 -4 -10 -10z"/>
<path d="M6098 423 c5 -21 7 -23 10 -9 2 10 0 22 -6 28 -6 6 -7 0 -4 -19z"/>
<path d="M4830 413 c0 -4 5 -15 10 -23 8 -13 10 -13 10 2 0 9 -4 20 -10 23 -5
3 -10 3 -10 -2z"/>
<path d="M773 403 c9 -2 23 -2 30 0 6 3 -1 5 -18 5 -16 0 -22 -2 -12 -5z"/>
<path d="M5105 400 c-3 -5 -1 -10 4 -10 6 0 11 5 11 10 0 6 -2 10 -4 10 -3 0
-8 -4 -11 -10z"/>
<path d="M3182 105 c0 -16 2 -22 5 -12 2 9 2 23 0 30 -3 6 -5 -1 -5 -18z"/>
<path d="M4633 85 c0 -27 2 -38 4 -22 2 15 2 37 0 50 -2 12 -4 0 -4 -28z"/>
<path d="M2980 70 l35 -7 -36 -2 c-37 -1 -56 -21 -42 -43 3 -6 2 -8 -3 -5 -6
3 -16 2 -24 -4 -11 -6 -5 -9 21 -9 25 0 36 4 36 15 0 8 -7 15 -16 15 -14 0
-14 2 -1 10 8 5 44 9 80 9 45 0 59 -3 45 -9 -18 -8 -18 -9 5 -10 l25 -1 -23
-10 c-15 -5 -30 -5 -42 1 -10 6 -29 10 -42 9 -22 0 -22 -1 -3 -8 l20 -8 -20
-5 c-11 -3 9 -6 46 -7 75 -1 95 10 74 43 -11 16 -24 21 -55 21 -22 0 -40 3
-40 7 0 5 -17 7 -37 7 l-38 -2 35 -7z"/>
<path d="M3445 73 c8 -16 -26 -33 -66 -33 -35 0 -30 -15 6 -22 11 -3 -25 -5
-79 -7 -157 -3 -125 -11 42 -11 84 0 152 4 152 8 0 4 -14 23 -31 42 -17 19
-28 30 -24 23z m2 -59 c-3 -3 -12 -4 -19 -1 -8 3 -5 6 6 6 11 1 17 -2 13 -5z"/>
<path d="M3163 56 c-9 -10 -9 -16 0 -25 9 -9 8 -11 -5 -6 -13 5 -18 2 -18 -9
0 -16 39 -24 41 -8 0 4 2 19 4 35 4 29 -3 34 -22 13z"/>
<path d="M3215 40 c28 -12 37 -12 30 0 -3 6 -16 10 -28 9 -21 0 -21 -1 -2 -9z"/>
<path d="M5041 28 c-1 -16 4 -28 9 -28 12 0 12 8 0 35 -8 18 -9 17 -9 -7z"/>
<path d="M1146 33 c-11 -11 -6 -23 9 -23 8 0 15 4 15 9 0 13 -16 22 -24 14z"/>
<path d="M3308 33 c7 -3 16 -2 19 1 4 3 -2 6 -13 5 -11 0 -14 -3 -6 -6z"/>
<path d="M4641 14 c0 -11 3 -14 6 -6 3 7 2 16 -1 19 -3 4 -6 -2 -5 -13z"/>
</g>
</svg>
